<svg width="1920" height="1080" viewBox="0 0 1920 1080" fill="none" xmlns="http://www.w3.org/2000/svg">
<rect width="1920" height="1080" fill="#F2F2F2"/>
<rect x="160" y="76" width="1600" height="80" fill="#C4C4C4"/>
<rect x="628" y="164" width="160" height="80" fill="#C4C4C4"/>
<rect x="225" y="164" width="160" height="80" fill="#C4C4C4"/>
<rect x="642" y="252" width="8" height="80" fill="#04B2D9"/>
<rect x="1071" y="252" width="8" height="80" fill="#F20519"/>
<rect x="1107" y="252" width="8" height="80" fill="#F20519"/>
<rect x="1143" y="252" width="8" height="80" fill="#F20519"/>
<rect x="815" y="252" width="8" height="80" fill="#04B2D9"/>
<rect x="412" y="252" width="8" height="80" fill="#04B2D9"/>
<rect x="279" y="252" width="8" height="80" fill="#04B2D9"/>
<rect x="1071" y="164" width="107" height="80" fill="#F28A2E"/>
<rect x="964" y="164" width="107" height="80" fill="#F2CB05"/>
<rect x="305" y="252" width="8" height="80" fill="#04B2D9"/>
<rect x="872" y="252" width="8" height="80" fill="#04B2D9"/>
<rect x="469" y="252" width="8" height="80" fill="#04B2D9"/>
<rect x="734" y="252" width="8" height="80" fill="#04B2D9"/>
<rect x="1080" y="252" width="8" height="80" fill="#F20519"/>
<rect x="1116" y="252" width="8" height="80" fill="#F20519"/>
<rect x="1152" y="252" width="8" height="80" fill="#F20519"/>
<rect x="1089" y="252" width="8" height="80" fill="#F20519"/>
<rect x="1125" y="252" width="8" height="80" fill="#F20519"/>
<rect x="1161" y="252" width="8" height="80" fill="#F20519"/>
<rect x="1098" y="252" width="8" height="80" fill="#F20519"/>
<rect x="1134" y="252" width="8" height="80" fill="#F20519"/>
<rect x="1170" y="252" width="8" height="80" fill="#F20519"/>
<rect x="765" y="252" width="8" height="80" fill="#04B2D9"/>
<rect x="362" y="252" width="8" height="80" fill="#04B2D9"/>
<rect x="929" y="252" width="8" height="80" fill="#04B2D9"/>
<rect x="526" y="252" width="8" height="80" fill="#04B2D9"/>
<rect x="796" y="164" width="160" height="80" fill="#C4C4C4"/>
<rect x="393" y="164" width="160" height="80" fill="#C4C4C4"/>
<path d="M920.02 116.113H913.984V122.16H921.016V124H911.84V106.938H920.898V108.789H913.984V114.273H920.02V116.113ZM926.77 120.848L929.172 111.32H931.281L927.52 124H925.973L922.164 111.32H924.273L926.77 120.848ZM937.809 124.234C936.23 124.234 935.02 123.766 934.176 122.828C933.332 121.883 932.902 120.5 932.887 118.68V117.145C932.887 115.254 933.297 113.773 934.117 112.703C934.945 111.625 936.098 111.086 937.574 111.086C939.059 111.086 940.168 111.559 940.902 112.504C941.637 113.449 942.012 114.922 942.027 116.922V118.281H934.949V118.574C934.949 119.934 935.203 120.922 935.711 121.539C936.227 122.156 936.965 122.465 937.926 122.465C938.535 122.465 939.07 122.352 939.531 122.125C940 121.891 940.438 121.523 940.844 121.023L941.922 122.336C941.023 123.602 939.652 124.234 937.809 124.234ZM937.574 112.867C936.715 112.867 936.078 113.164 935.664 113.758C935.25 114.344 935.016 115.258 934.961 116.5H939.953V116.219C939.898 115.016 939.68 114.156 939.297 113.641C938.922 113.125 938.348 112.867 937.574 112.867ZM946.48 111.32L946.539 112.691C947.344 111.621 948.371 111.086 949.621 111.086C951.863 111.086 953 112.582 953.031 115.574V124H950.969V115.668C950.969 114.676 950.801 113.973 950.465 113.559C950.137 113.137 949.641 112.926 948.977 112.926C948.461 112.926 947.996 113.098 947.582 113.441C947.176 113.785 946.848 114.234 946.598 114.789V124H944.523V111.32H946.48ZM958.867 108.25V111.32H960.777V112.996H958.867V120.859C958.867 121.359 958.949 121.738 959.113 121.996C959.277 122.254 959.559 122.383 959.957 122.383C960.23 122.383 960.508 122.336 960.789 122.242L960.766 124C960.297 124.156 959.816 124.234 959.324 124.234C958.504 124.234 957.879 123.941 957.449 123.355C957.02 122.77 956.805 121.941 956.805 120.871V112.996H954.871V111.32H956.805V108.25H958.867ZM965.699 122.16H972.391V124H963.543V106.938H965.699V122.16ZM974.23 117.074C974.23 115.23 974.676 113.773 975.566 112.703C976.465 111.625 977.648 111.086 979.117 111.086C980.586 111.086 981.766 111.609 982.656 112.656C983.555 113.703 984.016 115.129 984.039 116.934V118.27C984.039 120.105 983.594 121.559 982.703 122.629C981.812 123.699 980.625 124.234 979.141 124.234C977.672 124.234 976.492 123.715 975.602 122.676C974.719 121.637 974.262 120.23 974.23 118.457V117.074ZM976.305 118.27C976.305 119.574 976.559 120.602 977.066 121.352C977.582 122.094 978.273 122.465 979.141 122.465C980.969 122.465 981.91 121.145 981.965 118.504V117.074C981.965 115.777 981.707 114.754 981.191 114.004C980.676 113.246 979.984 112.867 979.117 112.867C978.266 112.867 977.582 113.246 977.066 114.004C976.559 114.754 976.305 115.773 976.305 117.062V118.27ZM986.277 117.074C986.277 115.23 986.723 113.773 987.613 112.703C988.512 111.625 989.695 111.086 991.164 111.086C992.633 111.086 993.812 111.609 994.703 112.656C995.602 113.703 996.062 115.129 996.086 116.934V118.27C996.086 120.105 995.641 121.559 994.75 122.629C993.859 123.699 992.672 124.234 991.188 124.234C989.719 124.234 988.539 123.715 987.648 122.676C986.766 121.637 986.309 120.23 986.277 118.457V117.074ZM988.352 118.27C988.352 119.574 988.605 120.602 989.113 121.352C989.629 122.094 990.32 122.465 991.188 122.465C993.016 122.465 993.957 121.145 994.012 118.504V117.074C994.012 115.777 993.754 114.754 993.238 114.004C992.723 113.246 992.031 112.867 991.164 112.867C990.312 112.867 989.629 113.246 989.113 114.004C988.605 114.754 988.352 115.773 988.352 117.062V118.27ZM1007.92 118.27C1007.92 120.277 1007.56 121.773 1006.83 122.758C1006.11 123.742 1005.09 124.234 1003.77 124.234C1002.5 124.234 1001.52 123.754 1000.83 122.793V128.875H998.77V111.32H1000.64L1000.75 112.727C1001.45 111.633 1002.44 111.086 1003.74 111.086C1005.13 111.086 1006.17 111.57 1006.86 112.539C1007.54 113.508 1007.9 114.957 1007.92 116.887V118.27ZM1005.86 117.086C1005.86 115.664 1005.64 114.617 1005.2 113.945C1004.77 113.266 1004.06 112.926 1003.09 112.926C1002.1 112.926 1001.35 113.422 1000.83 114.414V121.012C1001.34 121.98 1002.1 122.465 1003.12 122.465C1004.05 122.465 1004.74 122.129 1005.18 121.457C1005.62 120.777 1005.85 119.742 1005.86 118.352V117.086Z" fill="black"/>
<path d="M697.812 196.789H693.324V212H691.18V196.789H686.703V194.938H697.812V196.789ZM705.23 212C705.105 211.727 705.016 211.266 704.961 210.617C704.227 211.695 703.289 212.234 702.148 212.234C701 212.234 700.102 211.914 699.453 211.273C698.812 210.625 698.492 209.715 698.492 208.543C698.492 207.254 698.93 206.23 699.805 205.473C700.68 204.715 701.879 204.328 703.402 204.312H704.926V202.965C704.926 202.207 704.758 201.668 704.422 201.348C704.086 201.027 703.574 200.867 702.887 200.867C702.262 200.867 701.754 201.055 701.363 201.43C700.973 201.797 700.777 202.266 700.777 202.836H698.703C698.703 202.188 698.895 201.57 699.277 200.984C699.66 200.391 700.176 199.926 700.824 199.59C701.473 199.254 702.195 199.086 702.992 199.086C704.289 199.086 705.273 199.41 705.945 200.059C706.625 200.699 706.973 201.637 706.988 202.871V209.27C706.996 210.246 707.129 211.094 707.387 211.812V212H705.23ZM702.465 210.348C702.973 210.348 703.457 210.207 703.918 209.926C704.379 209.645 704.715 209.293 704.926 208.871V205.848H703.754C702.77 205.863 701.992 206.086 701.422 206.516C700.852 206.938 700.566 207.531 700.566 208.297C700.566 209.016 700.711 209.539 701 209.867C701.289 210.188 701.777 210.348 702.465 210.348ZM716.375 208.754C716.375 208.309 716.207 207.926 715.871 207.605C715.535 207.285 714.887 206.91 713.926 206.48C712.809 206.02 712.02 205.625 711.559 205.297C711.105 204.969 710.766 204.598 710.539 204.184C710.312 203.762 710.199 203.262 710.199 202.684C710.199 201.652 710.574 200.797 711.324 200.117C712.082 199.43 713.047 199.086 714.219 199.086C715.453 199.086 716.445 199.445 717.195 200.164C717.945 200.883 718.32 201.805 718.32 202.93H716.258C716.258 202.359 716.066 201.875 715.684 201.477C715.301 201.07 714.812 200.867 714.219 200.867C713.609 200.867 713.129 201.027 712.777 201.348C712.434 201.66 712.262 202.082 712.262 202.613C712.262 203.035 712.387 203.375 712.637 203.633C712.895 203.891 713.508 204.23 714.477 204.652C716.016 205.254 717.062 205.844 717.617 206.422C718.172 206.992 718.449 207.719 718.449 208.602C718.449 209.703 718.07 210.586 717.312 211.25C716.555 211.906 715.539 212.234 714.266 212.234C712.945 212.234 711.875 211.855 711.055 211.098C710.234 210.34 709.824 209.379 709.824 208.215H711.91C711.934 208.918 712.148 209.469 712.555 209.867C712.961 210.266 713.531 210.465 714.266 210.465C714.953 210.465 715.477 210.312 715.836 210.008C716.195 209.695 716.375 209.277 716.375 208.754ZM724.344 206.199L723.242 207.465V212H721.168V194H723.242V204.77L727.191 199.32H729.676L725.645 204.617L730.203 212H727.789L724.344 206.199Z" fill="black"/>
<path d="M294.812 196.789H290.324V212H288.18V196.789H283.703V194.938H294.812V196.789ZM302.23 212C302.105 211.727 302.016 211.266 301.961 210.617C301.227 211.695 300.289 212.234 299.148 212.234C298 212.234 297.102 211.914 296.453 211.273C295.812 210.625 295.492 209.715 295.492 208.543C295.492 207.254 295.93 206.23 296.805 205.473C297.68 204.715 298.879 204.328 300.402 204.312H301.926V202.965C301.926 202.207 301.758 201.668 301.422 201.348C301.086 201.027 300.574 200.867 299.887 200.867C299.262 200.867 298.754 201.055 298.363 201.43C297.973 201.797 297.777 202.266 297.777 202.836H295.703C295.703 202.188 295.895 201.57 296.277 200.984C296.66 200.391 297.176 199.926 297.824 199.59C298.473 199.254 299.195 199.086 299.992 199.086C301.289 199.086 302.273 199.41 302.945 200.059C303.625 200.699 303.973 201.637 303.988 202.871V209.27C303.996 210.246 304.129 211.094 304.387 211.812V212H302.23ZM299.465 210.348C299.973 210.348 300.457 210.207 300.918 209.926C301.379 209.645 301.715 209.293 301.926 208.871V205.848H300.754C299.77 205.863 298.992 206.086 298.422 206.516C297.852 206.938 297.566 207.531 297.566 208.297C297.566 209.016 297.711 209.539 298 209.867C298.289 210.188 298.777 210.348 299.465 210.348ZM313.375 208.754C313.375 208.309 313.207 207.926 312.871 207.605C312.535 207.285 311.887 206.91 310.926 206.48C309.809 206.02 309.02 205.625 308.559 205.297C308.105 204.969 307.766 204.598 307.539 204.184C307.312 203.762 307.199 203.262 307.199 202.684C307.199 201.652 307.574 200.797 308.324 200.117C309.082 199.43 310.047 199.086 311.219 199.086C312.453 199.086 313.445 199.445 314.195 200.164C314.945 200.883 315.32 201.805 315.32 202.93H313.258C313.258 202.359 313.066 201.875 312.684 201.477C312.301 201.07 311.812 200.867 311.219 200.867C310.609 200.867 310.129 201.027 309.777 201.348C309.434 201.66 309.262 202.082 309.262 202.613C309.262 203.035 309.387 203.375 309.637 203.633C309.895 203.891 310.508 204.23 311.477 204.652C313.016 205.254 314.062 205.844 314.617 206.422C315.172 206.992 315.449 207.719 315.449 208.602C315.449 209.703 315.07 210.586 314.312 211.25C313.555 211.906 312.539 212.234 311.266 212.234C309.945 212.234 308.875 211.855 308.055 211.098C307.234 210.34 306.824 209.379 306.824 208.215H308.91C308.934 208.918 309.148 209.469 309.555 209.867C309.961 210.266 310.531 210.465 311.266 210.465C311.953 210.465 312.477 210.312 312.836 210.008C313.195 209.695 313.375 209.277 313.375 208.754ZM321.344 206.199L320.242 207.465V212H318.168V194H320.242V204.77L324.191 199.32H326.676L322.645 204.617L327.203 212H324.789L321.344 206.199Z" fill="black"/>
<path d="M865.812 196.789H861.324V212H859.18V196.789H854.703V194.938H865.812V196.789ZM873.23 212C873.105 211.727 873.016 211.266 872.961 210.617C872.227 211.695 871.289 212.234 870.148 212.234C869 212.234 868.102 211.914 867.453 211.273C866.812 210.625 866.492 209.715 866.492 208.543C866.492 207.254 866.93 206.23 867.805 205.473C868.68 204.715 869.879 204.328 871.402 204.312H872.926V202.965C872.926 202.207 872.758 201.668 872.422 201.348C872.086 201.027 871.574 200.867 870.887 200.867C870.262 200.867 869.754 201.055 869.363 201.43C868.973 201.797 868.777 202.266 868.777 202.836H866.703C866.703 202.188 866.895 201.57 867.277 200.984C867.66 200.391 868.176 199.926 868.824 199.59C869.473 199.254 870.195 199.086 870.992 199.086C872.289 199.086 873.273 199.41 873.945 200.059C874.625 200.699 874.973 201.637 874.988 202.871V209.27C874.996 210.246 875.129 211.094 875.387 211.812V212H873.23ZM870.465 210.348C870.973 210.348 871.457 210.207 871.918 209.926C872.379 209.645 872.715 209.293 872.926 208.871V205.848H871.754C870.77 205.863 869.992 206.086 869.422 206.516C868.852 206.938 868.566 207.531 868.566 208.297C868.566 209.016 868.711 209.539 869 209.867C869.289 210.188 869.777 210.348 870.465 210.348ZM884.375 208.754C884.375 208.309 884.207 207.926 883.871 207.605C883.535 207.285 882.887 206.91 881.926 206.48C880.809 206.02 880.02 205.625 879.559 205.297C879.105 204.969 878.766 204.598 878.539 204.184C878.312 203.762 878.199 203.262 878.199 202.684C878.199 201.652 878.574 200.797 879.324 200.117C880.082 199.43 881.047 199.086 882.219 199.086C883.453 199.086 884.445 199.445 885.195 200.164C885.945 200.883 886.32 201.805 886.32 202.93H884.258C884.258 202.359 884.066 201.875 883.684 201.477C883.301 201.07 882.812 200.867 882.219 200.867C881.609 200.867 881.129 201.027 880.777 201.348C880.434 201.66 880.262 202.082 880.262 202.613C880.262 203.035 880.387 203.375 880.637 203.633C880.895 203.891 881.508 204.23 882.477 204.652C884.016 205.254 885.062 205.844 885.617 206.422C886.172 206.992 886.449 207.719 886.449 208.602C886.449 209.703 886.07 210.586 885.312 211.25C884.555 211.906 883.539 212.234 882.266 212.234C880.945 212.234 879.875 211.855 879.055 211.098C878.234 210.34 877.824 209.379 877.824 208.215H879.91C879.934 208.918 880.148 209.469 880.555 209.867C880.961 210.266 881.531 210.465 882.266 210.465C882.953 210.465 883.477 210.312 883.836 210.008C884.195 209.695 884.375 209.277 884.375 208.754ZM892.344 206.199L891.242 207.465V212H889.168V194H891.242V204.77L895.191 199.32H897.676L893.645 204.617L898.203 212H895.789L892.344 206.199Z" fill="black"/>
<path d="M462.812 196.789H458.324V212H456.18V196.789H451.703V194.938H462.812V196.789ZM470.23 212C470.105 211.727 470.016 211.266 469.961 210.617C469.227 211.695 468.289 212.234 467.148 212.234C466 212.234 465.102 211.914 464.453 211.273C463.812 210.625 463.492 209.715 463.492 208.543C463.492 207.254 463.93 206.23 464.805 205.473C465.68 204.715 466.879 204.328 468.402 204.312H469.926V202.965C469.926 202.207 469.758 201.668 469.422 201.348C469.086 201.027 468.574 200.867 467.887 200.867C467.262 200.867 466.754 201.055 466.363 201.43C465.973 201.797 465.777 202.266 465.777 202.836H463.703C463.703 202.188 463.895 201.57 464.277 200.984C464.66 200.391 465.176 199.926 465.824 199.59C466.473 199.254 467.195 199.086 467.992 199.086C469.289 199.086 470.273 199.41 470.945 200.059C471.625 200.699 471.973 201.637 471.988 202.871V209.27C471.996 210.246 472.129 211.094 472.387 211.812V212H470.23ZM467.465 210.348C467.973 210.348 468.457 210.207 468.918 209.926C469.379 209.645 469.715 209.293 469.926 208.871V205.848H468.754C467.77 205.863 466.992 206.086 466.422 206.516C465.852 206.938 465.566 207.531 465.566 208.297C465.566 209.016 465.711 209.539 466 209.867C466.289 210.188 466.777 210.348 467.465 210.348ZM481.375 208.754C481.375 208.309 481.207 207.926 480.871 207.605C480.535 207.285 479.887 206.91 478.926 206.48C477.809 206.02 477.02 205.625 476.559 205.297C476.105 204.969 475.766 204.598 475.539 204.184C475.312 203.762 475.199 203.262 475.199 202.684C475.199 201.652 475.574 200.797 476.324 200.117C477.082 199.43 478.047 199.086 479.219 199.086C480.453 199.086 481.445 199.445 482.195 200.164C482.945 200.883 483.32 201.805 483.32 202.93H481.258C481.258 202.359 481.066 201.875 480.684 201.477C480.301 201.07 479.812 200.867 479.219 200.867C478.609 200.867 478.129 201.027 477.777 201.348C477.434 201.66 477.262 202.082 477.262 202.613C477.262 203.035 477.387 203.375 477.637 203.633C477.895 203.891 478.508 204.23 479.477 204.652C481.016 205.254 482.062 205.844 482.617 206.422C483.172 206.992 483.449 207.719 483.449 208.602C483.449 209.703 483.07 210.586 482.312 211.25C481.555 211.906 480.539 212.234 479.266 212.234C477.945 212.234 476.875 211.855 476.055 211.098C475.234 210.34 474.824 209.379 474.824 208.215H476.91C476.934 208.918 477.148 209.469 477.555 209.867C477.961 210.266 478.531 210.465 479.266 210.465C479.953 210.465 480.477 210.312 480.836 210.008C481.195 209.695 481.375 209.277 481.375 208.754ZM489.344 206.199L488.242 207.465V212H486.168V194H488.242V204.77L492.191 199.32H494.676L490.645 204.617L495.203 212H492.789L489.344 206.199Z" fill="black"/>
<path d="M998.605 194.938L1003.06 208.859L1007.51 194.938H1010.28V212H1008.13V205.355L1008.33 198.699L1003.87 212H1002.23L997.785 198.746L997.984 205.355V212H995.84V194.938H998.605ZM1020.21 212C1020.09 211.727 1020 211.266 1019.95 210.617C1019.21 211.695 1018.27 212.234 1017.13 212.234C1015.98 212.234 1015.09 211.914 1014.44 211.273C1013.8 210.625 1013.48 209.715 1013.48 208.543C1013.48 207.254 1013.91 206.23 1014.79 205.473C1015.66 204.715 1016.86 204.328 1018.39 204.312H1019.91V202.965C1019.91 202.207 1019.74 201.668 1019.41 201.348C1019.07 201.027 1018.56 200.867 1017.87 200.867C1017.25 200.867 1016.74 201.055 1016.35 201.43C1015.96 201.797 1015.76 202.266 1015.76 202.836H1013.69C1013.69 202.188 1013.88 201.57 1014.26 200.984C1014.64 200.391 1015.16 199.926 1015.81 199.59C1016.46 199.254 1017.18 199.086 1017.98 199.086C1019.27 199.086 1020.26 199.41 1020.93 200.059C1021.61 200.699 1021.96 201.637 1021.97 202.871V209.27C1021.98 210.246 1022.11 211.094 1022.37 211.812V212H1020.21ZM1017.45 210.348C1017.96 210.348 1018.44 210.207 1018.9 209.926C1019.36 209.645 1019.7 209.293 1019.91 208.871V205.848H1018.74C1017.75 205.863 1016.98 206.086 1016.41 206.516C1015.84 206.938 1015.55 207.531 1015.55 208.297C1015.55 209.016 1015.7 209.539 1015.98 209.867C1016.27 210.188 1016.76 210.348 1017.45 210.348ZM1030.43 201.266C1030.14 201.211 1029.83 201.184 1029.5 201.184C1028.43 201.184 1027.69 201.766 1027.27 202.93V212H1025.2V199.32H1027.21L1027.25 200.609C1027.8 199.594 1028.59 199.086 1029.6 199.086C1029.93 199.086 1030.2 199.141 1030.42 199.25L1030.43 201.266ZM1035.7 206.199L1034.59 207.465V212H1032.52V194H1034.59V204.77L1038.54 199.32H1041.03L1037 204.617L1041.55 212H1039.14L1035.7 206.199Z" fill="black"/>
<path d="M1102.29 207.688C1102.29 206.836 1102.06 206.184 1101.6 205.73C1101.14 205.277 1100.31 204.836 1099.11 204.406C1097.9 203.977 1096.98 203.527 1096.34 203.059C1095.71 202.582 1095.23 202.043 1094.91 201.441C1094.6 200.832 1094.44 200.137 1094.44 199.355C1094.44 198.004 1094.89 196.891 1095.79 196.016C1096.7 195.141 1097.88 194.703 1099.34 194.703C1100.34 194.703 1101.23 194.93 1102.01 195.383C1102.79 195.828 1103.39 196.449 1103.82 197.246C1104.24 198.043 1104.45 198.918 1104.45 199.871H1102.29C1102.29 198.816 1102.04 198 1101.53 197.422C1101.02 196.844 1100.29 196.555 1099.34 196.555C1098.47 196.555 1097.8 196.797 1097.32 197.281C1096.85 197.766 1096.61 198.445 1096.61 199.32C1096.61 200.039 1096.87 200.641 1097.38 201.125C1097.9 201.609 1098.7 202.043 1099.77 202.426C1101.45 202.98 1102.65 203.664 1103.37 204.477C1104.1 205.289 1104.46 206.352 1104.46 207.664C1104.46 209.047 1104.01 210.156 1103.11 210.992C1102.21 211.82 1100.99 212.234 1099.45 212.234C1098.45 212.234 1097.54 212.02 1096.69 211.59C1095.86 211.152 1095.2 210.543 1094.71 209.762C1094.23 208.973 1094 208.07 1094 207.055H1096.15C1096.15 208.109 1096.45 208.93 1097.03 209.516C1097.62 210.102 1098.43 210.395 1099.45 210.395C1100.39 210.395 1101.1 210.152 1101.58 209.668C1102.05 209.184 1102.29 208.523 1102.29 207.688ZM1116.45 208.355L1118.37 199.32H1120.42L1117.32 212H1115.66L1113.19 202.93L1110.78 212H1109.11L1106.03 199.32H1108.07L1110.04 208.133L1112.39 199.32H1114.04L1116.45 208.355ZM1127.14 212.234C1125.56 212.234 1124.35 211.766 1123.5 210.828C1122.66 209.883 1122.23 208.5 1122.21 206.68V205.145C1122.21 203.254 1122.62 201.773 1123.45 200.703C1124.27 199.625 1125.43 199.086 1126.9 199.086C1128.39 199.086 1129.5 199.559 1130.23 200.504C1130.96 201.449 1131.34 202.922 1131.36 204.922V206.281H1124.28V206.574C1124.28 207.934 1124.53 208.922 1125.04 209.539C1125.55 210.156 1126.29 210.465 1127.25 210.465C1127.86 210.465 1128.4 210.352 1128.86 210.125C1129.33 209.891 1129.77 209.523 1130.17 209.023L1131.25 210.336C1130.35 211.602 1128.98 212.234 1127.14 212.234ZM1126.9 200.867C1126.04 200.867 1125.41 201.164 1124.99 201.758C1124.58 202.344 1124.34 203.258 1124.29 204.5H1129.28V204.219C1129.23 203.016 1129.01 202.156 1128.62 201.641C1128.25 201.125 1127.68 200.867 1126.9 200.867ZM1138.39 212.234C1136.81 212.234 1135.6 211.766 1134.75 210.828C1133.91 209.883 1133.48 208.5 1133.46 206.68V205.145C1133.46 203.254 1133.88 201.773 1134.7 200.703C1135.52 199.625 1136.68 199.086 1138.15 199.086C1139.64 199.086 1140.75 199.559 1141.48 200.504C1142.21 201.449 1142.59 202.922 1142.61 204.922V206.281H1135.53V206.574C1135.53 207.934 1135.78 208.922 1136.29 209.539C1136.8 210.156 1137.54 210.465 1138.5 210.465C1139.11 210.465 1139.65 210.352 1140.11 210.125C1140.58 209.891 1141.02 209.523 1141.42 209.023L1142.5 210.336C1141.6 211.602 1140.23 212.234 1138.39 212.234ZM1138.15 200.867C1137.29 200.867 1136.66 201.164 1136.24 201.758C1135.83 202.344 1135.59 203.258 1135.54 204.5H1140.53V204.219C1140.48 203.016 1140.26 202.156 1139.88 201.641C1139.5 201.125 1138.93 200.867 1138.15 200.867ZM1154.27 206.27C1154.27 208.277 1153.9 209.773 1153.18 210.758C1152.46 211.742 1151.44 212.234 1150.12 212.234C1148.84 212.234 1147.86 211.754 1147.18 210.793V216.875H1145.11V199.32H1146.99L1147.09 200.727C1147.79 199.633 1148.79 199.086 1150.08 199.086C1151.47 199.086 1152.51 199.57 1153.2 200.539C1153.89 201.508 1154.24 202.957 1154.27 204.887V206.27ZM1152.2 205.086C1152.2 203.664 1151.98 202.617 1151.55 201.945C1151.11 201.266 1150.41 200.926 1149.44 200.926C1148.45 200.926 1147.69 201.422 1147.18 202.414V209.012C1147.68 209.98 1148.45 210.465 1149.46 210.465C1150.4 210.465 1151.09 210.129 1151.52 209.457C1151.97 208.777 1152.2 207.742 1152.2 206.352V205.086Z" fill="black"/>
<rect x="1207" y="252" width="8" height="80" fill="#04B2D9"/>
<rect x="1379" y="252" width="8" height="80" fill="#04B2D9"/>
<rect x="1248" y="252" width="8" height="80" fill="#04B2D9"/>
<rect x="1658" y="252" width="8" height="80" fill="#04B2D9"/>
<rect x="1410" y="252" width="8" height="80" fill="#04B2D9"/>
<rect x="1264" y="252" width="8" height="80" fill="#04B2D9"/>
<rect x="1462" y="252" width="8" height="80" fill="#04B2D9"/>
<rect x="1314" y="252" width="35" height="80" fill="#04B2D9"/>
<rect x="1503" y="252" width="16" height="80" fill="#04B2D9"/>
<rect x="1192" y="164" width="160" height="80" fill="#C4C4C4"/>
<rect x="1612" y="164" width="148" height="80" fill="#C4C4C4"/>
<rect x="1360" y="164" width="160" height="80" fill="#C4C4C4"/>
<path d="M1249.81 196.789H1245.32V212H1243.18V196.789H1238.7V194.938H1249.81V196.789ZM1257.23 212C1257.11 211.727 1257.02 211.266 1256.96 210.617C1256.23 211.695 1255.29 212.234 1254.15 212.234C1253 212.234 1252.1 211.914 1251.45 211.273C1250.81 210.625 1250.49 209.715 1250.49 208.543C1250.49 207.254 1250.93 206.23 1251.8 205.473C1252.68 204.715 1253.88 204.328 1255.4 204.312H1256.93V202.965C1256.93 202.207 1256.76 201.668 1256.42 201.348C1256.09 201.027 1255.57 200.867 1254.89 200.867C1254.26 200.867 1253.75 201.055 1253.36 201.43C1252.97 201.797 1252.78 202.266 1252.78 202.836H1250.7C1250.7 202.188 1250.89 201.57 1251.28 200.984C1251.66 200.391 1252.18 199.926 1252.82 199.59C1253.47 199.254 1254.2 199.086 1254.99 199.086C1256.29 199.086 1257.27 199.41 1257.95 200.059C1258.62 200.699 1258.97 201.637 1258.99 202.871V209.27C1259 210.246 1259.13 211.094 1259.39 211.812V212H1257.23ZM1254.46 210.348C1254.97 210.348 1255.46 210.207 1255.92 209.926C1256.38 209.645 1256.71 209.293 1256.93 208.871V205.848H1255.75C1254.77 205.863 1253.99 206.086 1253.42 206.516C1252.85 206.938 1252.57 207.531 1252.57 208.297C1252.57 209.016 1252.71 209.539 1253 209.867C1253.29 210.188 1253.78 210.348 1254.46 210.348ZM1268.38 208.754C1268.38 208.309 1268.21 207.926 1267.87 207.605C1267.54 207.285 1266.89 206.91 1265.93 206.48C1264.81 206.02 1264.02 205.625 1263.56 205.297C1263.11 204.969 1262.77 204.598 1262.54 204.184C1262.31 203.762 1262.2 203.262 1262.2 202.684C1262.2 201.652 1262.57 200.797 1263.32 200.117C1264.08 199.43 1265.05 199.086 1266.22 199.086C1267.45 199.086 1268.45 199.445 1269.2 200.164C1269.95 200.883 1270.32 201.805 1270.32 202.93H1268.26C1268.26 202.359 1268.07 201.875 1267.68 201.477C1267.3 201.07 1266.81 200.867 1266.22 200.867C1265.61 200.867 1265.13 201.027 1264.78 201.348C1264.43 201.66 1264.26 202.082 1264.26 202.613C1264.26 203.035 1264.39 203.375 1264.64 203.633C1264.89 203.891 1265.51 204.23 1266.48 204.652C1268.02 205.254 1269.06 205.844 1269.62 206.422C1270.17 206.992 1270.45 207.719 1270.45 208.602C1270.45 209.703 1270.07 210.586 1269.31 211.25C1268.55 211.906 1267.54 212.234 1266.27 212.234C1264.95 212.234 1263.88 211.855 1263.05 211.098C1262.23 210.34 1261.82 209.379 1261.82 208.215H1263.91C1263.93 208.918 1264.15 209.469 1264.55 209.867C1264.96 210.266 1265.53 210.465 1266.27 210.465C1266.95 210.465 1267.48 210.312 1267.84 210.008C1268.2 209.695 1268.38 209.277 1268.38 208.754ZM1276.34 206.199L1275.24 207.465V212H1273.17V194H1275.24V204.77L1279.19 199.32H1281.68L1277.64 204.617L1282.2 212H1279.79L1276.34 206.199Z" fill="black"/>
<path d="M1669.81 196.789H1665.32V212H1663.18V196.789H1658.7V194.938H1669.81V196.789ZM1677.23 212C1677.11 211.727 1677.02 211.266 1676.96 210.617C1676.23 211.695 1675.29 212.234 1674.15 212.234C1673 212.234 1672.1 211.914 1671.45 211.273C1670.81 210.625 1670.49 209.715 1670.49 208.543C1670.49 207.254 1670.93 206.23 1671.8 205.473C1672.68 204.715 1673.88 204.328 1675.4 204.312H1676.93V202.965C1676.93 202.207 1676.76 201.668 1676.42 201.348C1676.09 201.027 1675.57 200.867 1674.89 200.867C1674.26 200.867 1673.75 201.055 1673.36 201.43C1672.97 201.797 1672.78 202.266 1672.78 202.836H1670.7C1670.7 202.188 1670.89 201.57 1671.28 200.984C1671.66 200.391 1672.18 199.926 1672.82 199.59C1673.47 199.254 1674.2 199.086 1674.99 199.086C1676.29 199.086 1677.27 199.41 1677.95 200.059C1678.62 200.699 1678.97 201.637 1678.99 202.871V209.27C1679 210.246 1679.13 211.094 1679.39 211.812V212H1677.23ZM1674.46 210.348C1674.97 210.348 1675.46 210.207 1675.92 209.926C1676.38 209.645 1676.71 209.293 1676.93 208.871V205.848H1675.75C1674.77 205.863 1673.99 206.086 1673.42 206.516C1672.85 206.938 1672.57 207.531 1672.57 208.297C1672.57 209.016 1672.71 209.539 1673 209.867C1673.29 210.188 1673.78 210.348 1674.46 210.348ZM1688.38 208.754C1688.38 208.309 1688.21 207.926 1687.87 207.605C1687.54 207.285 1686.89 206.91 1685.93 206.48C1684.81 206.02 1684.02 205.625 1683.56 205.297C1683.11 204.969 1682.77 204.598 1682.54 204.184C1682.31 203.762 1682.2 203.262 1682.2 202.684C1682.2 201.652 1682.57 200.797 1683.32 200.117C1684.08 199.43 1685.05 199.086 1686.22 199.086C1687.45 199.086 1688.45 199.445 1689.2 200.164C1689.95 200.883 1690.32 201.805 1690.32 202.93H1688.26C1688.26 202.359 1688.07 201.875 1687.68 201.477C1687.3 201.07 1686.81 200.867 1686.22 200.867C1685.61 200.867 1685.13 201.027 1684.78 201.348C1684.43 201.66 1684.26 202.082 1684.26 202.613C1684.26 203.035 1684.39 203.375 1684.64 203.633C1684.89 203.891 1685.51 204.23 1686.48 204.652C1688.02 205.254 1689.06 205.844 1689.62 206.422C1690.17 206.992 1690.45 207.719 1690.45 208.602C1690.45 209.703 1690.07 210.586 1689.31 211.25C1688.55 211.906 1687.54 212.234 1686.27 212.234C1684.95 212.234 1683.88 211.855 1683.05 211.098C1682.23 210.34 1681.82 209.379 1681.82 208.215H1683.91C1683.93 208.918 1684.15 209.469 1684.55 209.867C1684.96 210.266 1685.53 210.465 1686.27 210.465C1686.95 210.465 1687.48 210.312 1687.84 210.008C1688.2 209.695 1688.38 209.277 1688.38 208.754ZM1696.34 206.199L1695.24 207.465V212H1693.17V194H1695.24V204.77L1699.19 199.32H1701.68L1697.64 204.617L1702.2 212H1699.79L1696.34 206.199Z" fill="black"/>
<path d="M1417.81 196.789H1413.32V212H1411.18V196.789H1406.7V194.938H1417.81V196.789ZM1425.23 212C1425.11 211.727 1425.02 211.266 1424.96 210.617C1424.23 211.695 1423.29 212.234 1422.15 212.234C1421 212.234 1420.1 211.914 1419.45 211.273C1418.81 210.625 1418.49 209.715 1418.49 208.543C1418.49 207.254 1418.93 206.23 1419.8 205.473C1420.68 204.715 1421.88 204.328 1423.4 204.312H1424.93V202.965C1424.93 202.207 1424.76 201.668 1424.42 201.348C1424.09 201.027 1423.57 200.867 1422.89 200.867C1422.26 200.867 1421.75 201.055 1421.36 201.43C1420.97 201.797 1420.78 202.266 1420.78 202.836H1418.7C1418.7 202.188 1418.89 201.57 1419.28 200.984C1419.66 200.391 1420.18 199.926 1420.82 199.59C1421.47 199.254 1422.2 199.086 1422.99 199.086C1424.29 199.086 1425.27 199.41 1425.95 200.059C1426.62 200.699 1426.97 201.637 1426.99 202.871V209.27C1427 210.246 1427.13 211.094 1427.39 211.812V212H1425.23ZM1422.46 210.348C1422.97 210.348 1423.46 210.207 1423.92 209.926C1424.38 209.645 1424.71 209.293 1424.93 208.871V205.848H1423.75C1422.77 205.863 1421.99 206.086 1421.42 206.516C1420.85 206.938 1420.57 207.531 1420.57 208.297C1420.57 209.016 1420.71 209.539 1421 209.867C1421.29 210.188 1421.78 210.348 1422.46 210.348ZM1436.38 208.754C1436.38 208.309 1436.21 207.926 1435.87 207.605C1435.54 207.285 1434.89 206.91 1433.93 206.48C1432.81 206.02 1432.02 205.625 1431.56 205.297C1431.11 204.969 1430.77 204.598 1430.54 204.184C1430.31 203.762 1430.2 203.262 1430.2 202.684C1430.2 201.652 1430.57 200.797 1431.32 200.117C1432.08 199.43 1433.05 199.086 1434.22 199.086C1435.45 199.086 1436.45 199.445 1437.2 200.164C1437.95 200.883 1438.32 201.805 1438.32 202.93H1436.26C1436.26 202.359 1436.07 201.875 1435.68 201.477C1435.3 201.07 1434.81 200.867 1434.22 200.867C1433.61 200.867 1433.13 201.027 1432.78 201.348C1432.43 201.66 1432.26 202.082 1432.26 202.613C1432.26 203.035 1432.39 203.375 1432.64 203.633C1432.89 203.891 1433.51 204.23 1434.48 204.652C1436.02 205.254 1437.06 205.844 1437.62 206.422C1438.17 206.992 1438.45 207.719 1438.45 208.602C1438.45 209.703 1438.07 210.586 1437.31 211.25C1436.55 211.906 1435.54 212.234 1434.27 212.234C1432.95 212.234 1431.88 211.855 1431.05 211.098C1430.23 210.34 1429.82 209.379 1429.82 208.215H1431.91C1431.93 208.918 1432.15 209.469 1432.55 209.867C1432.96 210.266 1433.53 210.465 1434.27 210.465C1434.95 210.465 1435.48 210.312 1435.84 210.008C1436.2 209.695 1436.38 209.277 1436.38 208.754ZM1444.34 206.199L1443.24 207.465V212H1441.17V194H1443.24V204.77L1447.19 199.32H1449.68L1445.64 204.617L1450.2 212H1447.79L1444.34 206.199Z" fill="black"/>
</svg>
