<svg width="1920" height="1080" viewBox="0 0 1920 1080" fill="none" xmlns="http://www.w3.org/2000/svg">
<rect width="1920" height="1080" fill="#F2F2F2"/>
<rect x="160" y="76" width="1600" height="80" fill="#C4C4C4"/>
<rect x="628" y="164" width="160" height="80" fill="#C4C4C4"/>
<rect x="225" y="164" width="160" height="80" fill="#C4C4C4"/>
<rect x="642" y="252" width="8" height="80" fill="#04B2D9"/>
<rect x="248" y="252" width="8" height="80" fill="#F20519"/>
<rect x="815" y="252" width="8" height="80" fill="#04B2D9"/>
<rect x="412" y="252" width="8" height="80" fill="#04B2D9"/>
<rect x="979" y="252" width="8" height="80" fill="#04B2D9"/>
<rect x="1151" y="252" width="8" height="80" fill="#04B2D9"/>
<rect x="1571" y="252" width="8" height="80" fill="#04B2D9"/>
<rect x="662" y="252" width="8" height="80" fill="#F20519"/>
<rect x="672" y="252" width="8" height="80" fill="#F20519"/>
<rect x="279" y="252" width="8" height="80" fill="#04B2D9"/>
<rect x="846" y="252" width="8" height="80" fill="#F20519"/>
<rect x="910" y="252" width="8" height="80" fill="#F20519"/>
<rect x="443" y="252" width="8" height="80" fill="#F20519"/>
<rect x="1020" y="252" width="8" height="80" fill="#04B2D9"/>
<rect x="1430" y="252" width="8" height="80" fill="#04B2D9"/>
<rect x="1182" y="252" width="8" height="80" fill="#04B2D9"/>
<rect x="1602" y="252" width="8" height="80" fill="#F20519"/>
<rect x="708" y="252" width="8" height="80" fill="#F20519"/>
<rect x="305" y="252" width="8" height="80" fill="#04B2D9"/>
<rect x="872" y="252" width="8" height="80" fill="#04B2D9"/>
<rect x="469" y="252" width="8" height="80" fill="#04B2D9"/>
<rect x="1036" y="252" width="8" height="80" fill="#04B2D9"/>
<rect x="1456" y="252" width="8" height="80" fill="#F20519"/>
<rect x="1208" y="252" width="8" height="80" fill="#F20519"/>
<rect x="1628" y="252" width="8" height="80" fill="#04B2D9"/>
<rect x="734" y="252" width="8" height="80" fill="#04B2D9"/>
<rect x="331" y="252" width="8" height="80" fill="#F20519"/>
<rect x="341" y="252" width="8" height="80" fill="#F20519"/>
<rect x="351" y="252" width="8" height="80" fill="#F20519"/>
<rect x="898" y="252" width="8" height="80" fill="#F20519"/>
<rect x="495" y="252" width="8" height="80" fill="#F20519"/>
<rect x="1062" y="252" width="8" height="80" fill="#F20519"/>
<rect x="1482" y="252" width="8" height="80" fill="#F20519"/>
<rect x="1234" y="252" width="8" height="80" fill="#04B2D9"/>
<rect x="1654" y="252" width="8" height="80" fill="#04B2D9"/>
<rect x="765" y="252" width="8" height="80" fill="#04B2D9"/>
<rect x="362" y="252" width="8" height="80" fill="#04B2D9"/>
<rect x="929" y="252" width="8" height="80" fill="#04B2D9"/>
<rect x="526" y="252" width="8" height="80" fill="#04B2D9"/>
<rect x="1113" y="252" width="8" height="80" fill="#04B2D9"/>
<rect x="1513" y="252" width="8" height="80" fill="#F20519"/>
<rect x="1275" y="252" width="8" height="80" fill="#04B2D9"/>
<rect x="1685" y="252" width="8" height="80" fill="#04B2D9"/>
<rect x="796" y="164" width="160" height="80" fill="#C4C4C4"/>
<rect x="393" y="164" width="160" height="80" fill="#C4C4C4"/>
<rect x="964" y="164" width="160" height="80" fill="#C4C4C4"/>
<rect x="1384" y="164" width="160" height="80" fill="#C4C4C4"/>
<rect x="1132" y="164" width="160" height="80" fill="#C4C4C4"/>
<rect x="1552" y="164" width="160" height="80" fill="#C4C4C4"/>
<path d="M920.02 116.113H913.984V122.16H921.016V124H911.84V106.938H920.898V108.789H913.984V114.273H920.02V116.113ZM926.77 120.848L929.172 111.32H931.281L927.52 124H925.973L922.164 111.32H924.273L926.77 120.848ZM937.809 124.234C936.23 124.234 935.02 123.766 934.176 122.828C933.332 121.883 932.902 120.5 932.887 118.68V117.145C932.887 115.254 933.297 113.773 934.117 112.703C934.945 111.625 936.098 111.086 937.574 111.086C939.059 111.086 940.168 111.559 940.902 112.504C941.637 113.449 942.012 114.922 942.027 116.922V118.281H934.949V118.574C934.949 119.934 935.203 120.922 935.711 121.539C936.227 122.156 936.965 122.465 937.926 122.465C938.535 122.465 939.07 122.352 939.531 122.125C940 121.891 940.438 121.523 940.844 121.023L941.922 122.336C941.023 123.602 939.652 124.234 937.809 124.234ZM937.574 112.867C936.715 112.867 936.078 113.164 935.664 113.758C935.25 114.344 935.016 115.258 934.961 116.5H939.953V116.219C939.898 115.016 939.68 114.156 939.297 113.641C938.922 113.125 938.348 112.867 937.574 112.867ZM946.48 111.32L946.539 112.691C947.344 111.621 948.371 111.086 949.621 111.086C951.863 111.086 953 112.582 953.031 115.574V124H950.969V115.668C950.969 114.676 950.801 113.973 950.465 113.559C950.137 113.137 949.641 112.926 948.977 112.926C948.461 112.926 947.996 113.098 947.582 113.441C947.176 113.785 946.848 114.234 946.598 114.789V124H944.523V111.32H946.48ZM958.867 108.25V111.32H960.777V112.996H958.867V120.859C958.867 121.359 958.949 121.738 959.113 121.996C959.277 122.254 959.559 122.383 959.957 122.383C960.23 122.383 960.508 122.336 960.789 122.242L960.766 124C960.297 124.156 959.816 124.234 959.324 124.234C958.504 124.234 957.879 123.941 957.449 123.355C957.02 122.77 956.805 121.941 956.805 120.871V112.996H954.871V111.32H956.805V108.25H958.867ZM965.699 122.16H972.391V124H963.543V106.938H965.699V122.16ZM974.23 117.074C974.23 115.23 974.676 113.773 975.566 112.703C976.465 111.625 977.648 111.086 979.117 111.086C980.586 111.086 981.766 111.609 982.656 112.656C983.555 113.703 984.016 115.129 984.039 116.934V118.27C984.039 120.105 983.594 121.559 982.703 122.629C981.812 123.699 980.625 124.234 979.141 124.234C977.672 124.234 976.492 123.715 975.602 122.676C974.719 121.637 974.262 120.23 974.23 118.457V117.074ZM976.305 118.27C976.305 119.574 976.559 120.602 977.066 121.352C977.582 122.094 978.273 122.465 979.141 122.465C980.969 122.465 981.91 121.145 981.965 118.504V117.074C981.965 115.777 981.707 114.754 981.191 114.004C980.676 113.246 979.984 112.867 979.117 112.867C978.266 112.867 977.582 113.246 977.066 114.004C976.559 114.754 976.305 115.773 976.305 117.062V118.27ZM986.277 117.074C986.277 115.23 986.723 113.773 987.613 112.703C988.512 111.625 989.695 111.086 991.164 111.086C992.633 111.086 993.812 111.609 994.703 112.656C995.602 113.703 996.062 115.129 996.086 116.934V118.27C996.086 120.105 995.641 121.559 994.75 122.629C993.859 123.699 992.672 124.234 991.188 124.234C989.719 124.234 988.539 123.715 987.648 122.676C986.766 121.637 986.309 120.23 986.277 118.457V117.074ZM988.352 118.27C988.352 119.574 988.605 120.602 989.113 121.352C989.629 122.094 990.32 122.465 991.188 122.465C993.016 122.465 993.957 121.145 994.012 118.504V117.074C994.012 115.777 993.754 114.754 993.238 114.004C992.723 113.246 992.031 112.867 991.164 112.867C990.312 112.867 989.629 113.246 989.113 114.004C988.605 114.754 988.352 115.773 988.352 117.062V118.27ZM1007.92 118.27C1007.92 120.277 1007.56 121.773 1006.83 122.758C1006.11 123.742 1005.09 124.234 1003.77 124.234C1002.5 124.234 1001.52 123.754 1000.83 122.793V128.875H998.77V111.32H1000.64L1000.75 112.727C1001.45 111.633 1002.44 111.086 1003.74 111.086C1005.13 111.086 1006.17 111.57 1006.86 112.539C1007.54 113.508 1007.9 114.957 1007.92 116.887V118.27ZM1005.86 117.086C1005.86 115.664 1005.64 114.617 1005.2 113.945C1004.77 113.266 1004.06 112.926 1003.09 112.926C1002.1 112.926 1001.35 113.422 1000.83 114.414V121.012C1001.34 121.98 1002.1 122.465 1003.12 122.465C1004.05 122.465 1004.74 122.129 1005.18 121.457C1005.62 120.777 1005.85 119.742 1005.86 118.352V117.086Z" fill="black"/>
<path d="M697.812 196.789H693.324V212H691.18V196.789H686.703V194.938H697.812V196.789ZM705.23 212C705.105 211.727 705.016 211.266 704.961 210.617C704.227 211.695 703.289 212.234 702.148 212.234C701 212.234 700.102 211.914 699.453 211.273C698.812 210.625 698.492 209.715 698.492 208.543C698.492 207.254 698.93 206.23 699.805 205.473C700.68 204.715 701.879 204.328 703.402 204.312H704.926V202.965C704.926 202.207 704.758 201.668 704.422 201.348C704.086 201.027 703.574 200.867 702.887 200.867C702.262 200.867 701.754 201.055 701.363 201.43C700.973 201.797 700.777 202.266 700.777 202.836H698.703C698.703 202.188 698.895 201.57 699.277 200.984C699.66 200.391 700.176 199.926 700.824 199.59C701.473 199.254 702.195 199.086 702.992 199.086C704.289 199.086 705.273 199.41 705.945 200.059C706.625 200.699 706.973 201.637 706.988 202.871V209.27C706.996 210.246 707.129 211.094 707.387 211.812V212H705.23ZM702.465 210.348C702.973 210.348 703.457 210.207 703.918 209.926C704.379 209.645 704.715 209.293 704.926 208.871V205.848H703.754C702.77 205.863 701.992 206.086 701.422 206.516C700.852 206.938 700.566 207.531 700.566 208.297C700.566 209.016 700.711 209.539 701 209.867C701.289 210.188 701.777 210.348 702.465 210.348ZM716.375 208.754C716.375 208.309 716.207 207.926 715.871 207.605C715.535 207.285 714.887 206.91 713.926 206.48C712.809 206.02 712.02 205.625 711.559 205.297C711.105 204.969 710.766 204.598 710.539 204.184C710.312 203.762 710.199 203.262 710.199 202.684C710.199 201.652 710.574 200.797 711.324 200.117C712.082 199.43 713.047 199.086 714.219 199.086C715.453 199.086 716.445 199.445 717.195 200.164C717.945 200.883 718.32 201.805 718.32 202.93H716.258C716.258 202.359 716.066 201.875 715.684 201.477C715.301 201.07 714.812 200.867 714.219 200.867C713.609 200.867 713.129 201.027 712.777 201.348C712.434 201.66 712.262 202.082 712.262 202.613C712.262 203.035 712.387 203.375 712.637 203.633C712.895 203.891 713.508 204.23 714.477 204.652C716.016 205.254 717.062 205.844 717.617 206.422C718.172 206.992 718.449 207.719 718.449 208.602C718.449 209.703 718.07 210.586 717.312 211.25C716.555 211.906 715.539 212.234 714.266 212.234C712.945 212.234 711.875 211.855 711.055 211.098C710.234 210.34 709.824 209.379 709.824 208.215H711.91C711.934 208.918 712.148 209.469 712.555 209.867C712.961 210.266 713.531 210.465 714.266 210.465C714.953 210.465 715.477 210.312 715.836 210.008C716.195 209.695 716.375 209.277 716.375 208.754ZM724.344 206.199L723.242 207.465V212H721.168V194H723.242V204.77L727.191 199.32H729.676L725.645 204.617L730.203 212H727.789L724.344 206.199Z" fill="black"/>
<path d="M294.812 196.789H290.324V212H288.18V196.789H283.703V194.938H294.812V196.789ZM302.23 212C302.105 211.727 302.016 211.266 301.961 210.617C301.227 211.695 300.289 212.234 299.148 212.234C298 212.234 297.102 211.914 296.453 211.273C295.812 210.625 295.492 209.715 295.492 208.543C295.492 207.254 295.93 206.23 296.805 205.473C297.68 204.715 298.879 204.328 300.402 204.312H301.926V202.965C301.926 202.207 301.758 201.668 301.422 201.348C301.086 201.027 300.574 200.867 299.887 200.867C299.262 200.867 298.754 201.055 298.363 201.43C297.973 201.797 297.777 202.266 297.777 202.836H295.703C295.703 202.188 295.895 201.57 296.277 200.984C296.66 200.391 297.176 199.926 297.824 199.59C298.473 199.254 299.195 199.086 299.992 199.086C301.289 199.086 302.273 199.41 302.945 200.059C303.625 200.699 303.973 201.637 303.988 202.871V209.27C303.996 210.246 304.129 211.094 304.387 211.812V212H302.23ZM299.465 210.348C299.973 210.348 300.457 210.207 300.918 209.926C301.379 209.645 301.715 209.293 301.926 208.871V205.848H300.754C299.77 205.863 298.992 206.086 298.422 206.516C297.852 206.938 297.566 207.531 297.566 208.297C297.566 209.016 297.711 209.539 298 209.867C298.289 210.188 298.777 210.348 299.465 210.348ZM313.375 208.754C313.375 208.309 313.207 207.926 312.871 207.605C312.535 207.285 311.887 206.91 310.926 206.48C309.809 206.02 309.02 205.625 308.559 205.297C308.105 204.969 307.766 204.598 307.539 204.184C307.312 203.762 307.199 203.262 307.199 202.684C307.199 201.652 307.574 200.797 308.324 200.117C309.082 199.43 310.047 199.086 311.219 199.086C312.453 199.086 313.445 199.445 314.195 200.164C314.945 200.883 315.32 201.805 315.32 202.93H313.258C313.258 202.359 313.066 201.875 312.684 201.477C312.301 201.07 311.812 200.867 311.219 200.867C310.609 200.867 310.129 201.027 309.777 201.348C309.434 201.66 309.262 202.082 309.262 202.613C309.262 203.035 309.387 203.375 309.637 203.633C309.895 203.891 310.508 204.23 311.477 204.652C313.016 205.254 314.062 205.844 314.617 206.422C315.172 206.992 315.449 207.719 315.449 208.602C315.449 209.703 315.07 210.586 314.312 211.25C313.555 211.906 312.539 212.234 311.266 212.234C309.945 212.234 308.875 211.855 308.055 211.098C307.234 210.34 306.824 209.379 306.824 208.215H308.91C308.934 208.918 309.148 209.469 309.555 209.867C309.961 210.266 310.531 210.465 311.266 210.465C311.953 210.465 312.477 210.312 312.836 210.008C313.195 209.695 313.375 209.277 313.375 208.754ZM321.344 206.199L320.242 207.465V212H318.168V194H320.242V204.77L324.191 199.32H326.676L322.645 204.617L327.203 212H324.789L321.344 206.199Z" fill="black"/>
<path d="M865.812 196.789H861.324V212H859.18V196.789H854.703V194.938H865.812V196.789ZM873.23 212C873.105 211.727 873.016 211.266 872.961 210.617C872.227 211.695 871.289 212.234 870.148 212.234C869 212.234 868.102 211.914 867.453 211.273C866.812 210.625 866.492 209.715 866.492 208.543C866.492 207.254 866.93 206.23 867.805 205.473C868.68 204.715 869.879 204.328 871.402 204.312H872.926V202.965C872.926 202.207 872.758 201.668 872.422 201.348C872.086 201.027 871.574 200.867 870.887 200.867C870.262 200.867 869.754 201.055 869.363 201.43C868.973 201.797 868.777 202.266 868.777 202.836H866.703C866.703 202.188 866.895 201.57 867.277 200.984C867.66 200.391 868.176 199.926 868.824 199.59C869.473 199.254 870.195 199.086 870.992 199.086C872.289 199.086 873.273 199.41 873.945 200.059C874.625 200.699 874.973 201.637 874.988 202.871V209.27C874.996 210.246 875.129 211.094 875.387 211.812V212H873.23ZM870.465 210.348C870.973 210.348 871.457 210.207 871.918 209.926C872.379 209.645 872.715 209.293 872.926 208.871V205.848H871.754C870.77 205.863 869.992 206.086 869.422 206.516C868.852 206.938 868.566 207.531 868.566 208.297C868.566 209.016 868.711 209.539 869 209.867C869.289 210.188 869.777 210.348 870.465 210.348ZM884.375 208.754C884.375 208.309 884.207 207.926 883.871 207.605C883.535 207.285 882.887 206.91 881.926 206.48C880.809 206.02 880.02 205.625 879.559 205.297C879.105 204.969 878.766 204.598 878.539 204.184C878.312 203.762 878.199 203.262 878.199 202.684C878.199 201.652 878.574 200.797 879.324 200.117C880.082 199.43 881.047 199.086 882.219 199.086C883.453 199.086 884.445 199.445 885.195 200.164C885.945 200.883 886.32 201.805 886.32 202.93H884.258C884.258 202.359 884.066 201.875 883.684 201.477C883.301 201.07 882.812 200.867 882.219 200.867C881.609 200.867 881.129 201.027 880.777 201.348C880.434 201.66 880.262 202.082 880.262 202.613C880.262 203.035 880.387 203.375 880.637 203.633C880.895 203.891 881.508 204.23 882.477 204.652C884.016 205.254 885.062 205.844 885.617 206.422C886.172 206.992 886.449 207.719 886.449 208.602C886.449 209.703 886.07 210.586 885.312 211.25C884.555 211.906 883.539 212.234 882.266 212.234C880.945 212.234 879.875 211.855 879.055 211.098C878.234 210.34 877.824 209.379 877.824 208.215H879.91C879.934 208.918 880.148 209.469 880.555 209.867C880.961 210.266 881.531 210.465 882.266 210.465C882.953 210.465 883.477 210.312 883.836 210.008C884.195 209.695 884.375 209.277 884.375 208.754ZM892.344 206.199L891.242 207.465V212H889.168V194H891.242V204.77L895.191 199.32H897.676L893.645 204.617L898.203 212H895.789L892.344 206.199Z" fill="black"/>
<path d="M462.812 196.789H458.324V212H456.18V196.789H451.703V194.938H462.812V196.789ZM470.23 212C470.105 211.727 470.016 211.266 469.961 210.617C469.227 211.695 468.289 212.234 467.148 212.234C466 212.234 465.102 211.914 464.453 211.273C463.812 210.625 463.492 209.715 463.492 208.543C463.492 207.254 463.93 206.23 464.805 205.473C465.68 204.715 466.879 204.328 468.402 204.312H469.926V202.965C469.926 202.207 469.758 201.668 469.422 201.348C469.086 201.027 468.574 200.867 467.887 200.867C467.262 200.867 466.754 201.055 466.363 201.43C465.973 201.797 465.777 202.266 465.777 202.836H463.703C463.703 202.188 463.895 201.57 464.277 200.984C464.66 200.391 465.176 199.926 465.824 199.59C466.473 199.254 467.195 199.086 467.992 199.086C469.289 199.086 470.273 199.41 470.945 200.059C471.625 200.699 471.973 201.637 471.988 202.871V209.27C471.996 210.246 472.129 211.094 472.387 211.812V212H470.23ZM467.465 210.348C467.973 210.348 468.457 210.207 468.918 209.926C469.379 209.645 469.715 209.293 469.926 208.871V205.848H468.754C467.77 205.863 466.992 206.086 466.422 206.516C465.852 206.938 465.566 207.531 465.566 208.297C465.566 209.016 465.711 209.539 466 209.867C466.289 210.188 466.777 210.348 467.465 210.348ZM481.375 208.754C481.375 208.309 481.207 207.926 480.871 207.605C480.535 207.285 479.887 206.91 478.926 206.48C477.809 206.02 477.02 205.625 476.559 205.297C476.105 204.969 475.766 204.598 475.539 204.184C475.312 203.762 475.199 203.262 475.199 202.684C475.199 201.652 475.574 200.797 476.324 200.117C477.082 199.43 478.047 199.086 479.219 199.086C480.453 199.086 481.445 199.445 482.195 200.164C482.945 200.883 483.32 201.805 483.32 202.93H481.258C481.258 202.359 481.066 201.875 480.684 201.477C480.301 201.07 479.812 200.867 479.219 200.867C478.609 200.867 478.129 201.027 477.777 201.348C477.434 201.66 477.262 202.082 477.262 202.613C477.262 203.035 477.387 203.375 477.637 203.633C477.895 203.891 478.508 204.23 479.477 204.652C481.016 205.254 482.062 205.844 482.617 206.422C483.172 206.992 483.449 207.719 483.449 208.602C483.449 209.703 483.07 210.586 482.312 211.25C481.555 211.906 480.539 212.234 479.266 212.234C477.945 212.234 476.875 211.855 476.055 211.098C475.234 210.34 474.824 209.379 474.824 208.215H476.91C476.934 208.918 477.148 209.469 477.555 209.867C477.961 210.266 478.531 210.465 479.266 210.465C479.953 210.465 480.477 210.312 480.836 210.008C481.195 209.695 481.375 209.277 481.375 208.754ZM489.344 206.199L488.242 207.465V212H486.168V194H488.242V204.77L492.191 199.32H494.676L490.645 204.617L495.203 212H492.789L489.344 206.199Z" fill="black"/>
<path d="M1032.81 196.789H1028.32V212H1026.18V196.789H1021.7V194.938H1032.81V196.789ZM1040.23 212C1040.11 211.727 1040.02 211.266 1039.96 210.617C1039.23 211.695 1038.29 212.234 1037.15 212.234C1036 212.234 1035.1 211.914 1034.45 211.273C1033.81 210.625 1033.49 209.715 1033.49 208.543C1033.49 207.254 1033.93 206.23 1034.8 205.473C1035.68 204.715 1036.88 204.328 1038.4 204.312H1039.93V202.965C1039.93 202.207 1039.76 201.668 1039.42 201.348C1039.09 201.027 1038.57 200.867 1037.89 200.867C1037.26 200.867 1036.75 201.055 1036.36 201.43C1035.97 201.797 1035.78 202.266 1035.78 202.836H1033.7C1033.7 202.188 1033.89 201.57 1034.28 200.984C1034.66 200.391 1035.18 199.926 1035.82 199.59C1036.47 199.254 1037.2 199.086 1037.99 199.086C1039.29 199.086 1040.27 199.41 1040.95 200.059C1041.62 200.699 1041.97 201.637 1041.99 202.871V209.27C1042 210.246 1042.13 211.094 1042.39 211.812V212H1040.23ZM1037.46 210.348C1037.97 210.348 1038.46 210.207 1038.92 209.926C1039.38 209.645 1039.71 209.293 1039.93 208.871V205.848H1038.75C1037.77 205.863 1036.99 206.086 1036.42 206.516C1035.85 206.938 1035.57 207.531 1035.57 208.297C1035.57 209.016 1035.71 209.539 1036 209.867C1036.29 210.188 1036.78 210.348 1037.46 210.348ZM1051.38 208.754C1051.38 208.309 1051.21 207.926 1050.87 207.605C1050.54 207.285 1049.89 206.91 1048.93 206.48C1047.81 206.02 1047.02 205.625 1046.56 205.297C1046.11 204.969 1045.77 204.598 1045.54 204.184C1045.31 203.762 1045.2 203.262 1045.2 202.684C1045.2 201.652 1045.57 200.797 1046.32 200.117C1047.08 199.43 1048.05 199.086 1049.22 199.086C1050.45 199.086 1051.45 199.445 1052.2 200.164C1052.95 200.883 1053.32 201.805 1053.32 202.93H1051.26C1051.26 202.359 1051.07 201.875 1050.68 201.477C1050.3 201.07 1049.81 200.867 1049.22 200.867C1048.61 200.867 1048.13 201.027 1047.78 201.348C1047.43 201.66 1047.26 202.082 1047.26 202.613C1047.26 203.035 1047.39 203.375 1047.64 203.633C1047.89 203.891 1048.51 204.23 1049.48 204.652C1051.02 205.254 1052.06 205.844 1052.62 206.422C1053.17 206.992 1053.45 207.719 1053.45 208.602C1053.45 209.703 1053.07 210.586 1052.31 211.25C1051.55 211.906 1050.54 212.234 1049.27 212.234C1047.95 212.234 1046.88 211.855 1046.05 211.098C1045.23 210.34 1044.82 209.379 1044.82 208.215H1046.91C1046.93 208.918 1047.15 209.469 1047.55 209.867C1047.96 210.266 1048.53 210.465 1049.27 210.465C1049.95 210.465 1050.48 210.312 1050.84 210.008C1051.2 209.695 1051.38 209.277 1051.38 208.754ZM1059.34 206.199L1058.24 207.465V212H1056.17V194H1058.24V204.77L1062.19 199.32H1064.68L1060.64 204.617L1065.2 212H1062.79L1059.34 206.199Z" fill="black"/>
<path d="M1452.81 196.789H1448.32V212H1446.18V196.789H1441.7V194.938H1452.81V196.789ZM1460.23 212C1460.11 211.727 1460.02 211.266 1459.96 210.617C1459.23 211.695 1458.29 212.234 1457.15 212.234C1456 212.234 1455.1 211.914 1454.45 211.273C1453.81 210.625 1453.49 209.715 1453.49 208.543C1453.49 207.254 1453.93 206.23 1454.8 205.473C1455.68 204.715 1456.88 204.328 1458.4 204.312H1459.93V202.965C1459.93 202.207 1459.76 201.668 1459.42 201.348C1459.09 201.027 1458.57 200.867 1457.89 200.867C1457.26 200.867 1456.75 201.055 1456.36 201.43C1455.97 201.797 1455.78 202.266 1455.78 202.836H1453.7C1453.7 202.188 1453.89 201.57 1454.28 200.984C1454.66 200.391 1455.18 199.926 1455.82 199.59C1456.47 199.254 1457.2 199.086 1457.99 199.086C1459.29 199.086 1460.27 199.41 1460.95 200.059C1461.62 200.699 1461.97 201.637 1461.99 202.871V209.27C1462 210.246 1462.13 211.094 1462.39 211.812V212H1460.23ZM1457.46 210.348C1457.97 210.348 1458.46 210.207 1458.92 209.926C1459.38 209.645 1459.71 209.293 1459.93 208.871V205.848H1458.75C1457.77 205.863 1456.99 206.086 1456.42 206.516C1455.85 206.938 1455.57 207.531 1455.57 208.297C1455.57 209.016 1455.71 209.539 1456 209.867C1456.29 210.188 1456.78 210.348 1457.46 210.348ZM1471.38 208.754C1471.38 208.309 1471.21 207.926 1470.87 207.605C1470.54 207.285 1469.89 206.91 1468.93 206.48C1467.81 206.02 1467.02 205.625 1466.56 205.297C1466.11 204.969 1465.77 204.598 1465.54 204.184C1465.31 203.762 1465.2 203.262 1465.2 202.684C1465.2 201.652 1465.57 200.797 1466.32 200.117C1467.08 199.43 1468.05 199.086 1469.22 199.086C1470.45 199.086 1471.45 199.445 1472.2 200.164C1472.95 200.883 1473.32 201.805 1473.32 202.93H1471.26C1471.26 202.359 1471.07 201.875 1470.68 201.477C1470.3 201.07 1469.81 200.867 1469.22 200.867C1468.61 200.867 1468.13 201.027 1467.78 201.348C1467.43 201.66 1467.26 202.082 1467.26 202.613C1467.26 203.035 1467.39 203.375 1467.64 203.633C1467.89 203.891 1468.51 204.23 1469.48 204.652C1471.02 205.254 1472.06 205.844 1472.62 206.422C1473.17 206.992 1473.45 207.719 1473.45 208.602C1473.45 209.703 1473.07 210.586 1472.31 211.25C1471.55 211.906 1470.54 212.234 1469.27 212.234C1467.95 212.234 1466.88 211.855 1466.05 211.098C1465.23 210.34 1464.82 209.379 1464.82 208.215H1466.91C1466.93 208.918 1467.15 209.469 1467.55 209.867C1467.96 210.266 1468.53 210.465 1469.27 210.465C1469.95 210.465 1470.48 210.312 1470.84 210.008C1471.2 209.695 1471.38 209.277 1471.38 208.754ZM1479.34 206.199L1478.24 207.465V212H1476.17V194H1478.24V204.77L1482.19 199.32H1484.68L1480.64 204.617L1485.2 212H1482.79L1479.34 206.199Z" fill="black"/>
<path d="M1200.81 196.789H1196.32V212H1194.18V196.789H1189.7V194.938H1200.81V196.789ZM1208.23 212C1208.11 211.727 1208.02 211.266 1207.96 210.617C1207.23 211.695 1206.29 212.234 1205.15 212.234C1204 212.234 1203.1 211.914 1202.45 211.273C1201.81 210.625 1201.49 209.715 1201.49 208.543C1201.49 207.254 1201.93 206.23 1202.8 205.473C1203.68 204.715 1204.88 204.328 1206.4 204.312H1207.93V202.965C1207.93 202.207 1207.76 201.668 1207.42 201.348C1207.09 201.027 1206.57 200.867 1205.89 200.867C1205.26 200.867 1204.75 201.055 1204.36 201.43C1203.97 201.797 1203.78 202.266 1203.78 202.836H1201.7C1201.7 202.188 1201.89 201.57 1202.28 200.984C1202.66 200.391 1203.18 199.926 1203.82 199.59C1204.47 199.254 1205.2 199.086 1205.99 199.086C1207.29 199.086 1208.27 199.41 1208.95 200.059C1209.62 200.699 1209.97 201.637 1209.99 202.871V209.27C1210 210.246 1210.13 211.094 1210.39 211.812V212H1208.23ZM1205.46 210.348C1205.97 210.348 1206.46 210.207 1206.92 209.926C1207.38 209.645 1207.71 209.293 1207.93 208.871V205.848H1206.75C1205.77 205.863 1204.99 206.086 1204.42 206.516C1203.85 206.938 1203.57 207.531 1203.57 208.297C1203.57 209.016 1203.71 209.539 1204 209.867C1204.29 210.188 1204.78 210.348 1205.46 210.348ZM1219.38 208.754C1219.38 208.309 1219.21 207.926 1218.87 207.605C1218.54 207.285 1217.89 206.91 1216.93 206.48C1215.81 206.02 1215.02 205.625 1214.56 205.297C1214.11 204.969 1213.77 204.598 1213.54 204.184C1213.31 203.762 1213.2 203.262 1213.2 202.684C1213.2 201.652 1213.57 200.797 1214.32 200.117C1215.08 199.43 1216.05 199.086 1217.22 199.086C1218.45 199.086 1219.45 199.445 1220.2 200.164C1220.95 200.883 1221.32 201.805 1221.32 202.93H1219.26C1219.26 202.359 1219.07 201.875 1218.68 201.477C1218.3 201.07 1217.81 200.867 1217.22 200.867C1216.61 200.867 1216.13 201.027 1215.78 201.348C1215.43 201.66 1215.26 202.082 1215.26 202.613C1215.26 203.035 1215.39 203.375 1215.64 203.633C1215.89 203.891 1216.51 204.23 1217.48 204.652C1219.02 205.254 1220.06 205.844 1220.62 206.422C1221.17 206.992 1221.45 207.719 1221.45 208.602C1221.45 209.703 1221.07 210.586 1220.31 211.25C1219.55 211.906 1218.54 212.234 1217.27 212.234C1215.95 212.234 1214.88 211.855 1214.05 211.098C1213.23 210.34 1212.82 209.379 1212.82 208.215H1214.91C1214.93 208.918 1215.15 209.469 1215.55 209.867C1215.96 210.266 1216.53 210.465 1217.27 210.465C1217.95 210.465 1218.48 210.312 1218.84 210.008C1219.2 209.695 1219.38 209.277 1219.38 208.754ZM1227.34 206.199L1226.24 207.465V212H1224.17V194H1226.24V204.77L1230.19 199.32H1232.68L1228.64 204.617L1233.2 212H1230.79L1227.34 206.199Z" fill="black"/>
<path d="M1620.81 196.789H1616.32V212H1614.18V196.789H1609.7V194.938H1620.81V196.789ZM1628.23 212C1628.11 211.727 1628.02 211.266 1627.96 210.617C1627.23 211.695 1626.29 212.234 1625.15 212.234C1624 212.234 1623.1 211.914 1622.45 211.273C1621.81 210.625 1621.49 209.715 1621.49 208.543C1621.49 207.254 1621.93 206.23 1622.8 205.473C1623.68 204.715 1624.88 204.328 1626.4 204.312H1627.93V202.965C1627.93 202.207 1627.76 201.668 1627.42 201.348C1627.09 201.027 1626.57 200.867 1625.89 200.867C1625.26 200.867 1624.75 201.055 1624.36 201.43C1623.97 201.797 1623.78 202.266 1623.78 202.836H1621.7C1621.7 202.188 1621.89 201.57 1622.28 200.984C1622.66 200.391 1623.18 199.926 1623.82 199.59C1624.47 199.254 1625.2 199.086 1625.99 199.086C1627.29 199.086 1628.27 199.41 1628.95 200.059C1629.62 200.699 1629.97 201.637 1629.99 202.871V209.27C1630 210.246 1630.13 211.094 1630.39 211.812V212H1628.23ZM1625.46 210.348C1625.97 210.348 1626.46 210.207 1626.92 209.926C1627.38 209.645 1627.71 209.293 1627.93 208.871V205.848H1626.75C1625.77 205.863 1624.99 206.086 1624.42 206.516C1623.85 206.938 1623.57 207.531 1623.57 208.297C1623.57 209.016 1623.71 209.539 1624 209.867C1624.29 210.188 1624.78 210.348 1625.46 210.348ZM1639.38 208.754C1639.38 208.309 1639.21 207.926 1638.87 207.605C1638.54 207.285 1637.89 206.91 1636.93 206.48C1635.81 206.02 1635.02 205.625 1634.56 205.297C1634.11 204.969 1633.77 204.598 1633.54 204.184C1633.31 203.762 1633.2 203.262 1633.2 202.684C1633.2 201.652 1633.57 200.797 1634.32 200.117C1635.08 199.43 1636.05 199.086 1637.22 199.086C1638.45 199.086 1639.45 199.445 1640.2 200.164C1640.95 200.883 1641.32 201.805 1641.32 202.93H1639.26C1639.26 202.359 1639.07 201.875 1638.68 201.477C1638.3 201.07 1637.81 200.867 1637.22 200.867C1636.61 200.867 1636.13 201.027 1635.78 201.348C1635.43 201.66 1635.26 202.082 1635.26 202.613C1635.26 203.035 1635.39 203.375 1635.64 203.633C1635.89 203.891 1636.51 204.23 1637.48 204.652C1639.02 205.254 1640.06 205.844 1640.62 206.422C1641.17 206.992 1641.45 207.719 1641.45 208.602C1641.45 209.703 1641.07 210.586 1640.31 211.25C1639.55 211.906 1638.54 212.234 1637.27 212.234C1635.95 212.234 1634.88 211.855 1634.05 211.098C1633.23 210.34 1632.82 209.379 1632.82 208.215H1634.91C1634.93 208.918 1635.15 209.469 1635.55 209.867C1635.96 210.266 1636.53 210.465 1637.27 210.465C1637.95 210.465 1638.48 210.312 1638.84 210.008C1639.2 209.695 1639.38 209.277 1639.38 208.754ZM1647.34 206.199L1646.24 207.465V212H1644.17V194H1646.24V204.77L1650.19 199.32H1652.68L1648.64 204.617L1653.2 212H1650.79L1647.34 206.199Z" fill="black"/>
</svg>
