<svg width="1920" height="1080" viewBox="0 0 1920 1080" fill="none" xmlns="http://www.w3.org/2000/svg">
<rect width="1920" height="1080" fill="#F2F2F2"/>
<rect x="160" y="76" width="1600" height="80" fill="#C4C4C4"/>
<rect x="628" y="164" width="160" height="80" fill="#C4C4C4"/>
<rect x="225" y="164" width="160" height="80" fill="#C4C4C4"/>
<rect x="642" y="252" width="8" height="80" fill="#04B2D9"/>
<rect x="1202" y="429" width="8" height="80" fill="#F20519"/>
<rect x="815" y="252" width="8" height="80" fill="#04B2D9"/>
<rect x="412" y="252" width="8" height="80" fill="#04B2D9"/>
<rect x="279" y="252" width="8" height="80" fill="#04B2D9"/>
<rect x="1390" y="340" width="8" height="80" fill="#F28A2E"/>
<rect x="1685" y="340" width="8" height="80" fill="#F28A2E"/>
<rect x="1202" y="340" width="26" height="80" fill="#F28A2E"/>
<rect x="964" y="164" width="107" height="80" fill="#F2CB05"/>
<rect x="305" y="252" width="8" height="80" fill="#04B2D9"/>
<rect x="872" y="252" width="8" height="80" fill="#04B2D9"/>
<rect x="469" y="252" width="8" height="80" fill="#04B2D9"/>
<rect x="734" y="252" width="8" height="80" fill="#04B2D9"/>
<rect x="1211" y="429" width="8" height="80" fill="#F20519"/>
<rect x="1220" y="429" width="8" height="80" fill="#F20519"/>
<rect x="1390" y="429" width="8" height="80" fill="#F20519"/>
<rect x="1685" y="429" width="8" height="80" fill="#F20519"/>
<rect x="765" y="252" width="8" height="80" fill="#04B2D9"/>
<rect x="362" y="252" width="8" height="80" fill="#04B2D9"/>
<rect x="929" y="252" width="8" height="80" fill="#04B2D9"/>
<rect x="526" y="252" width="8" height="80" fill="#04B2D9"/>
<rect x="796" y="164" width="160" height="80" fill="#C4C4C4"/>
<rect x="393" y="164" width="160" height="80" fill="#C4C4C4"/>
<path d="M920.02 116.113H913.984V122.16H921.016V124H911.84V106.938H920.898V108.789H913.984V114.273H920.02V116.113ZM926.77 120.848L929.172 111.32H931.281L927.52 124H925.973L922.164 111.32H924.273L926.77 120.848ZM937.809 124.234C936.23 124.234 935.02 123.766 934.176 122.828C933.332 121.883 932.902 120.5 932.887 118.68V117.145C932.887 115.254 933.297 113.773 934.117 112.703C934.945 111.625 936.098 111.086 937.574 111.086C939.059 111.086 940.168 111.559 940.902 112.504C941.637 113.449 942.012 114.922 942.027 116.922V118.281H934.949V118.574C934.949 119.934 935.203 120.922 935.711 121.539C936.227 122.156 936.965 122.465 937.926 122.465C938.535 122.465 939.07 122.352 939.531 122.125C940 121.891 940.438 121.523 940.844 121.023L941.922 122.336C941.023 123.602 939.652 124.234 937.809 124.234ZM937.574 112.867C936.715 112.867 936.078 113.164 935.664 113.758C935.25 114.344 935.016 115.258 934.961 116.5H939.953V116.219C939.898 115.016 939.68 114.156 939.297 113.641C938.922 113.125 938.348 112.867 937.574 112.867ZM946.48 111.32L946.539 112.691C947.344 111.621 948.371 111.086 949.621 111.086C951.863 111.086 953 112.582 953.031 115.574V124H950.969V115.668C950.969 114.676 950.801 113.973 950.465 113.559C950.137 113.137 949.641 112.926 948.977 112.926C948.461 112.926 947.996 113.098 947.582 113.441C947.176 113.785 946.848 114.234 946.598 114.789V124H944.523V111.32H946.48ZM958.867 108.25V111.32H960.777V112.996H958.867V120.859C958.867 121.359 958.949 121.738 959.113 121.996C959.277 122.254 959.559 122.383 959.957 122.383C960.23 122.383 960.508 122.336 960.789 122.242L960.766 124C960.297 124.156 959.816 124.234 959.324 124.234C958.504 124.234 957.879 123.941 957.449 123.355C957.02 122.77 956.805 121.941 956.805 120.871V112.996H954.871V111.32H956.805V108.25H958.867ZM965.699 122.16H972.391V124H963.543V106.938H965.699V122.16ZM974.23 117.074C974.23 115.23 974.676 113.773 975.566 112.703C976.465 111.625 977.648 111.086 979.117 111.086C980.586 111.086 981.766 111.609 982.656 112.656C983.555 113.703 984.016 115.129 984.039 116.934V118.27C984.039 120.105 983.594 121.559 982.703 122.629C981.812 123.699 980.625 124.234 979.141 124.234C977.672 124.234 976.492 123.715 975.602 122.676C974.719 121.637 974.262 120.23 974.23 118.457V117.074ZM976.305 118.27C976.305 119.574 976.559 120.602 977.066 121.352C977.582 122.094 978.273 122.465 979.141 122.465C980.969 122.465 981.91 121.145 981.965 118.504V117.074C981.965 115.777 981.707 114.754 981.191 114.004C980.676 113.246 979.984 112.867 979.117 112.867C978.266 112.867 977.582 113.246 977.066 114.004C976.559 114.754 976.305 115.773 976.305 117.062V118.27ZM986.277 117.074C986.277 115.23 986.723 113.773 987.613 112.703C988.512 111.625 989.695 111.086 991.164 111.086C992.633 111.086 993.812 111.609 994.703 112.656C995.602 113.703 996.062 115.129 996.086 116.934V118.27C996.086 120.105 995.641 121.559 994.75 122.629C993.859 123.699 992.672 124.234 991.188 124.234C989.719 124.234 988.539 123.715 987.648 122.676C986.766 121.637 986.309 120.23 986.277 118.457V117.074ZM988.352 118.27C988.352 119.574 988.605 120.602 989.113 121.352C989.629 122.094 990.32 122.465 991.188 122.465C993.016 122.465 993.957 121.145 994.012 118.504V117.074C994.012 115.777 993.754 114.754 993.238 114.004C992.723 113.246 992.031 112.867 991.164 112.867C990.312 112.867 989.629 113.246 989.113 114.004C988.605 114.754 988.352 115.773 988.352 117.062V118.27ZM1007.92 118.27C1007.92 120.277 1007.56 121.773 1006.83 122.758C1006.11 123.742 1005.09 124.234 1003.77 124.234C1002.5 124.234 1001.52 123.754 1000.83 122.793V128.875H998.77V111.32H1000.64L1000.75 112.727C1001.45 111.633 1002.44 111.086 1003.74 111.086C1005.13 111.086 1006.17 111.57 1006.86 112.539C1007.54 113.508 1007.9 114.957 1007.92 116.887V118.27ZM1005.86 117.086C1005.86 115.664 1005.64 114.617 1005.2 113.945C1004.77 113.266 1004.06 112.926 1003.09 112.926C1002.1 112.926 1001.35 113.422 1000.83 114.414V121.012C1001.34 121.98 1002.1 122.465 1003.12 122.465C1004.05 122.465 1004.74 122.129 1005.18 121.457C1005.62 120.777 1005.85 119.742 1005.86 118.352V117.086Z" fill="black"/>
<path d="M697.812 196.789H693.324V212H691.18V196.789H686.703V194.938H697.812V196.789ZM705.23 212C705.105 211.727 705.016 211.266 704.961 210.617C704.227 211.695 703.289 212.234 702.148 212.234C701 212.234 700.102 211.914 699.453 211.273C698.812 210.625 698.492 209.715 698.492 208.543C698.492 207.254 698.93 206.23 699.805 205.473C700.68 204.715 701.879 204.328 703.402 204.312H704.926V202.965C704.926 202.207 704.758 201.668 704.422 201.348C704.086 201.027 703.574 200.867 702.887 200.867C702.262 200.867 701.754 201.055 701.363 201.43C700.973 201.797 700.777 202.266 700.777 202.836H698.703C698.703 202.188 698.895 201.57 699.277 200.984C699.66 200.391 700.176 199.926 700.824 199.59C701.473 199.254 702.195 199.086 702.992 199.086C704.289 199.086 705.273 199.41 705.945 200.059C706.625 200.699 706.973 201.637 706.988 202.871V209.27C706.996 210.246 707.129 211.094 707.387 211.812V212H705.23ZM702.465 210.348C702.973 210.348 703.457 210.207 703.918 209.926C704.379 209.645 704.715 209.293 704.926 208.871V205.848H703.754C702.77 205.863 701.992 206.086 701.422 206.516C700.852 206.938 700.566 207.531 700.566 208.297C700.566 209.016 700.711 209.539 701 209.867C701.289 210.188 701.777 210.348 702.465 210.348ZM716.375 208.754C716.375 208.309 716.207 207.926 715.871 207.605C715.535 207.285 714.887 206.91 713.926 206.48C712.809 206.02 712.02 205.625 711.559 205.297C711.105 204.969 710.766 204.598 710.539 204.184C710.312 203.762 710.199 203.262 710.199 202.684C710.199 201.652 710.574 200.797 711.324 200.117C712.082 199.43 713.047 199.086 714.219 199.086C715.453 199.086 716.445 199.445 717.195 200.164C717.945 200.883 718.32 201.805 718.32 202.93H716.258C716.258 202.359 716.066 201.875 715.684 201.477C715.301 201.07 714.812 200.867 714.219 200.867C713.609 200.867 713.129 201.027 712.777 201.348C712.434 201.66 712.262 202.082 712.262 202.613C712.262 203.035 712.387 203.375 712.637 203.633C712.895 203.891 713.508 204.23 714.477 204.652C716.016 205.254 717.062 205.844 717.617 206.422C718.172 206.992 718.449 207.719 718.449 208.602C718.449 209.703 718.07 210.586 717.312 211.25C716.555 211.906 715.539 212.234 714.266 212.234C712.945 212.234 711.875 211.855 711.055 211.098C710.234 210.34 709.824 209.379 709.824 208.215H711.91C711.934 208.918 712.148 209.469 712.555 209.867C712.961 210.266 713.531 210.465 714.266 210.465C714.953 210.465 715.477 210.312 715.836 210.008C716.195 209.695 716.375 209.277 716.375 208.754ZM724.344 206.199L723.242 207.465V212H721.168V194H723.242V204.77L727.191 199.32H729.676L725.645 204.617L730.203 212H727.789L724.344 206.199Z" fill="black"/>
<path d="M294.812 196.789H290.324V212H288.18V196.789H283.703V194.938H294.812V196.789ZM302.23 212C302.105 211.727 302.016 211.266 301.961 210.617C301.227 211.695 300.289 212.234 299.148 212.234C298 212.234 297.102 211.914 296.453 211.273C295.812 210.625 295.492 209.715 295.492 208.543C295.492 207.254 295.93 206.23 296.805 205.473C297.68 204.715 298.879 204.328 300.402 204.312H301.926V202.965C301.926 202.207 301.758 201.668 301.422 201.348C301.086 201.027 300.574 200.867 299.887 200.867C299.262 200.867 298.754 201.055 298.363 201.43C297.973 201.797 297.777 202.266 297.777 202.836H295.703C295.703 202.188 295.895 201.57 296.277 200.984C296.66 200.391 297.176 199.926 297.824 199.59C298.473 199.254 299.195 199.086 299.992 199.086C301.289 199.086 302.273 199.41 302.945 200.059C303.625 200.699 303.973 201.637 303.988 202.871V209.27C303.996 210.246 304.129 211.094 304.387 211.812V212H302.23ZM299.465 210.348C299.973 210.348 300.457 210.207 300.918 209.926C301.379 209.645 301.715 209.293 301.926 208.871V205.848H300.754C299.77 205.863 298.992 206.086 298.422 206.516C297.852 206.938 297.566 207.531 297.566 208.297C297.566 209.016 297.711 209.539 298 209.867C298.289 210.188 298.777 210.348 299.465 210.348ZM313.375 208.754C313.375 208.309 313.207 207.926 312.871 207.605C312.535 207.285 311.887 206.91 310.926 206.48C309.809 206.02 309.02 205.625 308.559 205.297C308.105 204.969 307.766 204.598 307.539 204.184C307.312 203.762 307.199 203.262 307.199 202.684C307.199 201.652 307.574 200.797 308.324 200.117C309.082 199.43 310.047 199.086 311.219 199.086C312.453 199.086 313.445 199.445 314.195 200.164C314.945 200.883 315.32 201.805 315.32 202.93H313.258C313.258 202.359 313.066 201.875 312.684 201.477C312.301 201.07 311.812 200.867 311.219 200.867C310.609 200.867 310.129 201.027 309.777 201.348C309.434 201.66 309.262 202.082 309.262 202.613C309.262 203.035 309.387 203.375 309.637 203.633C309.895 203.891 310.508 204.23 311.477 204.652C313.016 205.254 314.062 205.844 314.617 206.422C315.172 206.992 315.449 207.719 315.449 208.602C315.449 209.703 315.07 210.586 314.312 211.25C313.555 211.906 312.539 212.234 311.266 212.234C309.945 212.234 308.875 211.855 308.055 211.098C307.234 210.34 306.824 209.379 306.824 208.215H308.91C308.934 208.918 309.148 209.469 309.555 209.867C309.961 210.266 310.531 210.465 311.266 210.465C311.953 210.465 312.477 210.312 312.836 210.008C313.195 209.695 313.375 209.277 313.375 208.754ZM321.344 206.199L320.242 207.465V212H318.168V194H320.242V204.77L324.191 199.32H326.676L322.645 204.617L327.203 212H324.789L321.344 206.199Z" fill="black"/>
<path d="M865.812 196.789H861.324V212H859.18V196.789H854.703V194.938H865.812V196.789ZM873.23 212C873.105 211.727 873.016 211.266 872.961 210.617C872.227 211.695 871.289 212.234 870.148 212.234C869 212.234 868.102 211.914 867.453 211.273C866.812 210.625 866.492 209.715 866.492 208.543C866.492 207.254 866.93 206.23 867.805 205.473C868.68 204.715 869.879 204.328 871.402 204.312H872.926V202.965C872.926 202.207 872.758 201.668 872.422 201.348C872.086 201.027 871.574 200.867 870.887 200.867C870.262 200.867 869.754 201.055 869.363 201.43C868.973 201.797 868.777 202.266 868.777 202.836H866.703C866.703 202.188 866.895 201.57 867.277 200.984C867.66 200.391 868.176 199.926 868.824 199.59C869.473 199.254 870.195 199.086 870.992 199.086C872.289 199.086 873.273 199.41 873.945 200.059C874.625 200.699 874.973 201.637 874.988 202.871V209.27C874.996 210.246 875.129 211.094 875.387 211.812V212H873.23ZM870.465 210.348C870.973 210.348 871.457 210.207 871.918 209.926C872.379 209.645 872.715 209.293 872.926 208.871V205.848H871.754C870.77 205.863 869.992 206.086 869.422 206.516C868.852 206.938 868.566 207.531 868.566 208.297C868.566 209.016 868.711 209.539 869 209.867C869.289 210.188 869.777 210.348 870.465 210.348ZM884.375 208.754C884.375 208.309 884.207 207.926 883.871 207.605C883.535 207.285 882.887 206.91 881.926 206.48C880.809 206.02 880.02 205.625 879.559 205.297C879.105 204.969 878.766 204.598 878.539 204.184C878.312 203.762 878.199 203.262 878.199 202.684C878.199 201.652 878.574 200.797 879.324 200.117C880.082 199.43 881.047 199.086 882.219 199.086C883.453 199.086 884.445 199.445 885.195 200.164C885.945 200.883 886.32 201.805 886.32 202.93H884.258C884.258 202.359 884.066 201.875 883.684 201.477C883.301 201.07 882.812 200.867 882.219 200.867C881.609 200.867 881.129 201.027 880.777 201.348C880.434 201.66 880.262 202.082 880.262 202.613C880.262 203.035 880.387 203.375 880.637 203.633C880.895 203.891 881.508 204.23 882.477 204.652C884.016 205.254 885.062 205.844 885.617 206.422C886.172 206.992 886.449 207.719 886.449 208.602C886.449 209.703 886.07 210.586 885.312 211.25C884.555 211.906 883.539 212.234 882.266 212.234C880.945 212.234 879.875 211.855 879.055 211.098C878.234 210.34 877.824 209.379 877.824 208.215H879.91C879.934 208.918 880.148 209.469 880.555 209.867C880.961 210.266 881.531 210.465 882.266 210.465C882.953 210.465 883.477 210.312 883.836 210.008C884.195 209.695 884.375 209.277 884.375 208.754ZM892.344 206.199L891.242 207.465V212H889.168V194H891.242V204.77L895.191 199.32H897.676L893.645 204.617L898.203 212H895.789L892.344 206.199Z" fill="black"/>
<path d="M462.812 196.789H458.324V212H456.18V196.789H451.703V194.938H462.812V196.789ZM470.23 212C470.105 211.727 470.016 211.266 469.961 210.617C469.227 211.695 468.289 212.234 467.148 212.234C466 212.234 465.102 211.914 464.453 211.273C463.812 210.625 463.492 209.715 463.492 208.543C463.492 207.254 463.93 206.23 464.805 205.473C465.68 204.715 466.879 204.328 468.402 204.312H469.926V202.965C469.926 202.207 469.758 201.668 469.422 201.348C469.086 201.027 468.574 200.867 467.887 200.867C467.262 200.867 466.754 201.055 466.363 201.43C465.973 201.797 465.777 202.266 465.777 202.836H463.703C463.703 202.188 463.895 201.57 464.277 200.984C464.66 200.391 465.176 199.926 465.824 199.59C466.473 199.254 467.195 199.086 467.992 199.086C469.289 199.086 470.273 199.41 470.945 200.059C471.625 200.699 471.973 201.637 471.988 202.871V209.27C471.996 210.246 472.129 211.094 472.387 211.812V212H470.23ZM467.465 210.348C467.973 210.348 468.457 210.207 468.918 209.926C469.379 209.645 469.715 209.293 469.926 208.871V205.848H468.754C467.77 205.863 466.992 206.086 466.422 206.516C465.852 206.938 465.566 207.531 465.566 208.297C465.566 209.016 465.711 209.539 466 209.867C466.289 210.188 466.777 210.348 467.465 210.348ZM481.375 208.754C481.375 208.309 481.207 207.926 480.871 207.605C480.535 207.285 479.887 206.91 478.926 206.48C477.809 206.02 477.02 205.625 476.559 205.297C476.105 204.969 475.766 204.598 475.539 204.184C475.312 203.762 475.199 203.262 475.199 202.684C475.199 201.652 475.574 200.797 476.324 200.117C477.082 199.43 478.047 199.086 479.219 199.086C480.453 199.086 481.445 199.445 482.195 200.164C482.945 200.883 483.32 201.805 483.32 202.93H481.258C481.258 202.359 481.066 201.875 480.684 201.477C480.301 201.07 479.812 200.867 479.219 200.867C478.609 200.867 478.129 201.027 477.777 201.348C477.434 201.66 477.262 202.082 477.262 202.613C477.262 203.035 477.387 203.375 477.637 203.633C477.895 203.891 478.508 204.23 479.477 204.652C481.016 205.254 482.062 205.844 482.617 206.422C483.172 206.992 483.449 207.719 483.449 208.602C483.449 209.703 483.07 210.586 482.312 211.25C481.555 211.906 480.539 212.234 479.266 212.234C477.945 212.234 476.875 211.855 476.055 211.098C475.234 210.34 474.824 209.379 474.824 208.215H476.91C476.934 208.918 477.148 209.469 477.555 209.867C477.961 210.266 478.531 210.465 479.266 210.465C479.953 210.465 480.477 210.312 480.836 210.008C481.195 209.695 481.375 209.277 481.375 208.754ZM489.344 206.199L488.242 207.465V212H486.168V194H488.242V204.77L492.191 199.32H494.676L490.645 204.617L495.203 212H492.789L489.344 206.199Z" fill="black"/>
<path d="M998.605 194.938L1003.06 208.859L1007.51 194.938H1010.28V212H1008.13V205.355L1008.33 198.699L1003.87 212H1002.23L997.785 198.746L997.984 205.355V212H995.84V194.938H998.605ZM1020.21 212C1020.09 211.727 1020 211.266 1019.95 210.617C1019.21 211.695 1018.27 212.234 1017.13 212.234C1015.98 212.234 1015.09 211.914 1014.44 211.273C1013.8 210.625 1013.48 209.715 1013.48 208.543C1013.48 207.254 1013.91 206.23 1014.79 205.473C1015.66 204.715 1016.86 204.328 1018.39 204.312H1019.91V202.965C1019.91 202.207 1019.74 201.668 1019.41 201.348C1019.07 201.027 1018.56 200.867 1017.87 200.867C1017.25 200.867 1016.74 201.055 1016.35 201.43C1015.96 201.797 1015.76 202.266 1015.76 202.836H1013.69C1013.69 202.188 1013.88 201.57 1014.26 200.984C1014.64 200.391 1015.16 199.926 1015.81 199.59C1016.46 199.254 1017.18 199.086 1017.98 199.086C1019.27 199.086 1020.26 199.41 1020.93 200.059C1021.61 200.699 1021.96 201.637 1021.97 202.871V209.27C1021.98 210.246 1022.11 211.094 1022.37 211.812V212H1020.21ZM1017.45 210.348C1017.96 210.348 1018.44 210.207 1018.9 209.926C1019.36 209.645 1019.7 209.293 1019.91 208.871V205.848H1018.74C1017.75 205.863 1016.98 206.086 1016.41 206.516C1015.84 206.938 1015.55 207.531 1015.55 208.297C1015.55 209.016 1015.7 209.539 1015.98 209.867C1016.27 210.188 1016.76 210.348 1017.45 210.348ZM1030.43 201.266C1030.14 201.211 1029.83 201.184 1029.5 201.184C1028.43 201.184 1027.69 201.766 1027.27 202.93V212H1025.2V199.32H1027.21L1027.25 200.609C1027.8 199.594 1028.59 199.086 1029.6 199.086C1029.93 199.086 1030.2 199.141 1030.42 199.25L1030.43 201.266ZM1035.7 206.199L1034.59 207.465V212H1032.52V194H1034.59V204.77L1038.54 199.32H1041.03L1037 204.617L1041.55 212H1039.14L1035.7 206.199Z" fill="black"/>
<path d="M1046 386.16H1052.69V388H1043.84V370.938H1046V386.16ZM1061.49 388C1061.36 387.727 1061.27 387.266 1061.22 386.617C1060.48 387.695 1059.55 388.234 1058.41 388.234C1057.26 388.234 1056.36 387.914 1055.71 387.273C1055.07 386.625 1054.75 385.715 1054.75 384.543C1054.75 383.254 1055.19 382.23 1056.06 381.473C1056.94 380.715 1058.14 380.328 1059.66 380.312H1061.18V378.965C1061.18 378.207 1061.02 377.668 1060.68 377.348C1060.34 377.027 1059.83 376.867 1059.14 376.867C1058.52 376.867 1058.01 377.055 1057.62 377.43C1057.23 377.797 1057.04 378.266 1057.04 378.836H1054.96C1054.96 378.188 1055.15 377.57 1055.54 376.984C1055.92 376.391 1056.43 375.926 1057.08 375.59C1057.73 375.254 1058.45 375.086 1059.25 375.086C1060.55 375.086 1061.53 375.41 1062.2 376.059C1062.88 376.699 1063.23 377.637 1063.25 378.871V385.27C1063.25 386.246 1063.39 387.094 1063.64 387.812V388H1061.49ZM1058.72 386.348C1059.23 386.348 1059.71 386.207 1060.18 385.926C1060.64 385.645 1060.97 385.293 1061.18 384.871V381.848H1060.01C1059.03 381.863 1058.25 382.086 1057.68 382.516C1057.11 382.938 1056.82 383.531 1056.82 384.297C1056.82 385.016 1056.97 385.539 1057.26 385.867C1057.55 386.188 1058.04 386.348 1058.72 386.348ZM1068.39 386.23H1074.51V388H1066.02V386.406L1071.84 377.113H1066.07V375.32H1074.27V376.855L1068.39 386.23ZM1080.48 384.555L1082.79 375.32H1085L1080.85 389.793C1080.54 390.879 1080.09 391.703 1079.52 392.266C1078.95 392.836 1078.3 393.121 1077.58 393.121C1077.3 393.121 1076.94 393.059 1076.5 392.934V391.176L1076.96 391.223C1077.56 391.223 1078.03 391.078 1078.36 390.789C1078.71 390.508 1078.98 390.016 1079.2 389.312L1079.61 387.895L1075.88 375.32H1078.14L1080.48 384.555ZM1100.28 383.688C1100.28 382.836 1100.05 382.184 1099.59 381.73C1099.12 381.277 1098.29 380.836 1097.09 380.406C1095.89 379.977 1094.96 379.527 1094.32 379.059C1093.69 378.582 1093.21 378.043 1092.89 377.441C1092.58 376.832 1092.43 376.137 1092.43 375.355C1092.43 374.004 1092.88 372.891 1093.77 372.016C1094.68 371.141 1095.86 370.703 1097.32 370.703C1098.32 370.703 1099.21 370.93 1100 371.383C1100.78 371.828 1101.38 372.449 1101.8 373.246C1102.22 374.043 1102.43 374.918 1102.43 375.871H1100.28C1100.28 374.816 1100.02 374 1099.52 373.422C1099.01 372.844 1098.28 372.555 1097.32 372.555C1096.46 372.555 1095.79 372.797 1095.31 373.281C1094.83 373.766 1094.59 374.445 1094.59 375.32C1094.59 376.039 1094.85 376.641 1095.37 377.125C1095.88 377.609 1096.68 378.043 1097.76 378.426C1099.44 378.98 1100.64 379.664 1101.36 380.477C1102.08 381.289 1102.45 382.352 1102.45 383.664C1102.45 385.047 1102 386.156 1101.1 386.992C1100.2 387.82 1098.98 388.234 1097.43 388.234C1096.44 388.234 1095.52 388.02 1094.68 387.59C1093.84 387.152 1093.18 386.543 1092.7 385.762C1092.22 384.973 1091.98 384.07 1091.98 383.055H1094.14C1094.14 384.109 1094.43 384.93 1095.02 385.516C1095.61 386.102 1096.41 386.395 1097.43 386.395C1098.38 386.395 1099.09 386.152 1099.56 385.668C1100.04 385.184 1100.28 384.523 1100.28 383.688ZM1114.43 384.355L1116.36 375.32H1118.41L1115.3 388H1113.65L1111.18 378.93L1108.76 388H1107.1L1104.02 375.32H1106.05L1108.02 384.133L1110.38 375.32H1112.02L1114.43 384.355ZM1125.12 388.234C1123.54 388.234 1122.33 387.766 1121.49 386.828C1120.64 385.883 1120.21 384.5 1120.2 382.68V381.145C1120.2 379.254 1120.61 377.773 1121.43 376.703C1122.26 375.625 1123.41 375.086 1124.89 375.086C1126.37 375.086 1127.48 375.559 1128.21 376.504C1128.95 377.449 1129.32 378.922 1129.34 380.922V382.281H1122.26V382.574C1122.26 383.934 1122.52 384.922 1123.02 385.539C1123.54 386.156 1124.28 386.465 1125.24 386.465C1125.85 386.465 1126.38 386.352 1126.84 386.125C1127.31 385.891 1127.75 385.523 1128.16 385.023L1129.23 386.336C1128.34 387.602 1126.96 388.234 1125.12 388.234ZM1124.89 376.867C1124.03 376.867 1123.39 377.164 1122.98 377.758C1122.56 378.344 1122.33 379.258 1122.27 380.5H1127.27V380.219C1127.21 379.016 1126.99 378.156 1126.61 377.641C1126.23 377.125 1125.66 376.867 1124.89 376.867ZM1136.37 388.234C1134.79 388.234 1133.58 387.766 1132.74 386.828C1131.89 385.883 1131.46 384.5 1131.45 382.68V381.145C1131.45 379.254 1131.86 377.773 1132.68 376.703C1133.51 375.625 1134.66 375.086 1136.14 375.086C1137.62 375.086 1138.73 375.559 1139.46 376.504C1140.2 377.449 1140.57 378.922 1140.59 380.922V382.281H1133.51V382.574C1133.51 383.934 1133.77 384.922 1134.27 385.539C1134.79 386.156 1135.53 386.465 1136.49 386.465C1137.1 386.465 1137.63 386.352 1138.09 386.125C1138.56 385.891 1139 385.523 1139.41 385.023L1140.48 386.336C1139.59 387.602 1138.21 388.234 1136.37 388.234ZM1136.14 376.867C1135.28 376.867 1134.64 377.164 1134.23 377.758C1133.81 378.344 1133.58 379.258 1133.52 380.5H1138.52V380.219C1138.46 379.016 1138.24 378.156 1137.86 377.641C1137.48 377.125 1136.91 376.867 1136.14 376.867ZM1152.25 382.27C1152.25 384.277 1151.89 385.773 1151.16 386.758C1150.44 387.742 1149.42 388.234 1148.1 388.234C1146.83 388.234 1145.85 387.754 1145.16 386.793V392.875H1143.1V375.32H1144.97L1145.08 376.727C1145.77 375.633 1146.77 375.086 1148.07 375.086C1149.46 375.086 1150.5 375.57 1151.18 376.539C1151.87 377.508 1152.23 378.957 1152.25 380.887V382.27ZM1150.19 381.086C1150.19 379.664 1149.97 378.617 1149.53 377.945C1149.09 377.266 1148.39 376.926 1147.42 376.926C1146.43 376.926 1145.68 377.422 1145.16 378.414V385.012C1145.67 385.98 1146.43 386.465 1147.45 386.465C1148.38 386.465 1149.07 386.129 1149.51 385.457C1149.95 384.777 1150.18 383.742 1150.19 382.352V381.086ZM1157.16 388H1155.09V375.32H1157.16V388ZM1157.32 371.957C1157.32 372.309 1157.23 372.602 1157.03 372.836C1156.84 373.07 1156.54 373.188 1156.14 373.188C1155.75 373.188 1155.46 373.07 1155.26 372.836C1155.07 372.602 1154.97 372.309 1154.97 371.957C1154.97 371.605 1155.07 371.309 1155.26 371.066C1155.46 370.824 1155.75 370.703 1156.14 370.703C1156.53 370.703 1156.82 370.828 1157.02 371.078C1157.22 371.32 1157.32 371.613 1157.32 371.957ZM1162.39 375.32L1162.45 376.691C1163.25 375.621 1164.28 375.086 1165.53 375.086C1167.77 375.086 1168.91 376.582 1168.94 379.574V388H1166.88V379.668C1166.88 378.676 1166.71 377.973 1166.37 377.559C1166.04 377.137 1165.55 376.926 1164.88 376.926C1164.37 376.926 1163.9 377.098 1163.49 377.441C1163.08 377.785 1162.75 378.234 1162.5 378.789V388H1160.43V375.32H1162.39ZM1171.64 381.086C1171.64 379.109 1172 377.617 1172.72 376.609C1173.44 375.594 1174.49 375.086 1175.88 375.086C1177.16 375.086 1178.14 375.637 1178.82 376.738L1178.92 375.32H1180.8V388.117C1180.8 389.688 1180.39 390.891 1179.59 391.727C1178.79 392.57 1177.66 392.992 1176.23 392.992C1175.6 392.992 1174.9 392.836 1174.12 392.523C1173.34 392.219 1172.76 391.84 1172.37 391.387L1173.21 389.957C1174.07 390.801 1175.02 391.223 1176.06 391.223C1177.79 391.223 1178.68 390.281 1178.72 388.398V386.746C1178.05 387.738 1177.1 388.234 1175.86 388.234C1174.55 388.234 1173.53 387.742 1172.79 386.758C1172.06 385.766 1171.68 384.344 1171.64 382.492V381.086ZM1173.72 382.27C1173.72 383.691 1173.93 384.738 1174.34 385.41C1174.76 386.074 1175.45 386.406 1176.4 386.406C1177.43 386.406 1178.21 385.879 1178.72 384.824V378.484C1178.18 377.445 1177.42 376.926 1176.43 376.926C1175.47 376.926 1174.79 377.262 1174.36 377.934C1173.94 378.598 1173.73 379.621 1173.72 381.004V382.27Z" fill="black"/>
<rect x="1094" y="252" width="8" height="80" fill="#04B2D9"/>
<rect x="1266" y="252" width="8" height="80" fill="#04B2D9"/>
<rect x="1135" y="252" width="8" height="80" fill="#04B2D9"/>
<rect x="1545" y="252" width="8" height="80" fill="#04B2D9"/>
<rect x="1297" y="252" width="8" height="80" fill="#04B2D9"/>
<rect x="1151" y="252" width="8" height="80" fill="#04B2D9"/>
<rect x="1743" y="252" width="8" height="80" fill="#04B2D9"/>
<rect x="1349" y="252" width="8" height="80" fill="#04B2D9"/>
<rect x="1769" y="252" width="8" height="80" fill="#04B2D9"/>
<rect x="1201" y="252" width="35" height="80" fill="#04B2D9"/>
<rect x="1390" y="252" width="16" height="80" fill="#04B2D9"/>
<rect x="1685" y="252" width="16" height="80" fill="#04B2D9"/>
<rect x="1800" y="252" width="8" height="80" fill="#04B2D9"/>
<rect x="1079" y="164" width="160" height="80" fill="#C4C4C4"/>
<rect x="1499" y="164" width="160" height="80" fill="#C4C4C4"/>
<rect x="1247" y="164" width="160" height="80" fill="#C4C4C4"/>
<rect x="1667" y="164" width="160" height="80" fill="#C4C4C4"/>
<path d="M1147.81 196.789H1143.32V212H1141.18V196.789H1136.7V194.938H1147.81V196.789ZM1155.23 212C1155.11 211.727 1155.02 211.266 1154.96 210.617C1154.23 211.695 1153.29 212.234 1152.15 212.234C1151 212.234 1150.1 211.914 1149.45 211.273C1148.81 210.625 1148.49 209.715 1148.49 208.543C1148.49 207.254 1148.93 206.23 1149.8 205.473C1150.68 204.715 1151.88 204.328 1153.4 204.312H1154.93V202.965C1154.93 202.207 1154.76 201.668 1154.42 201.348C1154.09 201.027 1153.57 200.867 1152.89 200.867C1152.26 200.867 1151.75 201.055 1151.36 201.43C1150.97 201.797 1150.78 202.266 1150.78 202.836H1148.7C1148.7 202.188 1148.89 201.57 1149.28 200.984C1149.66 200.391 1150.18 199.926 1150.82 199.59C1151.47 199.254 1152.2 199.086 1152.99 199.086C1154.29 199.086 1155.27 199.41 1155.95 200.059C1156.62 200.699 1156.97 201.637 1156.99 202.871V209.27C1157 210.246 1157.13 211.094 1157.39 211.812V212H1155.23ZM1152.46 210.348C1152.97 210.348 1153.46 210.207 1153.92 209.926C1154.38 209.645 1154.71 209.293 1154.93 208.871V205.848H1153.75C1152.77 205.863 1151.99 206.086 1151.42 206.516C1150.85 206.938 1150.57 207.531 1150.57 208.297C1150.57 209.016 1150.71 209.539 1151 209.867C1151.29 210.188 1151.78 210.348 1152.46 210.348ZM1166.38 208.754C1166.38 208.309 1166.21 207.926 1165.87 207.605C1165.54 207.285 1164.89 206.91 1163.93 206.48C1162.81 206.02 1162.02 205.625 1161.56 205.297C1161.11 204.969 1160.77 204.598 1160.54 204.184C1160.31 203.762 1160.2 203.262 1160.2 202.684C1160.2 201.652 1160.57 200.797 1161.32 200.117C1162.08 199.43 1163.05 199.086 1164.22 199.086C1165.45 199.086 1166.45 199.445 1167.2 200.164C1167.95 200.883 1168.32 201.805 1168.32 202.93H1166.26C1166.26 202.359 1166.07 201.875 1165.68 201.477C1165.3 201.07 1164.81 200.867 1164.22 200.867C1163.61 200.867 1163.13 201.027 1162.78 201.348C1162.43 201.66 1162.26 202.082 1162.26 202.613C1162.26 203.035 1162.39 203.375 1162.64 203.633C1162.89 203.891 1163.51 204.23 1164.48 204.652C1166.02 205.254 1167.06 205.844 1167.62 206.422C1168.17 206.992 1168.45 207.719 1168.45 208.602C1168.45 209.703 1168.07 210.586 1167.31 211.25C1166.55 211.906 1165.54 212.234 1164.27 212.234C1162.95 212.234 1161.88 211.855 1161.05 211.098C1160.23 210.34 1159.82 209.379 1159.82 208.215H1161.91C1161.93 208.918 1162.15 209.469 1162.55 209.867C1162.96 210.266 1163.53 210.465 1164.27 210.465C1164.95 210.465 1165.48 210.312 1165.84 210.008C1166.2 209.695 1166.38 209.277 1166.38 208.754ZM1174.34 206.199L1173.24 207.465V212H1171.17V194H1173.24V204.77L1177.19 199.32H1179.68L1175.64 204.617L1180.2 212H1177.79L1174.34 206.199Z" fill="black"/>
<path d="M1567.81 196.789H1563.32V212H1561.18V196.789H1556.7V194.938H1567.81V196.789ZM1575.23 212C1575.11 211.727 1575.02 211.266 1574.96 210.617C1574.23 211.695 1573.29 212.234 1572.15 212.234C1571 212.234 1570.1 211.914 1569.45 211.273C1568.81 210.625 1568.49 209.715 1568.49 208.543C1568.49 207.254 1568.93 206.23 1569.8 205.473C1570.68 204.715 1571.88 204.328 1573.4 204.312H1574.93V202.965C1574.93 202.207 1574.76 201.668 1574.42 201.348C1574.09 201.027 1573.57 200.867 1572.89 200.867C1572.26 200.867 1571.75 201.055 1571.36 201.43C1570.97 201.797 1570.78 202.266 1570.78 202.836H1568.7C1568.7 202.188 1568.89 201.57 1569.28 200.984C1569.66 200.391 1570.18 199.926 1570.82 199.59C1571.47 199.254 1572.2 199.086 1572.99 199.086C1574.29 199.086 1575.27 199.41 1575.95 200.059C1576.62 200.699 1576.97 201.637 1576.99 202.871V209.27C1577 210.246 1577.13 211.094 1577.39 211.812V212H1575.23ZM1572.46 210.348C1572.97 210.348 1573.46 210.207 1573.92 209.926C1574.38 209.645 1574.71 209.293 1574.93 208.871V205.848H1573.75C1572.77 205.863 1571.99 206.086 1571.42 206.516C1570.85 206.938 1570.57 207.531 1570.57 208.297C1570.57 209.016 1570.71 209.539 1571 209.867C1571.29 210.188 1571.78 210.348 1572.46 210.348ZM1586.38 208.754C1586.38 208.309 1586.21 207.926 1585.87 207.605C1585.54 207.285 1584.89 206.91 1583.93 206.48C1582.81 206.02 1582.02 205.625 1581.56 205.297C1581.11 204.969 1580.77 204.598 1580.54 204.184C1580.31 203.762 1580.2 203.262 1580.2 202.684C1580.2 201.652 1580.57 200.797 1581.32 200.117C1582.08 199.43 1583.05 199.086 1584.22 199.086C1585.45 199.086 1586.45 199.445 1587.2 200.164C1587.95 200.883 1588.32 201.805 1588.32 202.93H1586.26C1586.26 202.359 1586.07 201.875 1585.68 201.477C1585.3 201.07 1584.81 200.867 1584.22 200.867C1583.61 200.867 1583.13 201.027 1582.78 201.348C1582.43 201.66 1582.26 202.082 1582.26 202.613C1582.26 203.035 1582.39 203.375 1582.64 203.633C1582.89 203.891 1583.51 204.23 1584.48 204.652C1586.02 205.254 1587.06 205.844 1587.62 206.422C1588.17 206.992 1588.45 207.719 1588.45 208.602C1588.45 209.703 1588.07 210.586 1587.31 211.25C1586.55 211.906 1585.54 212.234 1584.27 212.234C1582.95 212.234 1581.88 211.855 1581.05 211.098C1580.23 210.34 1579.82 209.379 1579.82 208.215H1581.91C1581.93 208.918 1582.15 209.469 1582.55 209.867C1582.96 210.266 1583.53 210.465 1584.27 210.465C1584.95 210.465 1585.48 210.312 1585.84 210.008C1586.2 209.695 1586.38 209.277 1586.38 208.754ZM1594.34 206.199L1593.24 207.465V212H1591.17V194H1593.24V204.77L1597.19 199.32H1599.68L1595.64 204.617L1600.2 212H1597.79L1594.34 206.199Z" fill="black"/>
<path d="M1315.81 196.789H1311.32V212H1309.18V196.789H1304.7V194.938H1315.81V196.789ZM1323.23 212C1323.11 211.727 1323.02 211.266 1322.96 210.617C1322.23 211.695 1321.29 212.234 1320.15 212.234C1319 212.234 1318.1 211.914 1317.45 211.273C1316.81 210.625 1316.49 209.715 1316.49 208.543C1316.49 207.254 1316.93 206.23 1317.8 205.473C1318.68 204.715 1319.88 204.328 1321.4 204.312H1322.93V202.965C1322.93 202.207 1322.76 201.668 1322.42 201.348C1322.09 201.027 1321.57 200.867 1320.89 200.867C1320.26 200.867 1319.75 201.055 1319.36 201.43C1318.97 201.797 1318.78 202.266 1318.78 202.836H1316.7C1316.7 202.188 1316.89 201.57 1317.28 200.984C1317.66 200.391 1318.18 199.926 1318.82 199.59C1319.47 199.254 1320.2 199.086 1320.99 199.086C1322.29 199.086 1323.27 199.41 1323.95 200.059C1324.62 200.699 1324.97 201.637 1324.99 202.871V209.27C1325 210.246 1325.13 211.094 1325.39 211.812V212H1323.23ZM1320.46 210.348C1320.97 210.348 1321.46 210.207 1321.92 209.926C1322.38 209.645 1322.71 209.293 1322.93 208.871V205.848H1321.75C1320.77 205.863 1319.99 206.086 1319.42 206.516C1318.85 206.938 1318.57 207.531 1318.57 208.297C1318.57 209.016 1318.71 209.539 1319 209.867C1319.29 210.188 1319.78 210.348 1320.46 210.348ZM1334.38 208.754C1334.38 208.309 1334.21 207.926 1333.87 207.605C1333.54 207.285 1332.89 206.91 1331.93 206.48C1330.81 206.02 1330.02 205.625 1329.56 205.297C1329.11 204.969 1328.77 204.598 1328.54 204.184C1328.31 203.762 1328.2 203.262 1328.2 202.684C1328.2 201.652 1328.57 200.797 1329.32 200.117C1330.08 199.43 1331.05 199.086 1332.22 199.086C1333.45 199.086 1334.45 199.445 1335.2 200.164C1335.95 200.883 1336.32 201.805 1336.32 202.93H1334.26C1334.26 202.359 1334.07 201.875 1333.68 201.477C1333.3 201.07 1332.81 200.867 1332.22 200.867C1331.61 200.867 1331.13 201.027 1330.78 201.348C1330.43 201.66 1330.26 202.082 1330.26 202.613C1330.26 203.035 1330.39 203.375 1330.64 203.633C1330.89 203.891 1331.51 204.23 1332.48 204.652C1334.02 205.254 1335.06 205.844 1335.62 206.422C1336.17 206.992 1336.45 207.719 1336.45 208.602C1336.45 209.703 1336.07 210.586 1335.31 211.25C1334.55 211.906 1333.54 212.234 1332.27 212.234C1330.95 212.234 1329.88 211.855 1329.05 211.098C1328.23 210.34 1327.82 209.379 1327.82 208.215H1329.91C1329.93 208.918 1330.15 209.469 1330.55 209.867C1330.96 210.266 1331.53 210.465 1332.27 210.465C1332.95 210.465 1333.48 210.312 1333.84 210.008C1334.2 209.695 1334.38 209.277 1334.38 208.754ZM1342.34 206.199L1341.24 207.465V212H1339.17V194H1341.24V204.77L1345.19 199.32H1347.68L1343.64 204.617L1348.2 212H1345.79L1342.34 206.199Z" fill="black"/>
<path d="M1735.81 196.789H1731.32V212H1729.18V196.789H1724.7V194.938H1735.81V196.789ZM1743.23 212C1743.11 211.727 1743.02 211.266 1742.96 210.617C1742.23 211.695 1741.29 212.234 1740.15 212.234C1739 212.234 1738.1 211.914 1737.45 211.273C1736.81 210.625 1736.49 209.715 1736.49 208.543C1736.49 207.254 1736.93 206.23 1737.8 205.473C1738.68 204.715 1739.88 204.328 1741.4 204.312H1742.93V202.965C1742.93 202.207 1742.76 201.668 1742.42 201.348C1742.09 201.027 1741.57 200.867 1740.89 200.867C1740.26 200.867 1739.75 201.055 1739.36 201.43C1738.97 201.797 1738.78 202.266 1738.78 202.836H1736.7C1736.7 202.188 1736.89 201.57 1737.28 200.984C1737.66 200.391 1738.18 199.926 1738.82 199.59C1739.47 199.254 1740.2 199.086 1740.99 199.086C1742.29 199.086 1743.27 199.41 1743.95 200.059C1744.62 200.699 1744.97 201.637 1744.99 202.871V209.27C1745 210.246 1745.13 211.094 1745.39 211.812V212H1743.23ZM1740.46 210.348C1740.97 210.348 1741.46 210.207 1741.92 209.926C1742.38 209.645 1742.71 209.293 1742.93 208.871V205.848H1741.75C1740.77 205.863 1739.99 206.086 1739.42 206.516C1738.85 206.938 1738.57 207.531 1738.57 208.297C1738.57 209.016 1738.71 209.539 1739 209.867C1739.29 210.188 1739.78 210.348 1740.46 210.348ZM1754.38 208.754C1754.38 208.309 1754.21 207.926 1753.87 207.605C1753.54 207.285 1752.89 206.91 1751.93 206.48C1750.81 206.02 1750.02 205.625 1749.56 205.297C1749.11 204.969 1748.77 204.598 1748.54 204.184C1748.31 203.762 1748.2 203.262 1748.2 202.684C1748.2 201.652 1748.57 200.797 1749.32 200.117C1750.08 199.43 1751.05 199.086 1752.22 199.086C1753.45 199.086 1754.45 199.445 1755.2 200.164C1755.95 200.883 1756.32 201.805 1756.32 202.93H1754.26C1754.26 202.359 1754.07 201.875 1753.68 201.477C1753.3 201.07 1752.81 200.867 1752.22 200.867C1751.61 200.867 1751.13 201.027 1750.78 201.348C1750.43 201.66 1750.26 202.082 1750.26 202.613C1750.26 203.035 1750.39 203.375 1750.64 203.633C1750.89 203.891 1751.51 204.23 1752.48 204.652C1754.02 205.254 1755.06 205.844 1755.62 206.422C1756.17 206.992 1756.45 207.719 1756.45 208.602C1756.45 209.703 1756.07 210.586 1755.31 211.25C1754.55 211.906 1753.54 212.234 1752.27 212.234C1750.95 212.234 1749.88 211.855 1749.05 211.098C1748.23 210.34 1747.82 209.379 1747.82 208.215H1749.91C1749.93 208.918 1750.15 209.469 1750.55 209.867C1750.96 210.266 1751.53 210.465 1752.27 210.465C1752.95 210.465 1753.48 210.312 1753.84 210.008C1754.2 209.695 1754.38 209.277 1754.38 208.754ZM1762.34 206.199L1761.24 207.465V212H1759.17V194H1761.24V204.77L1765.19 199.32H1767.68L1763.64 204.617L1768.2 212H1765.79L1762.34 206.199Z" fill="black"/>
</svg>
