<svg width="1920" height="1080" viewBox="0 0 1920 1080" fill="none" xmlns="http://www.w3.org/2000/svg">
<rect width="1920" height="1080" fill="#F2F2F2"/>
<rect x="160" y="76" width="1600" height="80" fill="#C4C4C4"/>
<rect x="606" y="164" width="160" height="80" fill="#C4C4C4"/>
<rect x="225" y="164" width="160" height="80" fill="#C4C4C4"/>
<rect x="620" y="252" width="8" height="80" fill="#04B2D9"/>
<rect x="1202" y="429" width="8" height="80" fill="#F20519"/>
<rect x="815" y="252" width="8" height="80" fill="#04B2D9"/>
<rect x="429" y="252" width="8" height="80" fill="#04B2D9"/>
<rect x="279" y="252" width="8" height="80" fill="#04B2D9"/>
<rect x="1390" y="340" width="8" height="80" fill="#F28A2E"/>
<rect x="1685" y="340" width="8" height="80" fill="#F28A2E"/>
<rect x="1202" y="340" width="26" height="80" fill="#F28A2E"/>
<rect x="982" y="164" width="92" height="80" fill="#F2CB05"/>
<rect x="1014" y="172" width="29" height="80" fill="#3A3A3A"/>
<rect x="1045" y="172" width="29" height="80" fill="#3A3A3A"/>
<rect x="774" y="164" width="12" height="80" fill="#F2CB05"/>
<rect x="391" y="164" width="12" height="80" fill="#F2CB05"/>
<rect x="578" y="164" width="17" height="80" fill="#F2CB05"/>
<rect x="433" y="646" width="17" height="80" fill="#F2CB05"/>
<rect x="678" y="646" width="17" height="80" fill="#F2CB05"/>
<rect x="305" y="252" width="8" height="80" fill="#04B2D9"/>
<rect x="872" y="252" width="8" height="80" fill="#04B2D9"/>
<rect x="486" y="252" width="8" height="80" fill="#04B2D9"/>
<rect x="712" y="252" width="8" height="80" fill="#04B2D9"/>
<rect x="1211" y="429" width="8" height="80" fill="#F20519"/>
<rect x="1220" y="429" width="8" height="80" fill="#F20519"/>
<rect x="1390" y="429" width="8" height="80" fill="#F20519"/>
<rect x="1685" y="429" width="8" height="80" fill="#F20519"/>
<rect x="743" y="252" width="8" height="80" fill="#04B2D9"/>
<rect x="362" y="252" width="8" height="80" fill="#04B2D9"/>
<rect x="929" y="252" width="8" height="80" fill="#04B2D9"/>
<rect x="543" y="252" width="8" height="80" fill="#04B2D9"/>
<rect x="796" y="164" width="160" height="80" fill="#C4C4C4"/>
<rect x="410" y="164" width="160" height="80" fill="#C4C4C4"/>
<path d="M920.02 116.113H913.984V122.16H921.016V124H911.84V106.938H920.898V108.789H913.984V114.273H920.02V116.113ZM926.77 120.848L929.172 111.32H931.281L927.52 124H925.973L922.164 111.32H924.273L926.77 120.848ZM937.809 124.234C936.23 124.234 935.02 123.766 934.176 122.828C933.332 121.883 932.902 120.5 932.887 118.68V117.145C932.887 115.254 933.297 113.773 934.117 112.703C934.945 111.625 936.098 111.086 937.574 111.086C939.059 111.086 940.168 111.559 940.902 112.504C941.637 113.449 942.012 114.922 942.027 116.922V118.281H934.949V118.574C934.949 119.934 935.203 120.922 935.711 121.539C936.227 122.156 936.965 122.465 937.926 122.465C938.535 122.465 939.07 122.352 939.531 122.125C940 121.891 940.438 121.523 940.844 121.023L941.922 122.336C941.023 123.602 939.652 124.234 937.809 124.234ZM937.574 112.867C936.715 112.867 936.078 113.164 935.664 113.758C935.25 114.344 935.016 115.258 934.961 116.5H939.953V116.219C939.898 115.016 939.68 114.156 939.297 113.641C938.922 113.125 938.348 112.867 937.574 112.867ZM946.48 111.32L946.539 112.691C947.344 111.621 948.371 111.086 949.621 111.086C951.863 111.086 953 112.582 953.031 115.574V124H950.969V115.668C950.969 114.676 950.801 113.973 950.465 113.559C950.137 113.137 949.641 112.926 948.977 112.926C948.461 112.926 947.996 113.098 947.582 113.441C947.176 113.785 946.848 114.234 946.598 114.789V124H944.523V111.32H946.48ZM958.867 108.25V111.32H960.777V112.996H958.867V120.859C958.867 121.359 958.949 121.738 959.113 121.996C959.277 122.254 959.559 122.383 959.957 122.383C960.23 122.383 960.508 122.336 960.789 122.242L960.766 124C960.297 124.156 959.816 124.234 959.324 124.234C958.504 124.234 957.879 123.941 957.449 123.355C957.02 122.77 956.805 121.941 956.805 120.871V112.996H954.871V111.32H956.805V108.25H958.867ZM965.699 122.16H972.391V124H963.543V106.938H965.699V122.16ZM974.23 117.074C974.23 115.23 974.676 113.773 975.566 112.703C976.465 111.625 977.648 111.086 979.117 111.086C980.586 111.086 981.766 111.609 982.656 112.656C983.555 113.703 984.016 115.129 984.039 116.934V118.27C984.039 120.105 983.594 121.559 982.703 122.629C981.812 123.699 980.625 124.234 979.141 124.234C977.672 124.234 976.492 123.715 975.602 122.676C974.719 121.637 974.262 120.23 974.23 118.457V117.074ZM976.305 118.27C976.305 119.574 976.559 120.602 977.066 121.352C977.582 122.094 978.273 122.465 979.141 122.465C980.969 122.465 981.91 121.145 981.965 118.504V117.074C981.965 115.777 981.707 114.754 981.191 114.004C980.676 113.246 979.984 112.867 979.117 112.867C978.266 112.867 977.582 113.246 977.066 114.004C976.559 114.754 976.305 115.773 976.305 117.062V118.27ZM986.277 117.074C986.277 115.23 986.723 113.773 987.613 112.703C988.512 111.625 989.695 111.086 991.164 111.086C992.633 111.086 993.812 111.609 994.703 112.656C995.602 113.703 996.062 115.129 996.086 116.934V118.27C996.086 120.105 995.641 121.559 994.75 122.629C993.859 123.699 992.672 124.234 991.188 124.234C989.719 124.234 988.539 123.715 987.648 122.676C986.766 121.637 986.309 120.23 986.277 118.457V117.074ZM988.352 118.27C988.352 119.574 988.605 120.602 989.113 121.352C989.629 122.094 990.32 122.465 991.188 122.465C993.016 122.465 993.957 121.145 994.012 118.504V117.074C994.012 115.777 993.754 114.754 993.238 114.004C992.723 113.246 992.031 112.867 991.164 112.867C990.312 112.867 989.629 113.246 989.113 114.004C988.605 114.754 988.352 115.773 988.352 117.062V118.27ZM1007.92 118.27C1007.92 120.277 1007.56 121.773 1006.83 122.758C1006.11 123.742 1005.09 124.234 1003.77 124.234C1002.5 124.234 1001.52 123.754 1000.83 122.793V128.875H998.77V111.32H1000.64L1000.75 112.727C1001.45 111.633 1002.44 111.086 1003.74 111.086C1005.13 111.086 1006.17 111.57 1006.86 112.539C1007.54 113.508 1007.9 114.957 1007.92 116.887V118.27ZM1005.86 117.086C1005.86 115.664 1005.64 114.617 1005.2 113.945C1004.77 113.266 1004.06 112.926 1003.09 112.926C1002.1 112.926 1001.35 113.422 1000.83 114.414V121.012C1001.34 121.98 1002.1 122.465 1003.12 122.465C1004.05 122.465 1004.74 122.129 1005.18 121.457C1005.62 120.777 1005.85 119.742 1005.86 118.352V117.086Z" fill="black"/>
<path d="M675.812 196.789H671.324V212H669.18V196.789H664.703V194.938H675.812V196.789ZM683.23 212C683.105 211.727 683.016 211.266 682.961 210.617C682.227 211.695 681.289 212.234 680.148 212.234C679 212.234 678.102 211.914 677.453 211.273C676.812 210.625 676.492 209.715 676.492 208.543C676.492 207.254 676.93 206.23 677.805 205.473C678.68 204.715 679.879 204.328 681.402 204.312H682.926V202.965C682.926 202.207 682.758 201.668 682.422 201.348C682.086 201.027 681.574 200.867 680.887 200.867C680.262 200.867 679.754 201.055 679.363 201.43C678.973 201.797 678.777 202.266 678.777 202.836H676.703C676.703 202.188 676.895 201.57 677.277 200.984C677.66 200.391 678.176 199.926 678.824 199.59C679.473 199.254 680.195 199.086 680.992 199.086C682.289 199.086 683.273 199.41 683.945 200.059C684.625 200.699 684.973 201.637 684.988 202.871V209.27C684.996 210.246 685.129 211.094 685.387 211.812V212H683.23ZM680.465 210.348C680.973 210.348 681.457 210.207 681.918 209.926C682.379 209.645 682.715 209.293 682.926 208.871V205.848H681.754C680.77 205.863 679.992 206.086 679.422 206.516C678.852 206.938 678.566 207.531 678.566 208.297C678.566 209.016 678.711 209.539 679 209.867C679.289 210.188 679.777 210.348 680.465 210.348ZM694.375 208.754C694.375 208.309 694.207 207.926 693.871 207.605C693.535 207.285 692.887 206.91 691.926 206.48C690.809 206.02 690.02 205.625 689.559 205.297C689.105 204.969 688.766 204.598 688.539 204.184C688.312 203.762 688.199 203.262 688.199 202.684C688.199 201.652 688.574 200.797 689.324 200.117C690.082 199.43 691.047 199.086 692.219 199.086C693.453 199.086 694.445 199.445 695.195 200.164C695.945 200.883 696.32 201.805 696.32 202.93H694.258C694.258 202.359 694.066 201.875 693.684 201.477C693.301 201.07 692.812 200.867 692.219 200.867C691.609 200.867 691.129 201.027 690.777 201.348C690.434 201.66 690.262 202.082 690.262 202.613C690.262 203.035 690.387 203.375 690.637 203.633C690.895 203.891 691.508 204.23 692.477 204.652C694.016 205.254 695.062 205.844 695.617 206.422C696.172 206.992 696.449 207.719 696.449 208.602C696.449 209.703 696.07 210.586 695.312 211.25C694.555 211.906 693.539 212.234 692.266 212.234C690.945 212.234 689.875 211.855 689.055 211.098C688.234 210.34 687.824 209.379 687.824 208.215H689.91C689.934 208.918 690.148 209.469 690.555 209.867C690.961 210.266 691.531 210.465 692.266 210.465C692.953 210.465 693.477 210.312 693.836 210.008C694.195 209.695 694.375 209.277 694.375 208.754ZM702.344 206.199L701.242 207.465V212H699.168V194H701.242V204.77L705.191 199.32H707.676L703.645 204.617L708.203 212H705.789L702.344 206.199Z" fill="black"/>
<path d="M294.812 196.789H290.324V212H288.18V196.789H283.703V194.938H294.812V196.789ZM302.23 212C302.105 211.727 302.016 211.266 301.961 210.617C301.227 211.695 300.289 212.234 299.148 212.234C298 212.234 297.102 211.914 296.453 211.273C295.812 210.625 295.492 209.715 295.492 208.543C295.492 207.254 295.93 206.23 296.805 205.473C297.68 204.715 298.879 204.328 300.402 204.312H301.926V202.965C301.926 202.207 301.758 201.668 301.422 201.348C301.086 201.027 300.574 200.867 299.887 200.867C299.262 200.867 298.754 201.055 298.363 201.43C297.973 201.797 297.777 202.266 297.777 202.836H295.703C295.703 202.188 295.895 201.57 296.277 200.984C296.66 200.391 297.176 199.926 297.824 199.59C298.473 199.254 299.195 199.086 299.992 199.086C301.289 199.086 302.273 199.41 302.945 200.059C303.625 200.699 303.973 201.637 303.988 202.871V209.27C303.996 210.246 304.129 211.094 304.387 211.812V212H302.23ZM299.465 210.348C299.973 210.348 300.457 210.207 300.918 209.926C301.379 209.645 301.715 209.293 301.926 208.871V205.848H300.754C299.77 205.863 298.992 206.086 298.422 206.516C297.852 206.938 297.566 207.531 297.566 208.297C297.566 209.016 297.711 209.539 298 209.867C298.289 210.188 298.777 210.348 299.465 210.348ZM313.375 208.754C313.375 208.309 313.207 207.926 312.871 207.605C312.535 207.285 311.887 206.91 310.926 206.48C309.809 206.02 309.02 205.625 308.559 205.297C308.105 204.969 307.766 204.598 307.539 204.184C307.312 203.762 307.199 203.262 307.199 202.684C307.199 201.652 307.574 200.797 308.324 200.117C309.082 199.43 310.047 199.086 311.219 199.086C312.453 199.086 313.445 199.445 314.195 200.164C314.945 200.883 315.32 201.805 315.32 202.93H313.258C313.258 202.359 313.066 201.875 312.684 201.477C312.301 201.07 311.812 200.867 311.219 200.867C310.609 200.867 310.129 201.027 309.777 201.348C309.434 201.66 309.262 202.082 309.262 202.613C309.262 203.035 309.387 203.375 309.637 203.633C309.895 203.891 310.508 204.23 311.477 204.652C313.016 205.254 314.062 205.844 314.617 206.422C315.172 206.992 315.449 207.719 315.449 208.602C315.449 209.703 315.07 210.586 314.312 211.25C313.555 211.906 312.539 212.234 311.266 212.234C309.945 212.234 308.875 211.855 308.055 211.098C307.234 210.34 306.824 209.379 306.824 208.215H308.91C308.934 208.918 309.148 209.469 309.555 209.867C309.961 210.266 310.531 210.465 311.266 210.465C311.953 210.465 312.477 210.312 312.836 210.008C313.195 209.695 313.375 209.277 313.375 208.754ZM321.344 206.199L320.242 207.465V212H318.168V194H320.242V204.77L324.191 199.32H326.676L322.645 204.617L327.203 212H324.789L321.344 206.199Z" fill="black"/>
<path d="M865.812 196.789H861.324V212H859.18V196.789H854.703V194.938H865.812V196.789ZM873.23 212C873.105 211.727 873.016 211.266 872.961 210.617C872.227 211.695 871.289 212.234 870.148 212.234C869 212.234 868.102 211.914 867.453 211.273C866.812 210.625 866.492 209.715 866.492 208.543C866.492 207.254 866.93 206.23 867.805 205.473C868.68 204.715 869.879 204.328 871.402 204.312H872.926V202.965C872.926 202.207 872.758 201.668 872.422 201.348C872.086 201.027 871.574 200.867 870.887 200.867C870.262 200.867 869.754 201.055 869.363 201.43C868.973 201.797 868.777 202.266 868.777 202.836H866.703C866.703 202.188 866.895 201.57 867.277 200.984C867.66 200.391 868.176 199.926 868.824 199.59C869.473 199.254 870.195 199.086 870.992 199.086C872.289 199.086 873.273 199.41 873.945 200.059C874.625 200.699 874.973 201.637 874.988 202.871V209.27C874.996 210.246 875.129 211.094 875.387 211.812V212H873.23ZM870.465 210.348C870.973 210.348 871.457 210.207 871.918 209.926C872.379 209.645 872.715 209.293 872.926 208.871V205.848H871.754C870.77 205.863 869.992 206.086 869.422 206.516C868.852 206.938 868.566 207.531 868.566 208.297C868.566 209.016 868.711 209.539 869 209.867C869.289 210.188 869.777 210.348 870.465 210.348ZM884.375 208.754C884.375 208.309 884.207 207.926 883.871 207.605C883.535 207.285 882.887 206.91 881.926 206.48C880.809 206.02 880.02 205.625 879.559 205.297C879.105 204.969 878.766 204.598 878.539 204.184C878.312 203.762 878.199 203.262 878.199 202.684C878.199 201.652 878.574 200.797 879.324 200.117C880.082 199.43 881.047 199.086 882.219 199.086C883.453 199.086 884.445 199.445 885.195 200.164C885.945 200.883 886.32 201.805 886.32 202.93H884.258C884.258 202.359 884.066 201.875 883.684 201.477C883.301 201.07 882.812 200.867 882.219 200.867C881.609 200.867 881.129 201.027 880.777 201.348C880.434 201.66 880.262 202.082 880.262 202.613C880.262 203.035 880.387 203.375 880.637 203.633C880.895 203.891 881.508 204.23 882.477 204.652C884.016 205.254 885.062 205.844 885.617 206.422C886.172 206.992 886.449 207.719 886.449 208.602C886.449 209.703 886.07 210.586 885.312 211.25C884.555 211.906 883.539 212.234 882.266 212.234C880.945 212.234 879.875 211.855 879.055 211.098C878.234 210.34 877.824 209.379 877.824 208.215H879.91C879.934 208.918 880.148 209.469 880.555 209.867C880.961 210.266 881.531 210.465 882.266 210.465C882.953 210.465 883.477 210.312 883.836 210.008C884.195 209.695 884.375 209.277 884.375 208.754ZM892.344 206.199L891.242 207.465V212H889.168V194H891.242V204.77L895.191 199.32H897.676L893.645 204.617L898.203 212H895.789L892.344 206.199Z" fill="black"/>
<path d="M479.812 196.789H475.324V212H473.18V196.789H468.703V194.938H479.812V196.789ZM487.23 212C487.105 211.727 487.016 211.266 486.961 210.617C486.227 211.695 485.289 212.234 484.148 212.234C483 212.234 482.102 211.914 481.453 211.273C480.812 210.625 480.492 209.715 480.492 208.543C480.492 207.254 480.93 206.23 481.805 205.473C482.68 204.715 483.879 204.328 485.402 204.312H486.926V202.965C486.926 202.207 486.758 201.668 486.422 201.348C486.086 201.027 485.574 200.867 484.887 200.867C484.262 200.867 483.754 201.055 483.363 201.43C482.973 201.797 482.777 202.266 482.777 202.836H480.703C480.703 202.188 480.895 201.57 481.277 200.984C481.66 200.391 482.176 199.926 482.824 199.59C483.473 199.254 484.195 199.086 484.992 199.086C486.289 199.086 487.273 199.41 487.945 200.059C488.625 200.699 488.973 201.637 488.988 202.871V209.27C488.996 210.246 489.129 211.094 489.387 211.812V212H487.23ZM484.465 210.348C484.973 210.348 485.457 210.207 485.918 209.926C486.379 209.645 486.715 209.293 486.926 208.871V205.848H485.754C484.77 205.863 483.992 206.086 483.422 206.516C482.852 206.938 482.566 207.531 482.566 208.297C482.566 209.016 482.711 209.539 483 209.867C483.289 210.188 483.777 210.348 484.465 210.348ZM498.375 208.754C498.375 208.309 498.207 207.926 497.871 207.605C497.535 207.285 496.887 206.91 495.926 206.48C494.809 206.02 494.02 205.625 493.559 205.297C493.105 204.969 492.766 204.598 492.539 204.184C492.312 203.762 492.199 203.262 492.199 202.684C492.199 201.652 492.574 200.797 493.324 200.117C494.082 199.43 495.047 199.086 496.219 199.086C497.453 199.086 498.445 199.445 499.195 200.164C499.945 200.883 500.32 201.805 500.32 202.93H498.258C498.258 202.359 498.066 201.875 497.684 201.477C497.301 201.07 496.812 200.867 496.219 200.867C495.609 200.867 495.129 201.027 494.777 201.348C494.434 201.66 494.262 202.082 494.262 202.613C494.262 203.035 494.387 203.375 494.637 203.633C494.895 203.891 495.508 204.23 496.477 204.652C498.016 205.254 499.062 205.844 499.617 206.422C500.172 206.992 500.449 207.719 500.449 208.602C500.449 209.703 500.07 210.586 499.312 211.25C498.555 211.906 497.539 212.234 496.266 212.234C494.945 212.234 493.875 211.855 493.055 211.098C492.234 210.34 491.824 209.379 491.824 208.215H493.91C493.934 208.918 494.148 209.469 494.555 209.867C494.961 210.266 495.531 210.465 496.266 210.465C496.953 210.465 497.477 210.312 497.836 210.008C498.195 209.695 498.375 209.277 498.375 208.754ZM506.344 206.199L505.242 207.465V212H503.168V194H505.242V204.77L509.191 199.32H511.676L507.645 204.617L512.203 212H509.789L506.344 206.199Z" fill="black"/>
<path d="M1046 386.16H1052.69V388H1043.84V370.938H1046V386.16ZM1061.49 388C1061.36 387.727 1061.27 387.266 1061.22 386.617C1060.48 387.695 1059.55 388.234 1058.41 388.234C1057.26 388.234 1056.36 387.914 1055.71 387.273C1055.07 386.625 1054.75 385.715 1054.75 384.543C1054.75 383.254 1055.19 382.23 1056.06 381.473C1056.94 380.715 1058.14 380.328 1059.66 380.312H1061.18V378.965C1061.18 378.207 1061.02 377.668 1060.68 377.348C1060.34 377.027 1059.83 376.867 1059.14 376.867C1058.52 376.867 1058.01 377.055 1057.62 377.43C1057.23 377.797 1057.04 378.266 1057.04 378.836H1054.96C1054.96 378.188 1055.15 377.57 1055.54 376.984C1055.92 376.391 1056.43 375.926 1057.08 375.59C1057.73 375.254 1058.45 375.086 1059.25 375.086C1060.55 375.086 1061.53 375.41 1062.2 376.059C1062.88 376.699 1063.23 377.637 1063.25 378.871V385.27C1063.25 386.246 1063.39 387.094 1063.64 387.812V388H1061.49ZM1058.72 386.348C1059.23 386.348 1059.71 386.207 1060.18 385.926C1060.64 385.645 1060.97 385.293 1061.18 384.871V381.848H1060.01C1059.03 381.863 1058.25 382.086 1057.68 382.516C1057.11 382.938 1056.82 383.531 1056.82 384.297C1056.82 385.016 1056.97 385.539 1057.26 385.867C1057.55 386.188 1058.04 386.348 1058.72 386.348ZM1068.39 386.23H1074.51V388H1066.02V386.406L1071.84 377.113H1066.07V375.32H1074.27V376.855L1068.39 386.23ZM1080.48 384.555L1082.79 375.32H1085L1080.85 389.793C1080.54 390.879 1080.09 391.703 1079.52 392.266C1078.95 392.836 1078.3 393.121 1077.58 393.121C1077.3 393.121 1076.94 393.059 1076.5 392.934V391.176L1076.96 391.223C1077.56 391.223 1078.03 391.078 1078.36 390.789C1078.71 390.508 1078.98 390.016 1079.2 389.312L1079.61 387.895L1075.88 375.32H1078.14L1080.48 384.555ZM1100.28 383.688C1100.28 382.836 1100.05 382.184 1099.59 381.73C1099.12 381.277 1098.29 380.836 1097.09 380.406C1095.89 379.977 1094.96 379.527 1094.32 379.059C1093.69 378.582 1093.21 378.043 1092.89 377.441C1092.58 376.832 1092.43 376.137 1092.43 375.355C1092.43 374.004 1092.88 372.891 1093.77 372.016C1094.68 371.141 1095.86 370.703 1097.32 370.703C1098.32 370.703 1099.21 370.93 1100 371.383C1100.78 371.828 1101.38 372.449 1101.8 373.246C1102.22 374.043 1102.43 374.918 1102.43 375.871H1100.28C1100.28 374.816 1100.02 374 1099.52 373.422C1099.01 372.844 1098.28 372.555 1097.32 372.555C1096.46 372.555 1095.79 372.797 1095.31 373.281C1094.83 373.766 1094.59 374.445 1094.59 375.32C1094.59 376.039 1094.85 376.641 1095.37 377.125C1095.88 377.609 1096.68 378.043 1097.76 378.426C1099.44 378.98 1100.64 379.664 1101.36 380.477C1102.08 381.289 1102.45 382.352 1102.45 383.664C1102.45 385.047 1102 386.156 1101.1 386.992C1100.2 387.82 1098.98 388.234 1097.43 388.234C1096.44 388.234 1095.52 388.02 1094.68 387.59C1093.84 387.152 1093.18 386.543 1092.7 385.762C1092.22 384.973 1091.98 384.07 1091.98 383.055H1094.14C1094.14 384.109 1094.43 384.93 1095.02 385.516C1095.61 386.102 1096.41 386.395 1097.43 386.395C1098.38 386.395 1099.09 386.152 1099.56 385.668C1100.04 385.184 1100.28 384.523 1100.28 383.688ZM1114.43 384.355L1116.36 375.32H1118.41L1115.3 388H1113.65L1111.18 378.93L1108.76 388H1107.1L1104.02 375.32H1106.05L1108.02 384.133L1110.38 375.32H1112.02L1114.43 384.355ZM1125.12 388.234C1123.54 388.234 1122.33 387.766 1121.49 386.828C1120.64 385.883 1120.21 384.5 1120.2 382.68V381.145C1120.2 379.254 1120.61 377.773 1121.43 376.703C1122.26 375.625 1123.41 375.086 1124.89 375.086C1126.37 375.086 1127.48 375.559 1128.21 376.504C1128.95 377.449 1129.32 378.922 1129.34 380.922V382.281H1122.26V382.574C1122.26 383.934 1122.52 384.922 1123.02 385.539C1123.54 386.156 1124.28 386.465 1125.24 386.465C1125.85 386.465 1126.38 386.352 1126.84 386.125C1127.31 385.891 1127.75 385.523 1128.16 385.023L1129.23 386.336C1128.34 387.602 1126.96 388.234 1125.12 388.234ZM1124.89 376.867C1124.03 376.867 1123.39 377.164 1122.98 377.758C1122.56 378.344 1122.33 379.258 1122.27 380.5H1127.27V380.219C1127.21 379.016 1126.99 378.156 1126.61 377.641C1126.23 377.125 1125.66 376.867 1124.89 376.867ZM1136.37 388.234C1134.79 388.234 1133.58 387.766 1132.74 386.828C1131.89 385.883 1131.46 384.5 1131.45 382.68V381.145C1131.45 379.254 1131.86 377.773 1132.68 376.703C1133.51 375.625 1134.66 375.086 1136.14 375.086C1137.62 375.086 1138.73 375.559 1139.46 376.504C1140.2 377.449 1140.57 378.922 1140.59 380.922V382.281H1133.51V382.574C1133.51 383.934 1133.77 384.922 1134.27 385.539C1134.79 386.156 1135.53 386.465 1136.49 386.465C1137.1 386.465 1137.63 386.352 1138.09 386.125C1138.56 385.891 1139 385.523 1139.41 385.023L1140.48 386.336C1139.59 387.602 1138.21 388.234 1136.37 388.234ZM1136.14 376.867C1135.28 376.867 1134.64 377.164 1134.23 377.758C1133.81 378.344 1133.58 379.258 1133.52 380.5H1138.52V380.219C1138.46 379.016 1138.24 378.156 1137.86 377.641C1137.48 377.125 1136.91 376.867 1136.14 376.867ZM1152.25 382.27C1152.25 384.277 1151.89 385.773 1151.16 386.758C1150.44 387.742 1149.42 388.234 1148.1 388.234C1146.83 388.234 1145.85 387.754 1145.16 386.793V392.875H1143.1V375.32H1144.97L1145.08 376.727C1145.77 375.633 1146.77 375.086 1148.07 375.086C1149.46 375.086 1150.5 375.57 1151.18 376.539C1151.87 377.508 1152.23 378.957 1152.25 380.887V382.27ZM1150.19 381.086C1150.19 379.664 1149.97 378.617 1149.53 377.945C1149.09 377.266 1148.39 376.926 1147.42 376.926C1146.43 376.926 1145.68 377.422 1145.16 378.414V385.012C1145.67 385.98 1146.43 386.465 1147.45 386.465C1148.38 386.465 1149.07 386.129 1149.51 385.457C1149.95 384.777 1150.18 383.742 1150.19 382.352V381.086ZM1157.16 388H1155.09V375.32H1157.16V388ZM1157.32 371.957C1157.32 372.309 1157.23 372.602 1157.03 372.836C1156.84 373.07 1156.54 373.188 1156.14 373.188C1155.75 373.188 1155.46 373.07 1155.26 372.836C1155.07 372.602 1154.97 372.309 1154.97 371.957C1154.97 371.605 1155.07 371.309 1155.26 371.066C1155.46 370.824 1155.75 370.703 1156.14 370.703C1156.53 370.703 1156.82 370.828 1157.02 371.078C1157.22 371.32 1157.32 371.613 1157.32 371.957ZM1162.39 375.32L1162.45 376.691C1163.25 375.621 1164.28 375.086 1165.53 375.086C1167.77 375.086 1168.91 376.582 1168.94 379.574V388H1166.88V379.668C1166.88 378.676 1166.71 377.973 1166.37 377.559C1166.04 377.137 1165.55 376.926 1164.88 376.926C1164.37 376.926 1163.9 377.098 1163.49 377.441C1163.08 377.785 1162.75 378.234 1162.5 378.789V388H1160.43V375.32H1162.39ZM1171.64 381.086C1171.64 379.109 1172 377.617 1172.72 376.609C1173.44 375.594 1174.49 375.086 1175.88 375.086C1177.16 375.086 1178.14 375.637 1178.82 376.738L1178.92 375.32H1180.8V388.117C1180.8 389.688 1180.39 390.891 1179.59 391.727C1178.79 392.57 1177.66 392.992 1176.23 392.992C1175.6 392.992 1174.9 392.836 1174.12 392.523C1173.34 392.219 1172.76 391.84 1172.37 391.387L1173.21 389.957C1174.07 390.801 1175.02 391.223 1176.06 391.223C1177.79 391.223 1178.68 390.281 1178.72 388.398V386.746C1178.05 387.738 1177.1 388.234 1175.86 388.234C1174.55 388.234 1173.53 387.742 1172.79 386.758C1172.06 385.766 1171.68 384.344 1171.64 382.492V381.086ZM1173.72 382.27C1173.72 383.691 1173.93 384.738 1174.34 385.41C1174.76 386.074 1175.45 386.406 1176.4 386.406C1177.43 386.406 1178.21 385.879 1178.72 384.824V378.484C1178.18 377.445 1177.42 376.926 1176.43 376.926C1175.47 376.926 1174.79 377.262 1174.36 377.934C1173.94 378.598 1173.73 379.621 1173.72 381.004V382.27Z" fill="black"/>
<path d="M335.078 382H332.934V364.938H335.078V382ZM340.504 369.32L340.562 370.691C341.367 369.621 342.395 369.086 343.645 369.086C345.887 369.086 347.023 370.582 347.055 373.574V382H344.992V373.668C344.992 372.676 344.824 371.973 344.488 371.559C344.16 371.137 343.664 370.926 343 370.926C342.484 370.926 342.02 371.098 341.605 371.441C341.199 371.785 340.871 372.234 340.621 372.789V382H338.547V369.32H340.504ZM354.578 380.465C355.266 380.465 355.816 380.254 356.23 379.832C356.645 379.402 356.871 378.793 356.91 378.004H358.867C358.82 379.223 358.387 380.234 357.566 381.039C356.754 381.836 355.758 382.234 354.578 382.234C353.008 382.234 351.809 381.742 350.98 380.758C350.16 379.766 349.75 378.293 349.75 376.34V374.945C349.75 373.031 350.16 371.578 350.98 370.586C351.801 369.586 352.996 369.086 354.566 369.086C355.863 369.086 356.891 369.496 357.648 370.316C358.414 371.137 358.82 372.258 358.867 373.68H356.91C356.863 372.742 356.637 372.039 356.23 371.57C355.832 371.102 355.277 370.867 354.566 370.867C353.645 370.867 352.961 371.172 352.516 371.781C352.07 372.383 351.84 373.375 351.824 374.758V376.375C351.824 377.867 352.043 378.922 352.48 379.539C352.926 380.156 353.625 380.465 354.578 380.465ZM366.496 371.266C366.207 371.211 365.895 371.184 365.559 371.184C364.496 371.184 363.754 371.766 363.332 372.93V382H361.258V369.32H363.273L363.309 370.609C363.863 369.594 364.648 369.086 365.664 369.086C365.992 369.086 366.266 369.141 366.484 369.25L366.496 371.266ZM372.871 382.234C371.293 382.234 370.082 381.766 369.238 380.828C368.395 379.883 367.965 378.5 367.949 376.68V375.145C367.949 373.254 368.359 371.773 369.18 370.703C370.008 369.625 371.16 369.086 372.637 369.086C374.121 369.086 375.23 369.559 375.965 370.504C376.699 371.449 377.074 372.922 377.09 374.922V376.281H370.012V376.574C370.012 377.934 370.266 378.922 370.773 379.539C371.289 380.156 372.027 380.465 372.988 380.465C373.598 380.465 374.133 380.352 374.594 380.125C375.062 379.891 375.5 379.523 375.906 379.023L376.984 380.336C376.086 381.602 374.715 382.234 372.871 382.234ZM372.637 370.867C371.777 370.867 371.141 371.164 370.727 371.758C370.312 372.344 370.078 373.258 370.023 374.5H375.016V374.219C374.961 373.016 374.742 372.156 374.359 371.641C373.984 371.125 373.41 370.867 372.637 370.867ZM381.543 369.32L381.59 370.492C382.363 369.555 383.383 369.086 384.648 369.086C386.062 369.086 387.051 369.699 387.613 370.926C388.41 369.699 389.52 369.086 390.941 369.086C393.277 369.086 394.473 370.543 394.527 373.457V382H392.465V373.656C392.465 372.734 392.301 372.051 391.973 371.605C391.645 371.152 391.09 370.926 390.309 370.926C389.684 370.926 389.176 371.168 388.785 371.652C388.395 372.137 388.168 372.754 388.105 373.504V382H386.02V373.562C385.996 371.805 385.281 370.926 383.875 370.926C382.828 370.926 382.09 371.449 381.66 372.496V382H379.598V369.32H381.543ZM402.191 382.234C400.613 382.234 399.402 381.766 398.559 380.828C397.715 379.883 397.285 378.5 397.27 376.68V375.145C397.27 373.254 397.68 371.773 398.5 370.703C399.328 369.625 400.48 369.086 401.957 369.086C403.441 369.086 404.551 369.559 405.285 370.504C406.02 371.449 406.395 372.922 406.41 374.922V376.281H399.332V376.574C399.332 377.934 399.586 378.922 400.094 379.539C400.609 380.156 401.348 380.465 402.309 380.465C402.918 380.465 403.453 380.352 403.914 380.125C404.383 379.891 404.82 379.523 405.227 379.023L406.305 380.336C405.406 381.602 404.035 382.234 402.191 382.234ZM401.957 370.867C401.098 370.867 400.461 371.164 400.047 371.758C399.633 372.344 399.398 373.258 399.344 374.5H404.336V374.219C404.281 373.016 404.062 372.156 403.68 371.641C403.305 371.125 402.73 370.867 401.957 370.867ZM410.863 369.32L410.922 370.691C411.727 369.621 412.754 369.086 414.004 369.086C416.246 369.086 417.383 370.582 417.414 373.574V382H415.352V373.668C415.352 372.676 415.184 371.973 414.848 371.559C414.52 371.137 414.023 370.926 413.359 370.926C412.844 370.926 412.379 371.098 411.965 371.441C411.559 371.785 411.23 372.234 410.98 372.789V382H408.906V369.32H410.863ZM423.25 366.25V369.32H425.16V370.996H423.25V378.859C423.25 379.359 423.332 379.738 423.496 379.996C423.66 380.254 423.941 380.383 424.34 380.383C424.613 380.383 424.891 380.336 425.172 380.242L425.148 382C424.68 382.156 424.199 382.234 423.707 382.234C422.887 382.234 422.262 381.941 421.832 381.355C421.402 380.77 421.188 379.941 421.188 378.871V370.996H419.254V369.32H421.188V366.25H423.25ZM434.16 382C434.035 381.727 433.945 381.266 433.891 380.617C433.156 381.695 432.219 382.234 431.078 382.234C429.93 382.234 429.031 381.914 428.383 381.273C427.742 380.625 427.422 379.715 427.422 378.543C427.422 377.254 427.859 376.23 428.734 375.473C429.609 374.715 430.809 374.328 432.332 374.312H433.855V372.965C433.855 372.207 433.688 371.668 433.352 371.348C433.016 371.027 432.504 370.867 431.816 370.867C431.191 370.867 430.684 371.055 430.293 371.43C429.902 371.797 429.707 372.266 429.707 372.836H427.633C427.633 372.188 427.824 371.57 428.207 370.984C428.59 370.391 429.105 369.926 429.754 369.59C430.402 369.254 431.125 369.086 431.922 369.086C433.219 369.086 434.203 369.41 434.875 370.059C435.555 370.699 435.902 371.637 435.918 372.871V379.27C435.926 380.246 436.059 381.094 436.316 381.812V382H434.16ZM431.395 380.348C431.902 380.348 432.387 380.207 432.848 379.926C433.309 379.645 433.645 379.293 433.855 378.871V375.848H432.684C431.699 375.863 430.922 376.086 430.352 376.516C429.781 376.938 429.496 377.531 429.496 378.297C429.496 379.016 429.641 379.539 429.93 379.867C430.219 380.188 430.707 380.348 431.395 380.348ZM441.379 382H439.305V364H441.379V382ZM453.215 364.938L457.668 378.859L462.121 364.938H464.887V382H462.742V375.355L462.941 368.699L458.477 382H456.836L452.395 368.746L452.594 375.355V382H450.449V364.938H453.215ZM474.824 382C474.699 381.727 474.609 381.266 474.555 380.617C473.82 381.695 472.883 382.234 471.742 382.234C470.594 382.234 469.695 381.914 469.047 381.273C468.406 380.625 468.086 379.715 468.086 378.543C468.086 377.254 468.523 376.23 469.398 375.473C470.273 374.715 471.473 374.328 472.996 374.312H474.52V372.965C474.52 372.207 474.352 371.668 474.016 371.348C473.68 371.027 473.168 370.867 472.48 370.867C471.855 370.867 471.348 371.055 470.957 371.43C470.566 371.797 470.371 372.266 470.371 372.836H468.297C468.297 372.188 468.488 371.57 468.871 370.984C469.254 370.391 469.77 369.926 470.418 369.59C471.066 369.254 471.789 369.086 472.586 369.086C473.883 369.086 474.867 369.41 475.539 370.059C476.219 370.699 476.566 371.637 476.582 372.871V379.27C476.59 380.246 476.723 381.094 476.98 381.812V382H474.824ZM472.059 380.348C472.566 380.348 473.051 380.207 473.512 379.926C473.973 379.645 474.309 379.293 474.52 378.871V375.848H473.348C472.363 375.863 471.586 376.086 471.016 376.516C470.445 376.938 470.16 377.531 470.16 378.297C470.16 379.016 470.305 379.539 470.594 379.867C470.883 380.188 471.371 380.348 472.059 380.348ZM485.043 371.266C484.754 371.211 484.441 371.184 484.105 371.184C483.043 371.184 482.301 371.766 481.879 372.93V382H479.805V369.32H481.82L481.855 370.609C482.41 369.594 483.195 369.086 484.211 369.086C484.539 369.086 484.812 369.141 485.031 369.25L485.043 371.266ZM490.305 376.199L489.203 377.465V382H487.129V364H489.203V374.77L493.152 369.32H495.637L491.605 374.617L496.164 382H493.75L490.305 376.199ZM500.184 382H498.109V369.32H500.184V382ZM500.348 365.957C500.348 366.309 500.25 366.602 500.055 366.836C499.859 367.07 499.562 367.188 499.164 367.188C498.773 367.188 498.48 367.07 498.285 366.836C498.09 366.602 497.992 366.309 497.992 365.957C497.992 365.605 498.09 365.309 498.285 365.066C498.48 364.824 498.773 364.703 499.164 364.703C499.555 364.703 499.848 364.828 500.043 365.078C500.246 365.32 500.348 365.613 500.348 365.957ZM505.41 369.32L505.469 370.691C506.273 369.621 507.301 369.086 508.551 369.086C510.793 369.086 511.93 370.582 511.961 373.574V382H509.898V373.668C509.898 372.676 509.73 371.973 509.395 371.559C509.066 371.137 508.57 370.926 507.906 370.926C507.391 370.926 506.926 371.098 506.512 371.441C506.105 371.785 505.777 372.234 505.527 372.789V382H503.453V369.32H505.41ZM514.668 375.086C514.668 373.109 515.027 371.617 515.746 370.609C516.465 369.594 517.516 369.086 518.898 369.086C520.188 369.086 521.168 369.637 521.84 370.738L521.945 369.32H523.82V382.117C523.82 383.688 523.418 384.891 522.613 385.727C521.809 386.57 520.688 386.992 519.25 386.992C518.625 386.992 517.922 386.836 517.141 386.523C516.367 386.219 515.785 385.84 515.395 385.387L516.238 383.957C517.098 384.801 518.047 385.223 519.086 385.223C520.812 385.223 521.699 384.281 521.746 382.398V380.746C521.074 381.738 520.121 382.234 518.887 382.234C517.574 382.234 516.551 381.742 515.816 380.758C515.082 379.766 514.699 378.344 514.668 376.492V375.086ZM516.742 376.27C516.742 377.691 516.949 378.738 517.363 379.41C517.785 380.074 518.473 380.406 519.426 380.406C520.457 380.406 521.23 379.879 521.746 378.824V372.484C521.207 371.445 520.441 370.926 519.449 370.926C518.496 370.926 517.809 371.262 517.387 371.934C516.965 372.598 516.75 373.621 516.742 375.004V376.27Z" fill="black"/>
<path d="M489.539 688.586C489.445 690.414 488.93 691.812 487.992 692.781C487.062 693.75 485.746 694.234 484.043 694.234C482.332 694.234 480.973 693.586 479.965 692.289C478.957 690.984 478.453 689.219 478.453 686.992V683.898C478.453 681.68 478.969 679.926 480 678.637C481.039 677.348 482.453 676.703 484.242 676.703C485.891 676.703 487.164 677.199 488.062 678.191C488.969 679.176 489.461 680.586 489.539 682.422H487.371C487.277 681.031 486.984 680.039 486.492 679.445C486 678.852 485.25 678.555 484.242 678.555C483.078 678.555 482.184 679.012 481.559 679.926C480.934 680.832 480.621 682.164 480.621 683.922V687.051C480.621 688.777 480.91 690.102 481.488 691.023C482.074 691.945 482.926 692.406 484.043 692.406C485.16 692.406 485.965 692.129 486.457 691.574C486.949 691.02 487.254 690.023 487.371 688.586H489.539ZM491.73 687.074C491.73 685.23 492.176 683.773 493.066 682.703C493.965 681.625 495.148 681.086 496.617 681.086C498.086 681.086 499.266 681.609 500.156 682.656C501.055 683.703 501.516 685.129 501.539 686.934V688.27C501.539 690.105 501.094 691.559 500.203 692.629C499.312 693.699 498.125 694.234 496.641 694.234C495.172 694.234 493.992 693.715 493.102 692.676C492.219 691.637 491.762 690.23 491.73 688.457V687.074ZM493.805 688.27C493.805 689.574 494.059 690.602 494.566 691.352C495.082 692.094 495.773 692.465 496.641 692.465C498.469 692.465 499.41 691.145 499.465 688.504V687.074C499.465 685.777 499.207 684.754 498.691 684.004C498.176 683.246 497.484 682.867 496.617 682.867C495.766 682.867 495.082 683.246 494.566 684.004C494.059 684.754 493.805 685.773 493.805 687.062V688.27ZM506.168 681.32L506.227 682.691C507.031 681.621 508.059 681.086 509.309 681.086C511.551 681.086 512.688 682.582 512.719 685.574V694H510.656V685.668C510.656 684.676 510.488 683.973 510.152 683.559C509.824 683.137 509.328 682.926 508.664 682.926C508.148 682.926 507.684 683.098 507.27 683.441C506.863 683.785 506.535 684.234 506.285 684.789V694H504.211V681.32H506.168ZM520.242 692.465C520.93 692.465 521.48 692.254 521.895 691.832C522.309 691.402 522.535 690.793 522.574 690.004H524.531C524.484 691.223 524.051 692.234 523.23 693.039C522.418 693.836 521.422 694.234 520.242 694.234C518.672 694.234 517.473 693.742 516.645 692.758C515.824 691.766 515.414 690.293 515.414 688.34V686.945C515.414 685.031 515.824 683.578 516.645 682.586C517.465 681.586 518.66 681.086 520.23 681.086C521.527 681.086 522.555 681.496 523.312 682.316C524.078 683.137 524.484 684.258 524.531 685.68H522.574C522.527 684.742 522.301 684.039 521.895 683.57C521.496 683.102 520.941 682.867 520.23 682.867C519.309 682.867 518.625 683.172 518.18 683.781C517.734 684.383 517.504 685.375 517.488 686.758V688.375C517.488 689.867 517.707 690.922 518.145 691.539C518.59 692.156 519.289 692.465 520.242 692.465ZM533.391 692.887C532.703 693.785 531.699 694.234 530.379 694.234C529.23 694.234 528.363 693.84 527.777 693.051C527.191 692.254 526.895 691.098 526.887 689.582V681.32H528.949V689.43C528.949 691.406 529.543 692.395 530.73 692.395C531.988 692.395 532.855 691.832 533.332 690.707V681.32H535.406V694H533.438L533.391 692.887ZM543.762 683.266C543.473 683.211 543.16 683.184 542.824 683.184C541.762 683.184 541.02 683.766 540.598 684.93V694H538.523V681.32H540.539L540.574 682.609C541.129 681.594 541.914 681.086 542.93 681.086C543.258 681.086 543.531 681.141 543.75 681.25L543.762 683.266ZM551.074 683.266C550.785 683.211 550.473 683.184 550.137 683.184C549.074 683.184 548.332 683.766 547.91 684.93V694H545.836V681.32H547.852L547.887 682.609C548.441 681.594 549.227 681.086 550.242 681.086C550.57 681.086 550.844 681.141 551.062 681.25L551.074 683.266ZM557.449 694.234C555.871 694.234 554.66 693.766 553.816 692.828C552.973 691.883 552.543 690.5 552.527 688.68V687.145C552.527 685.254 552.938 683.773 553.758 682.703C554.586 681.625 555.738 681.086 557.215 681.086C558.699 681.086 559.809 681.559 560.543 682.504C561.277 683.449 561.652 684.922 561.668 686.922V688.281H554.59V688.574C554.59 689.934 554.844 690.922 555.352 691.539C555.867 692.156 556.605 692.465 557.566 692.465C558.176 692.465 558.711 692.352 559.172 692.125C559.641 691.891 560.078 691.523 560.484 691.023L561.562 692.336C560.664 693.602 559.293 694.234 557.449 694.234ZM557.215 682.867C556.355 682.867 555.719 683.164 555.305 683.758C554.891 684.344 554.656 685.258 554.602 686.5H559.594V686.219C559.539 685.016 559.32 684.156 558.938 683.641C558.562 683.125 557.988 682.867 557.215 682.867ZM566.121 681.32L566.18 682.691C566.984 681.621 568.012 681.086 569.262 681.086C571.504 681.086 572.641 682.582 572.672 685.574V694H570.609V685.668C570.609 684.676 570.441 683.973 570.105 683.559C569.777 683.137 569.281 682.926 568.617 682.926C568.102 682.926 567.637 683.098 567.223 683.441C566.816 683.785 566.488 684.234 566.238 684.789V694H564.164V681.32H566.121ZM578.508 678.25V681.32H580.418V682.996H578.508V690.859C578.508 691.359 578.59 691.738 578.754 691.996C578.918 692.254 579.199 692.383 579.598 692.383C579.871 692.383 580.148 692.336 580.43 692.242L580.406 694C579.938 694.156 579.457 694.234 578.965 694.234C578.145 694.234 577.52 693.941 577.09 693.355C576.66 692.77 576.445 691.941 576.445 690.871V682.996H574.512V681.32H576.445V678.25H578.508ZM591.457 676.938L595.91 690.859L600.363 676.938H603.129V694H600.984V687.355L601.184 680.699L596.719 694H595.078L590.637 680.746L590.836 687.355V694H588.691V676.938H591.457ZM613.066 694C612.941 693.727 612.852 693.266 612.797 692.617C612.062 693.695 611.125 694.234 609.984 694.234C608.836 694.234 607.938 693.914 607.289 693.273C606.648 692.625 606.328 691.715 606.328 690.543C606.328 689.254 606.766 688.23 607.641 687.473C608.516 686.715 609.715 686.328 611.238 686.312H612.762V684.965C612.762 684.207 612.594 683.668 612.258 683.348C611.922 683.027 611.41 682.867 610.723 682.867C610.098 682.867 609.59 683.055 609.199 683.43C608.809 683.797 608.613 684.266 608.613 684.836H606.539C606.539 684.188 606.73 683.57 607.113 682.984C607.496 682.391 608.012 681.926 608.66 681.59C609.309 681.254 610.031 681.086 610.828 681.086C612.125 681.086 613.109 681.41 613.781 682.059C614.461 682.699 614.809 683.637 614.824 684.871V691.27C614.832 692.246 614.965 693.094 615.223 693.812V694H613.066ZM610.301 692.348C610.809 692.348 611.293 692.207 611.754 691.926C612.215 691.645 612.551 691.293 612.762 690.871V687.848H611.59C610.605 687.863 609.828 688.086 609.258 688.516C608.688 688.938 608.402 689.531 608.402 690.297C608.402 691.016 608.547 691.539 608.836 691.867C609.125 692.188 609.613 692.348 610.301 692.348ZM623.285 683.266C622.996 683.211 622.684 683.184 622.348 683.184C621.285 683.184 620.543 683.766 620.121 684.93V694H618.047V681.32H620.062L620.098 682.609C620.652 681.594 621.438 681.086 622.453 681.086C622.781 681.086 623.055 681.141 623.273 681.25L623.285 683.266ZM628.547 688.199L627.445 689.465V694H625.371V676H627.445V686.77L631.395 681.32H633.879L629.848 686.617L634.406 694H631.992L628.547 688.199ZM638.426 694H636.352V681.32H638.426V694ZM638.59 677.957C638.59 678.309 638.492 678.602 638.297 678.836C638.102 679.07 637.805 679.188 637.406 679.188C637.016 679.188 636.723 679.07 636.527 678.836C636.332 678.602 636.234 678.309 636.234 677.957C636.234 677.605 636.332 677.309 636.527 677.066C636.723 676.824 637.016 676.703 637.406 676.703C637.797 676.703 638.09 676.828 638.285 677.078C638.488 677.32 638.59 677.613 638.59 677.957ZM643.652 681.32L643.711 682.691C644.516 681.621 645.543 681.086 646.793 681.086C649.035 681.086 650.172 682.582 650.203 685.574V694H648.141V685.668C648.141 684.676 647.973 683.973 647.637 683.559C647.309 683.137 646.812 682.926 646.148 682.926C645.633 682.926 645.168 683.098 644.754 683.441C644.348 683.785 644.02 684.234 643.77 684.789V694H641.695V681.32H643.652ZM652.91 687.086C652.91 685.109 653.27 683.617 653.988 682.609C654.707 681.594 655.758 681.086 657.141 681.086C658.43 681.086 659.41 681.637 660.082 682.738L660.188 681.32H662.062V694.117C662.062 695.688 661.66 696.891 660.855 697.727C660.051 698.57 658.93 698.992 657.492 698.992C656.867 698.992 656.164 698.836 655.383 698.523C654.609 698.219 654.027 697.84 653.637 697.387L654.48 695.957C655.34 696.801 656.289 697.223 657.328 697.223C659.055 697.223 659.941 696.281 659.988 694.398V692.746C659.316 693.738 658.363 694.234 657.129 694.234C655.816 694.234 654.793 693.742 654.059 692.758C653.324 691.766 652.941 690.344 652.91 688.492V687.086ZM654.984 688.27C654.984 689.691 655.191 690.738 655.605 691.41C656.027 692.074 656.715 692.406 657.668 692.406C658.699 692.406 659.473 691.879 659.988 690.824V684.484C659.449 683.445 658.684 682.926 657.691 682.926C656.738 682.926 656.051 683.262 655.629 683.934C655.207 684.598 654.992 685.621 654.984 687.004V688.27Z" fill="black"/>
<path d="M779 403.32V410H776.855V392.938H782.293C783.879 392.938 785.125 393.414 786.031 394.367C786.938 395.312 787.391 396.574 787.391 398.152C787.391 399.793 786.957 401.059 786.09 401.949C785.23 402.832 784.016 403.289 782.445 403.32H779ZM779 401.48H782.293C783.246 401.48 783.977 401.195 784.484 400.625C784.992 400.055 785.246 399.238 785.246 398.176C785.246 397.152 784.984 396.332 784.461 395.715C783.938 395.098 783.219 394.789 782.305 394.789H779V401.48ZM795.113 399.266C794.824 399.211 794.512 399.184 794.176 399.184C793.113 399.184 792.371 399.766 791.949 400.93V410H789.875V397.32H791.891L791.926 398.609C792.48 397.594 793.266 397.086 794.281 397.086C794.609 397.086 794.883 397.141 795.102 397.25L795.113 399.266ZM801.488 410.234C799.91 410.234 798.699 409.766 797.855 408.828C797.012 407.883 796.582 406.5 796.566 404.68V403.145C796.566 401.254 796.977 399.773 797.797 398.703C798.625 397.625 799.777 397.086 801.254 397.086C802.738 397.086 803.848 397.559 804.582 398.504C805.316 399.449 805.691 400.922 805.707 402.922V404.281H798.629V404.574C798.629 405.934 798.883 406.922 799.391 407.539C799.906 408.156 800.645 408.465 801.605 408.465C802.215 408.465 802.75 408.352 803.211 408.125C803.68 407.891 804.117 407.523 804.523 407.023L805.602 408.336C804.703 409.602 803.332 410.234 801.488 410.234ZM801.254 398.867C800.395 398.867 799.758 399.164 799.344 399.758C798.93 400.344 798.695 401.258 798.641 402.5H803.633V402.219C803.578 401.016 803.359 400.156 802.977 399.641C802.602 399.125 802.027 398.867 801.254 398.867ZM814.285 410V398.996H812.633V397.32H814.285V396.148C814.301 394.766 814.66 393.688 815.363 392.914C816.074 392.141 817.062 391.754 818.328 391.754C818.82 391.754 819.289 391.824 819.734 391.965C820.18 392.098 820.648 392.266 821.141 392.469L820.789 394.297C820.031 393.906 819.266 393.711 818.492 393.711C817.711 393.711 817.16 393.918 816.84 394.332C816.527 394.746 816.371 395.375 816.371 396.219V397.32H818.422V398.996H816.371V410H814.285ZM822.148 410H820.062V397.32H822.148V410ZM827.434 397.32L827.492 398.691C828.297 397.621 829.324 397.086 830.574 397.086C832.816 397.086 833.953 398.582 833.984 401.574V410H831.922V401.668C831.922 400.676 831.754 399.973 831.418 399.559C831.09 399.137 830.594 398.926 829.93 398.926C829.414 398.926 828.949 399.098 828.535 399.441C828.129 399.785 827.801 400.234 827.551 400.789V410H825.477V397.32H827.434ZM843.629 410C843.504 409.727 843.414 409.266 843.359 408.617C842.625 409.695 841.688 410.234 840.547 410.234C839.398 410.234 838.5 409.914 837.852 409.273C837.211 408.625 836.891 407.715 836.891 406.543C836.891 405.254 837.328 404.23 838.203 403.473C839.078 402.715 840.277 402.328 841.801 402.312H843.324V400.965C843.324 400.207 843.156 399.668 842.82 399.348C842.484 399.027 841.973 398.867 841.285 398.867C840.66 398.867 840.152 399.055 839.762 399.43C839.371 399.797 839.176 400.266 839.176 400.836H837.102C837.102 400.188 837.293 399.57 837.676 398.984C838.059 398.391 838.574 397.926 839.223 397.59C839.871 397.254 840.594 397.086 841.391 397.086C842.688 397.086 843.672 397.41 844.344 398.059C845.023 398.699 845.371 399.637 845.387 400.871V407.27C845.395 408.246 845.527 409.094 845.785 409.812V410H843.629ZM840.863 408.348C841.371 408.348 841.855 408.207 842.316 407.926C842.777 407.645 843.113 407.293 843.324 406.871V403.848H842.152C841.168 403.863 840.391 404.086 839.82 404.516C839.25 404.938 838.965 405.531 838.965 406.297C838.965 407.016 839.109 407.539 839.398 407.867C839.688 408.188 840.176 408.348 840.863 408.348ZM850.848 410H848.773V392H850.848V410ZM856.355 410H854.281V397.32H856.355V410ZM856.52 393.957C856.52 394.309 856.422 394.602 856.227 394.836C856.031 395.07 855.734 395.188 855.336 395.188C854.945 395.188 854.652 395.07 854.457 394.836C854.262 394.602 854.164 394.309 854.164 393.957C854.164 393.605 854.262 393.309 854.457 393.066C854.652 392.824 854.945 392.703 855.336 392.703C855.727 392.703 856.02 392.828 856.215 393.078C856.418 393.32 856.52 393.613 856.52 393.957ZM861.547 408.23H867.664V410H859.18V408.406L864.992 399.113H859.227V397.32H867.43V398.855L861.547 408.23ZM874.52 410.234C872.941 410.234 871.73 409.766 870.887 408.828C870.043 407.883 869.613 406.5 869.598 404.68V403.145C869.598 401.254 870.008 399.773 870.828 398.703C871.656 397.625 872.809 397.086 874.285 397.086C875.77 397.086 876.879 397.559 877.613 398.504C878.348 399.449 878.723 400.922 878.738 402.922V404.281H871.66V404.574C871.66 405.934 871.914 406.922 872.422 407.539C872.938 408.156 873.676 408.465 874.637 408.465C875.246 408.465 875.781 408.352 876.242 408.125C876.711 407.891 877.148 407.523 877.555 407.023L878.633 408.336C877.734 409.602 876.363 410.234 874.52 410.234ZM874.285 398.867C873.426 398.867 872.789 399.164 872.375 399.758C871.961 400.344 871.727 401.258 871.672 402.5H876.664V402.219C876.609 401.016 876.391 400.156 876.008 399.641C875.633 399.125 875.059 398.867 874.285 398.867ZM886.473 399.266C886.184 399.211 885.871 399.184 885.535 399.184C884.473 399.184 883.73 399.766 883.309 400.93V410H881.234V397.32H883.25L883.285 398.609C883.84 397.594 884.625 397.086 885.641 397.086C885.969 397.086 886.242 397.141 886.461 397.25L886.473 399.266Z" fill="black"/>
<path d="M730.941 454.621L731.164 456.531L731.504 454.844L734.234 442.938H736.027L738.676 454.844L739.016 456.578L739.262 454.609L741.348 442.938H743.492L740.094 460H738.16L735.312 447.566L735.137 446.559L734.961 447.566L732.008 460H730.062L726.676 442.938H728.82L730.941 454.621ZM749.832 460.234C748.254 460.234 747.043 459.766 746.199 458.828C745.355 457.883 744.926 456.5 744.91 454.68V453.145C744.91 451.254 745.32 449.773 746.141 448.703C746.969 447.625 748.121 447.086 749.598 447.086C751.082 447.086 752.191 447.559 752.926 448.504C753.66 449.449 754.035 450.922 754.051 452.922V454.281H746.973V454.574C746.973 455.934 747.227 456.922 747.734 457.539C748.25 458.156 748.988 458.465 749.949 458.465C750.559 458.465 751.094 458.352 751.555 458.125C752.023 457.891 752.461 457.523 752.867 457.023L753.945 458.336C753.047 459.602 751.676 460.234 749.832 460.234ZM749.598 448.867C748.738 448.867 748.102 449.164 747.688 449.758C747.273 450.344 747.039 451.258 746.984 452.5H751.977V452.219C751.922 451.016 751.703 450.156 751.32 449.641C750.945 449.125 750.371 448.867 749.598 448.867ZM763.074 460C762.949 459.727 762.859 459.266 762.805 458.617C762.07 459.695 761.133 460.234 759.992 460.234C758.844 460.234 757.945 459.914 757.297 459.273C756.656 458.625 756.336 457.715 756.336 456.543C756.336 455.254 756.773 454.23 757.648 453.473C758.523 452.715 759.723 452.328 761.246 452.312H762.77V450.965C762.77 450.207 762.602 449.668 762.266 449.348C761.93 449.027 761.418 448.867 760.73 448.867C760.105 448.867 759.598 449.055 759.207 449.43C758.816 449.797 758.621 450.266 758.621 450.836H756.547C756.547 450.188 756.738 449.57 757.121 448.984C757.504 448.391 758.02 447.926 758.668 447.59C759.316 447.254 760.039 447.086 760.836 447.086C762.133 447.086 763.117 447.41 763.789 448.059C764.469 448.699 764.816 449.637 764.832 450.871V457.27C764.84 458.246 764.973 459.094 765.23 459.812V460H763.074ZM760.309 458.348C760.816 458.348 761.301 458.207 761.762 457.926C762.223 457.645 762.559 457.293 762.77 456.871V453.848H761.598C760.613 453.863 759.836 454.086 759.266 454.516C758.695 454.938 758.41 455.531 758.41 456.297C758.41 457.016 758.555 457.539 758.844 457.867C759.133 458.188 759.621 458.348 760.309 458.348ZM771.242 454.199L770.141 455.465V460H768.066V442H770.141V452.77L774.09 447.32H776.574L772.543 452.617L777.102 460H774.688L771.242 454.199ZM793.555 454.27C793.555 456.277 793.191 457.773 792.465 458.758C791.746 459.742 790.727 460.234 789.406 460.234C788.133 460.234 787.152 459.754 786.465 458.793V464.875H784.402V447.32H786.277L786.383 448.727C787.078 447.633 788.074 447.086 789.371 447.086C790.762 447.086 791.801 447.57 792.488 448.539C793.176 449.508 793.531 450.957 793.555 452.887V454.27ZM791.492 453.086C791.492 451.664 791.273 450.617 790.836 449.945C790.398 449.266 789.695 448.926 788.727 448.926C787.734 448.926 786.98 449.422 786.465 450.414V457.012C786.973 457.98 787.734 458.465 788.75 458.465C789.688 458.465 790.375 458.129 790.812 457.457C791.258 456.777 791.484 455.742 791.492 454.352V453.086ZM801.465 449.266C801.176 449.211 800.863 449.184 800.527 449.184C799.465 449.184 798.723 449.766 798.301 450.93V460H796.227V447.32H798.242L798.277 448.609C798.832 447.594 799.617 447.086 800.633 447.086C800.961 447.086 801.234 447.141 801.453 447.25L801.465 449.266ZM802.871 453.074C802.871 451.23 803.316 449.773 804.207 448.703C805.105 447.625 806.289 447.086 807.758 447.086C809.227 447.086 810.406 447.609 811.297 448.656C812.195 449.703 812.656 451.129 812.68 452.934V454.27C812.68 456.105 812.234 457.559 811.344 458.629C810.453 459.699 809.266 460.234 807.781 460.234C806.312 460.234 805.133 459.715 804.242 458.676C803.359 457.637 802.902 456.23 802.871 454.457V453.074ZM804.945 454.27C804.945 455.574 805.199 456.602 805.707 457.352C806.223 458.094 806.914 458.465 807.781 458.465C809.609 458.465 810.551 457.145 810.605 454.504V453.074C810.605 451.777 810.348 450.754 809.832 450.004C809.316 449.246 808.625 448.867 807.758 448.867C806.906 448.867 806.223 449.246 805.707 450.004C805.199 450.754 804.945 451.773 804.945 453.062V454.27ZM819.758 458.465C820.445 458.465 820.996 458.254 821.41 457.832C821.824 457.402 822.051 456.793 822.09 456.004H824.047C824 457.223 823.566 458.234 822.746 459.039C821.934 459.836 820.938 460.234 819.758 460.234C818.188 460.234 816.988 459.742 816.16 458.758C815.34 457.766 814.93 456.293 814.93 454.34V452.945C814.93 451.031 815.34 449.578 816.16 448.586C816.98 447.586 818.176 447.086 819.746 447.086C821.043 447.086 822.07 447.496 822.828 448.316C823.594 449.137 824 450.258 824.047 451.68H822.09C822.043 450.742 821.816 450.039 821.41 449.57C821.012 449.102 820.457 448.867 819.746 448.867C818.824 448.867 818.141 449.172 817.695 449.781C817.25 450.383 817.02 451.375 817.004 452.758V454.375C817.004 455.867 817.223 456.922 817.66 457.539C818.105 458.156 818.805 458.465 819.758 458.465ZM830.973 460.234C829.395 460.234 828.184 459.766 827.34 458.828C826.496 457.883 826.066 456.5 826.051 454.68V453.145C826.051 451.254 826.461 449.773 827.281 448.703C828.109 447.625 829.262 447.086 830.738 447.086C832.223 447.086 833.332 447.559 834.066 448.504C834.801 449.449 835.176 450.922 835.191 452.922V454.281H828.113V454.574C828.113 455.934 828.367 456.922 828.875 457.539C829.391 458.156 830.129 458.465 831.09 458.465C831.699 458.465 832.234 458.352 832.695 458.125C833.164 457.891 833.602 457.523 834.008 457.023L835.086 458.336C834.188 459.602 832.816 460.234 830.973 460.234ZM830.738 448.867C829.879 448.867 829.242 449.164 828.828 449.758C828.414 450.344 828.18 451.258 828.125 452.5H833.117V452.219C833.062 451.016 832.844 450.156 832.461 449.641C832.086 449.125 831.512 448.867 830.738 448.867ZM843.852 456.754C843.852 456.309 843.684 455.926 843.348 455.605C843.012 455.285 842.363 454.91 841.402 454.48C840.285 454.02 839.496 453.625 839.035 453.297C838.582 452.969 838.242 452.598 838.016 452.184C837.789 451.762 837.676 451.262 837.676 450.684C837.676 449.652 838.051 448.797 838.801 448.117C839.559 447.43 840.523 447.086 841.695 447.086C842.93 447.086 843.922 447.445 844.672 448.164C845.422 448.883 845.797 449.805 845.797 450.93H843.734C843.734 450.359 843.543 449.875 843.16 449.477C842.777 449.07 842.289 448.867 841.695 448.867C841.086 448.867 840.605 449.027 840.254 449.348C839.91 449.66 839.738 450.082 839.738 450.613C839.738 451.035 839.863 451.375 840.113 451.633C840.371 451.891 840.984 452.23 841.953 452.652C843.492 453.254 844.539 453.844 845.094 454.422C845.648 454.992 845.926 455.719 845.926 456.602C845.926 457.703 845.547 458.586 844.789 459.25C844.031 459.906 843.016 460.234 841.742 460.234C840.422 460.234 839.352 459.855 838.531 459.098C837.711 458.34 837.301 457.379 837.301 456.215H839.387C839.41 456.918 839.625 457.469 840.031 457.867C840.438 458.266 841.008 458.465 841.742 458.465C842.43 458.465 842.953 458.312 843.312 458.008C843.672 457.695 843.852 457.277 843.852 456.754ZM854.797 456.754C854.797 456.309 854.629 455.926 854.293 455.605C853.957 455.285 853.309 454.91 852.348 454.48C851.23 454.02 850.441 453.625 849.98 453.297C849.527 452.969 849.188 452.598 848.961 452.184C848.734 451.762 848.621 451.262 848.621 450.684C848.621 449.652 848.996 448.797 849.746 448.117C850.504 447.43 851.469 447.086 852.641 447.086C853.875 447.086 854.867 447.445 855.617 448.164C856.367 448.883 856.742 449.805 856.742 450.93H854.68C854.68 450.359 854.488 449.875 854.105 449.477C853.723 449.07 853.234 448.867 852.641 448.867C852.031 448.867 851.551 449.027 851.199 449.348C850.855 449.66 850.684 450.082 850.684 450.613C850.684 451.035 850.809 451.375 851.059 451.633C851.316 451.891 851.93 452.23 852.898 452.652C854.438 453.254 855.484 453.844 856.039 454.422C856.594 454.992 856.871 455.719 856.871 456.602C856.871 457.703 856.492 458.586 855.734 459.25C854.977 459.906 853.961 460.234 852.688 460.234C851.367 460.234 850.297 459.855 849.477 459.098C848.656 458.34 848.246 457.379 848.246 456.215H850.332C850.355 456.918 850.57 457.469 850.977 457.867C851.383 458.266 851.953 458.465 852.688 458.465C853.375 458.465 853.898 458.312 854.258 458.008C854.617 457.695 854.797 457.277 854.797 456.754ZM861.816 460H859.742V447.32H861.816V460ZM861.98 443.957C861.98 444.309 861.883 444.602 861.688 444.836C861.492 445.07 861.195 445.188 860.797 445.188C860.406 445.188 860.113 445.07 859.918 444.836C859.723 444.602 859.625 444.309 859.625 443.957C859.625 443.605 859.723 443.309 859.918 443.066C860.113 442.824 860.406 442.703 860.797 442.703C861.188 442.703 861.48 442.828 861.676 443.078C861.879 443.32 861.98 443.613 861.98 443.957ZM867.043 447.32L867.102 448.691C867.906 447.621 868.934 447.086 870.184 447.086C872.426 447.086 873.562 448.582 873.594 451.574V460H871.531V451.668C871.531 450.676 871.363 449.973 871.027 449.559C870.699 449.137 870.203 448.926 869.539 448.926C869.023 448.926 868.559 449.098 868.145 449.441C867.738 449.785 867.41 450.234 867.16 450.789V460H865.086V447.32H867.043ZM876.301 453.086C876.301 451.109 876.66 449.617 877.379 448.609C878.098 447.594 879.148 447.086 880.531 447.086C881.82 447.086 882.801 447.637 883.473 448.738L883.578 447.32H885.453V460.117C885.453 461.688 885.051 462.891 884.246 463.727C883.441 464.57 882.32 464.992 880.883 464.992C880.258 464.992 879.555 464.836 878.773 464.523C878 464.219 877.418 463.84 877.027 463.387L877.871 461.957C878.73 462.801 879.68 463.223 880.719 463.223C882.445 463.223 883.332 462.281 883.379 460.398V458.746C882.707 459.738 881.754 460.234 880.52 460.234C879.207 460.234 878.184 459.742 877.449 458.758C876.715 457.766 876.332 456.344 876.301 454.492V453.086ZM878.375 454.27C878.375 455.691 878.582 456.738 878.996 457.41C879.418 458.074 880.105 458.406 881.059 458.406C882.09 458.406 882.863 457.879 883.379 456.824V450.484C882.84 449.445 882.074 448.926 881.082 448.926C880.129 448.926 879.441 449.262 879.02 449.934C878.598 450.598 878.383 451.621 878.375 453.004V454.27Z" fill="black"/>
<rect x="1094" y="252" width="8" height="80" fill="#04B2D9"/>
<rect x="1266" y="252" width="8" height="80" fill="#04B2D9"/>
<rect x="1135" y="252" width="8" height="80" fill="#04B2D9"/>
<rect x="1545" y="252" width="8" height="80" fill="#04B2D9"/>
<rect x="1297" y="252" width="8" height="80" fill="#04B2D9"/>
<rect x="1151" y="252" width="8" height="80" fill="#04B2D9"/>
<rect x="1743" y="252" width="8" height="80" fill="#04B2D9"/>
<rect x="1349" y="252" width="8" height="80" fill="#04B2D9"/>
<rect x="1769" y="252" width="8" height="80" fill="#04B2D9"/>
<rect x="1201" y="252" width="35" height="80" fill="#04B2D9"/>
<rect x="1390" y="252" width="16" height="80" fill="#04B2D9"/>
<rect x="1685" y="252" width="16" height="80" fill="#04B2D9"/>
<rect x="1800" y="252" width="8" height="80" fill="#04B2D9"/>
<rect x="1079" y="164" width="160" height="80" fill="#C4C4C4"/>
<rect x="1499" y="164" width="160" height="80" fill="#C4C4C4"/>
<rect x="1247" y="164" width="160" height="80" fill="#C4C4C4"/>
<rect x="1667" y="164" width="160" height="80" fill="#C4C4C4"/>
<path d="M1147.81 196.789H1143.32V212H1141.18V196.789H1136.7V194.938H1147.81V196.789ZM1155.23 212C1155.11 211.727 1155.02 211.266 1154.96 210.617C1154.23 211.695 1153.29 212.234 1152.15 212.234C1151 212.234 1150.1 211.914 1149.45 211.273C1148.81 210.625 1148.49 209.715 1148.49 208.543C1148.49 207.254 1148.93 206.23 1149.8 205.473C1150.68 204.715 1151.88 204.328 1153.4 204.312H1154.93V202.965C1154.93 202.207 1154.76 201.668 1154.42 201.348C1154.09 201.027 1153.57 200.867 1152.89 200.867C1152.26 200.867 1151.75 201.055 1151.36 201.43C1150.97 201.797 1150.78 202.266 1150.78 202.836H1148.7C1148.7 202.188 1148.89 201.57 1149.28 200.984C1149.66 200.391 1150.18 199.926 1150.82 199.59C1151.47 199.254 1152.2 199.086 1152.99 199.086C1154.29 199.086 1155.27 199.41 1155.95 200.059C1156.62 200.699 1156.97 201.637 1156.99 202.871V209.27C1157 210.246 1157.13 211.094 1157.39 211.812V212H1155.23ZM1152.46 210.348C1152.97 210.348 1153.46 210.207 1153.92 209.926C1154.38 209.645 1154.71 209.293 1154.93 208.871V205.848H1153.75C1152.77 205.863 1151.99 206.086 1151.42 206.516C1150.85 206.938 1150.57 207.531 1150.57 208.297C1150.57 209.016 1150.71 209.539 1151 209.867C1151.29 210.188 1151.78 210.348 1152.46 210.348ZM1166.38 208.754C1166.38 208.309 1166.21 207.926 1165.87 207.605C1165.54 207.285 1164.89 206.91 1163.93 206.48C1162.81 206.02 1162.02 205.625 1161.56 205.297C1161.11 204.969 1160.77 204.598 1160.54 204.184C1160.31 203.762 1160.2 203.262 1160.2 202.684C1160.2 201.652 1160.57 200.797 1161.32 200.117C1162.08 199.43 1163.05 199.086 1164.22 199.086C1165.45 199.086 1166.45 199.445 1167.2 200.164C1167.95 200.883 1168.32 201.805 1168.32 202.93H1166.26C1166.26 202.359 1166.07 201.875 1165.68 201.477C1165.3 201.07 1164.81 200.867 1164.22 200.867C1163.61 200.867 1163.13 201.027 1162.78 201.348C1162.43 201.66 1162.26 202.082 1162.26 202.613C1162.26 203.035 1162.39 203.375 1162.64 203.633C1162.89 203.891 1163.51 204.23 1164.48 204.652C1166.02 205.254 1167.06 205.844 1167.62 206.422C1168.17 206.992 1168.45 207.719 1168.45 208.602C1168.45 209.703 1168.07 210.586 1167.31 211.25C1166.55 211.906 1165.54 212.234 1164.27 212.234C1162.95 212.234 1161.88 211.855 1161.05 211.098C1160.23 210.34 1159.82 209.379 1159.82 208.215H1161.91C1161.93 208.918 1162.15 209.469 1162.55 209.867C1162.96 210.266 1163.53 210.465 1164.27 210.465C1164.95 210.465 1165.48 210.312 1165.84 210.008C1166.2 209.695 1166.38 209.277 1166.38 208.754ZM1174.34 206.199L1173.24 207.465V212H1171.17V194H1173.24V204.77L1177.19 199.32H1179.68L1175.64 204.617L1180.2 212H1177.79L1174.34 206.199Z" fill="black"/>
<path d="M1567.81 196.789H1563.32V212H1561.18V196.789H1556.7V194.938H1567.81V196.789ZM1575.23 212C1575.11 211.727 1575.02 211.266 1574.96 210.617C1574.23 211.695 1573.29 212.234 1572.15 212.234C1571 212.234 1570.1 211.914 1569.45 211.273C1568.81 210.625 1568.49 209.715 1568.49 208.543C1568.49 207.254 1568.93 206.23 1569.8 205.473C1570.68 204.715 1571.88 204.328 1573.4 204.312H1574.93V202.965C1574.93 202.207 1574.76 201.668 1574.42 201.348C1574.09 201.027 1573.57 200.867 1572.89 200.867C1572.26 200.867 1571.75 201.055 1571.36 201.43C1570.97 201.797 1570.78 202.266 1570.78 202.836H1568.7C1568.7 202.188 1568.89 201.57 1569.28 200.984C1569.66 200.391 1570.18 199.926 1570.82 199.59C1571.47 199.254 1572.2 199.086 1572.99 199.086C1574.29 199.086 1575.27 199.41 1575.95 200.059C1576.62 200.699 1576.97 201.637 1576.99 202.871V209.27C1577 210.246 1577.13 211.094 1577.39 211.812V212H1575.23ZM1572.46 210.348C1572.97 210.348 1573.46 210.207 1573.92 209.926C1574.38 209.645 1574.71 209.293 1574.93 208.871V205.848H1573.75C1572.77 205.863 1571.99 206.086 1571.42 206.516C1570.85 206.938 1570.57 207.531 1570.57 208.297C1570.57 209.016 1570.71 209.539 1571 209.867C1571.29 210.188 1571.78 210.348 1572.46 210.348ZM1586.38 208.754C1586.38 208.309 1586.21 207.926 1585.87 207.605C1585.54 207.285 1584.89 206.91 1583.93 206.48C1582.81 206.02 1582.02 205.625 1581.56 205.297C1581.11 204.969 1580.77 204.598 1580.54 204.184C1580.31 203.762 1580.2 203.262 1580.2 202.684C1580.2 201.652 1580.57 200.797 1581.32 200.117C1582.08 199.43 1583.05 199.086 1584.22 199.086C1585.45 199.086 1586.45 199.445 1587.2 200.164C1587.95 200.883 1588.32 201.805 1588.32 202.93H1586.26C1586.26 202.359 1586.07 201.875 1585.68 201.477C1585.3 201.07 1584.81 200.867 1584.22 200.867C1583.61 200.867 1583.13 201.027 1582.78 201.348C1582.43 201.66 1582.26 202.082 1582.26 202.613C1582.26 203.035 1582.39 203.375 1582.64 203.633C1582.89 203.891 1583.51 204.23 1584.48 204.652C1586.02 205.254 1587.06 205.844 1587.62 206.422C1588.17 206.992 1588.45 207.719 1588.45 208.602C1588.45 209.703 1588.07 210.586 1587.31 211.25C1586.55 211.906 1585.54 212.234 1584.27 212.234C1582.95 212.234 1581.88 211.855 1581.05 211.098C1580.23 210.34 1579.82 209.379 1579.82 208.215H1581.91C1581.93 208.918 1582.15 209.469 1582.55 209.867C1582.96 210.266 1583.53 210.465 1584.27 210.465C1584.95 210.465 1585.48 210.312 1585.84 210.008C1586.2 209.695 1586.38 209.277 1586.38 208.754ZM1594.34 206.199L1593.24 207.465V212H1591.17V194H1593.24V204.77L1597.19 199.32H1599.68L1595.64 204.617L1600.2 212H1597.79L1594.34 206.199Z" fill="black"/>
<path d="M1315.81 196.789H1311.32V212H1309.18V196.789H1304.7V194.938H1315.81V196.789ZM1323.23 212C1323.11 211.727 1323.02 211.266 1322.96 210.617C1322.23 211.695 1321.29 212.234 1320.15 212.234C1319 212.234 1318.1 211.914 1317.45 211.273C1316.81 210.625 1316.49 209.715 1316.49 208.543C1316.49 207.254 1316.93 206.23 1317.8 205.473C1318.68 204.715 1319.88 204.328 1321.4 204.312H1322.93V202.965C1322.93 202.207 1322.76 201.668 1322.42 201.348C1322.09 201.027 1321.57 200.867 1320.89 200.867C1320.26 200.867 1319.75 201.055 1319.36 201.43C1318.97 201.797 1318.78 202.266 1318.78 202.836H1316.7C1316.7 202.188 1316.89 201.57 1317.28 200.984C1317.66 200.391 1318.18 199.926 1318.82 199.59C1319.47 199.254 1320.2 199.086 1320.99 199.086C1322.29 199.086 1323.27 199.41 1323.95 200.059C1324.62 200.699 1324.97 201.637 1324.99 202.871V209.27C1325 210.246 1325.13 211.094 1325.39 211.812V212H1323.23ZM1320.46 210.348C1320.97 210.348 1321.46 210.207 1321.92 209.926C1322.38 209.645 1322.71 209.293 1322.93 208.871V205.848H1321.75C1320.77 205.863 1319.99 206.086 1319.42 206.516C1318.85 206.938 1318.57 207.531 1318.57 208.297C1318.57 209.016 1318.71 209.539 1319 209.867C1319.29 210.188 1319.78 210.348 1320.46 210.348ZM1334.38 208.754C1334.38 208.309 1334.21 207.926 1333.87 207.605C1333.54 207.285 1332.89 206.91 1331.93 206.48C1330.81 206.02 1330.02 205.625 1329.56 205.297C1329.11 204.969 1328.77 204.598 1328.54 204.184C1328.31 203.762 1328.2 203.262 1328.2 202.684C1328.2 201.652 1328.57 200.797 1329.32 200.117C1330.08 199.43 1331.05 199.086 1332.22 199.086C1333.45 199.086 1334.45 199.445 1335.2 200.164C1335.95 200.883 1336.32 201.805 1336.32 202.93H1334.26C1334.26 202.359 1334.07 201.875 1333.68 201.477C1333.3 201.07 1332.81 200.867 1332.22 200.867C1331.61 200.867 1331.13 201.027 1330.78 201.348C1330.43 201.66 1330.26 202.082 1330.26 202.613C1330.26 203.035 1330.39 203.375 1330.64 203.633C1330.89 203.891 1331.51 204.23 1332.48 204.652C1334.02 205.254 1335.06 205.844 1335.62 206.422C1336.17 206.992 1336.45 207.719 1336.45 208.602C1336.45 209.703 1336.07 210.586 1335.31 211.25C1334.55 211.906 1333.54 212.234 1332.27 212.234C1330.95 212.234 1329.88 211.855 1329.05 211.098C1328.23 210.34 1327.82 209.379 1327.82 208.215H1329.91C1329.93 208.918 1330.15 209.469 1330.55 209.867C1330.96 210.266 1331.53 210.465 1332.27 210.465C1332.95 210.465 1333.48 210.312 1333.84 210.008C1334.2 209.695 1334.38 209.277 1334.38 208.754ZM1342.34 206.199L1341.24 207.465V212H1339.17V194H1341.24V204.77L1345.19 199.32H1347.68L1343.64 204.617L1348.2 212H1345.79L1342.34 206.199Z" fill="black"/>
<path d="M1735.81 196.789H1731.32V212H1729.18V196.789H1724.7V194.938H1735.81V196.789ZM1743.23 212C1743.11 211.727 1743.02 211.266 1742.96 210.617C1742.23 211.695 1741.29 212.234 1740.15 212.234C1739 212.234 1738.1 211.914 1737.45 211.273C1736.81 210.625 1736.49 209.715 1736.49 208.543C1736.49 207.254 1736.93 206.23 1737.8 205.473C1738.68 204.715 1739.88 204.328 1741.4 204.312H1742.93V202.965C1742.93 202.207 1742.76 201.668 1742.42 201.348C1742.09 201.027 1741.57 200.867 1740.89 200.867C1740.26 200.867 1739.75 201.055 1739.36 201.43C1738.97 201.797 1738.78 202.266 1738.78 202.836H1736.7C1736.7 202.188 1736.89 201.57 1737.28 200.984C1737.66 200.391 1738.18 199.926 1738.82 199.59C1739.47 199.254 1740.2 199.086 1740.99 199.086C1742.29 199.086 1743.27 199.41 1743.95 200.059C1744.62 200.699 1744.97 201.637 1744.99 202.871V209.27C1745 210.246 1745.13 211.094 1745.39 211.812V212H1743.23ZM1740.46 210.348C1740.97 210.348 1741.46 210.207 1741.92 209.926C1742.38 209.645 1742.71 209.293 1742.93 208.871V205.848H1741.75C1740.77 205.863 1739.99 206.086 1739.42 206.516C1738.85 206.938 1738.57 207.531 1738.57 208.297C1738.57 209.016 1738.71 209.539 1739 209.867C1739.29 210.188 1739.78 210.348 1740.46 210.348ZM1754.38 208.754C1754.38 208.309 1754.21 207.926 1753.87 207.605C1753.54 207.285 1752.89 206.91 1751.93 206.48C1750.81 206.02 1750.02 205.625 1749.56 205.297C1749.11 204.969 1748.77 204.598 1748.54 204.184C1748.31 203.762 1748.2 203.262 1748.2 202.684C1748.2 201.652 1748.57 200.797 1749.32 200.117C1750.08 199.43 1751.05 199.086 1752.22 199.086C1753.45 199.086 1754.45 199.445 1755.2 200.164C1755.95 200.883 1756.32 201.805 1756.32 202.93H1754.26C1754.26 202.359 1754.07 201.875 1753.68 201.477C1753.3 201.07 1752.81 200.867 1752.22 200.867C1751.61 200.867 1751.13 201.027 1750.78 201.348C1750.43 201.66 1750.26 202.082 1750.26 202.613C1750.26 203.035 1750.39 203.375 1750.64 203.633C1750.89 203.891 1751.51 204.23 1752.48 204.652C1754.02 205.254 1755.06 205.844 1755.62 206.422C1756.17 206.992 1756.45 207.719 1756.45 208.602C1756.45 209.703 1756.07 210.586 1755.31 211.25C1754.55 211.906 1753.54 212.234 1752.27 212.234C1750.95 212.234 1749.88 211.855 1749.05 211.098C1748.23 210.34 1747.82 209.379 1747.82 208.215H1749.91C1749.93 208.918 1750.15 209.469 1750.55 209.867C1750.96 210.266 1751.53 210.465 1752.27 210.465C1752.95 210.465 1753.48 210.312 1753.84 210.008C1754.2 209.695 1754.38 209.277 1754.38 208.754ZM1762.34 206.199L1761.24 207.465V212H1759.17V194H1761.24V204.77L1765.19 199.32H1767.68L1763.64 204.617L1768.2 212H1765.79L1762.34 206.199Z" fill="black"/>
<line x1="159.998" y1="575.5" x2="1760" y2="570.5" stroke="black"/>
<path d="M199.812 605.789H195.324V621H193.18V605.789H188.703V603.938H199.812V605.789ZM204.113 609.621C204.902 608.598 205.91 608.086 207.137 608.086C209.379 608.086 210.516 609.582 210.547 612.574V621H208.484V612.668C208.484 611.676 208.316 610.973 207.98 610.559C207.652 610.137 207.156 609.926 206.492 609.926C205.977 609.926 205.512 610.098 205.098 610.441C204.691 610.785 204.363 611.234 204.113 611.789V621H202.039V603H204.113V609.621ZM218.879 610.266C218.59 610.211 218.277 610.184 217.941 610.184C216.879 610.184 216.137 610.766 215.715 611.93V621H213.641V608.32H215.656L215.691 609.609C216.246 608.594 217.031 608.086 218.047 608.086C218.375 608.086 218.648 608.141 218.867 608.25L218.879 610.266ZM225.254 621.234C223.676 621.234 222.465 620.766 221.621 619.828C220.777 618.883 220.348 617.5 220.332 615.68V614.145C220.332 612.254 220.742 610.773 221.562 609.703C222.391 608.625 223.543 608.086 225.02 608.086C226.504 608.086 227.613 608.559 228.348 609.504C229.082 610.449 229.457 611.922 229.473 613.922V615.281H222.395V615.574C222.395 616.934 222.648 617.922 223.156 618.539C223.672 619.156 224.41 619.465 225.371 619.465C225.98 619.465 226.516 619.352 226.977 619.125C227.445 618.891 227.883 618.523 228.289 618.023L229.367 619.336C228.469 620.602 227.098 621.234 225.254 621.234ZM225.02 609.867C224.16 609.867 223.523 610.164 223.109 610.758C222.695 611.344 222.461 612.258 222.406 613.5H227.398V613.219C227.344 612.016 227.125 611.156 226.742 610.641C226.367 610.125 225.793 609.867 225.02 609.867ZM238.496 621C238.371 620.727 238.281 620.266 238.227 619.617C237.492 620.695 236.555 621.234 235.414 621.234C234.266 621.234 233.367 620.914 232.719 620.273C232.078 619.625 231.758 618.715 231.758 617.543C231.758 616.254 232.195 615.23 233.07 614.473C233.945 613.715 235.145 613.328 236.668 613.312H238.191V611.965C238.191 611.207 238.023 610.668 237.688 610.348C237.352 610.027 236.84 609.867 236.152 609.867C235.527 609.867 235.02 610.055 234.629 610.43C234.238 610.797 234.043 611.266 234.043 611.836H231.969C231.969 611.188 232.16 610.57 232.543 609.984C232.926 609.391 233.441 608.926 234.09 608.59C234.738 608.254 235.461 608.086 236.258 608.086C237.555 608.086 238.539 608.41 239.211 609.059C239.891 609.699 240.238 610.637 240.254 611.871V618.27C240.262 619.246 240.395 620.094 240.652 620.812V621H238.496ZM235.73 619.348C236.238 619.348 236.723 619.207 237.184 618.926C237.645 618.645 237.98 618.293 238.191 617.871V614.848H237.02C236.035 614.863 235.258 615.086 234.688 615.516C234.117 615.938 233.832 616.531 233.832 617.297C233.832 618.016 233.977 618.539 234.266 618.867C234.555 619.188 235.043 619.348 235.73 619.348ZM243.043 614.086C243.043 612.133 243.406 610.645 244.133 609.621C244.867 608.598 245.918 608.086 247.285 608.086C248.496 608.086 249.441 608.578 250.121 609.562V603H252.195V621H250.297L250.191 619.641C249.512 620.703 248.539 621.234 247.273 621.234C245.961 621.234 244.93 620.727 244.18 619.711C243.438 618.688 243.059 617.246 243.043 615.387V614.086ZM245.117 615.27C245.117 616.691 245.328 617.738 245.75 618.41C246.172 619.074 246.859 619.406 247.812 619.406C248.844 619.406 249.613 618.887 250.121 617.848V611.449C249.59 610.434 248.824 609.926 247.824 609.926C246.871 609.926 246.184 610.262 245.762 610.934C245.34 611.598 245.125 612.621 245.117 614.004V615.27Z" fill="black"/>
<line x1="1028.39" y1="244.316" x2="899.387" y2="402.316" stroke="black"/>
<line x1="1063.39" y1="244.315" x2="899.388" y2="446.315" stroke="black"/>
</svg>
