<svg version="1.1" viewBox="0.0 0.0 511.9685039370079 864.0" fill="none" stroke="none" stroke-linecap="square" stroke-miterlimit="10" xmlns:xlink="http://www.w3.org/1999/xlink" xmlns="http://www.w3.org/2000/svg"><clipPath id="p.0"><path d="m0 0l511.9685 0l0 864.0l-511.9685 0l0 -864.0z" clip-rule="nonzero"/></clipPath><g clip-path="url(#p.0)"><path fill="#efefef" d="m0 0l511.9685 0l0 864.0l-511.9685 0z" fill-rule="evenodd"/><path fill="#cccccc" d="m46.04625 528.845l0 0c0 -31.858582 25.82647 -57.68506 57.685036 -57.68506l0 0c15.2990265 0 29.971443 6.0775146 40.789482 16.895569c10.818054 10.818054 16.895554 25.490479 16.895554 40.78949l0 0c0 31.858582 -25.826462 57.68506 -57.685036 57.68506l0 0c-31.858566 0 -57.685036 -25.826477 -57.685036 -57.68506z" fill-rule="evenodd"/><path stroke="#000000" stroke-width="4.0" stroke-linejoin="round" stroke-linecap="butt" d="m46.04625 528.845l0 0c0 -31.858582 25.82647 -57.68506 57.685036 -57.68506l0 0c15.2990265 0 29.971443 6.0775146 40.789482 16.895569c10.818054 10.818054 16.895554 25.490479 16.895554 40.78949l0 0c0 31.858582 -25.826462 57.68506 -57.685036 57.68506l0 0c-31.858566 0 -57.685036 -25.826477 -57.685036 -57.68506z" fill-rule="evenodd"/><path fill="#000000" fill-opacity="0.0" d="m46.04625 529.7852c-47.354332 0 -94.708664 44.409424 -94.708664 88.81891" fill-rule="evenodd"/><path stroke="#000000" stroke-width="4.0" stroke-linejoin="round" stroke-linecap="butt" d="m22.314476 533.36334l-0.4448681 0.13208008c-0.7180538 0.21801758 -1.4341202 0.44506836 -2.1480198 0.6809082c-2.8555946 0.9432373 -5.676507 2.0274658 -8.451175 3.2417603c-11.098672 4.8573 -21.457432 11.796265 -30.336369 20.123047c-17.757875 16.653564 -29.596457 38.858276 -29.596457 61.06299" fill-rule="evenodd"/><path fill="#000000" stroke="#000000" stroke-width="4.0" stroke-linecap="butt" d="m23.299488 539.8964l16.964504 -9.23938l-18.93453 -3.8267822z" fill-rule="evenodd"/></g></svg>