<svg version="1.1" viewBox="0.0 0.0 511.9685039370079 864.0" fill="none" stroke="none" stroke-linecap="square" stroke-miterlimit="10" xmlns:xlink="http://www.w3.org/1999/xlink" xmlns="http://www.w3.org/2000/svg"><clipPath id="p.0"><path d="m0 0l511.9685 0l0 864.0l-511.9685 0l0 -864.0z" clip-rule="nonzero"/></clipPath><g clip-path="url(#p.0)"><path fill="#efefef" d="m0 0l511.9685 0l0 864.0l-511.9685 0z" fill-rule="evenodd"/><path fill="#cccccc" d="m198.14572 382.34387l0 0c0 -31.858582 25.826462 -57.68506 57.685028 -57.68506l0 0c15.299042 0 29.971436 6.0775146 40.78949 16.895569c10.818054 10.818024 16.895569 25.490448 16.895569 40.78949l0 0c0 31.858551 -25.826477 57.685028 -57.68506 57.685028l0 0c-31.858566 0 -57.685028 -25.826477 -57.685028 -57.685028z" fill-rule="evenodd"/><path stroke="#000000" stroke-width="4.0" stroke-linejoin="round" stroke-linecap="butt" d="m198.14572 382.34387l0 0c0 -31.858582 25.826462 -57.68506 57.685028 -57.68506l0 0c15.299042 0 29.971436 6.0775146 40.78949 16.895569c10.818054 10.818024 16.895569 25.490448 16.895569 40.78949l0 0c0 31.858551 -25.826477 57.685028 -57.68506 57.685028l0 0c-31.858566 0 -57.685028 -25.826477 -57.685028 -57.685028z" fill-rule="evenodd"/><path fill="#cccccc" d="m350.54672 528.845l0 0c0 -31.858582 25.826477 -57.68506 57.68506 -57.68506l0 0c15.299011 0 29.971436 6.0775146 40.78946 16.895569c10.818054 10.818054 16.895569 25.490479 16.895569 40.78949l0 0c0 31.858582 -25.826477 57.68506 -57.685028 57.68506l0 0c-31.858582 0 -57.68506 -25.826477 -57.68506 -57.68506z" fill-rule="evenodd"/><path stroke="#000000" stroke-width="4.0" stroke-linejoin="round" stroke-linecap="butt" d="m350.54672 528.845l0 0c0 -31.858582 25.826477 -57.68506 57.68506 -57.68506l0 0c15.299011 0 29.971436 6.0775146 40.78946 16.895569c10.818054 10.818054 16.895569 25.490479 16.895569 40.78949l0 0c0 31.858582 -25.826477 57.68506 -57.685028 57.68506l0 0c-31.858582 0 -57.68506 -25.826477 -57.68506 -57.68506z" fill-rule="evenodd"/><path fill="#000000" fill-opacity="0.0" d="m313.5158 382.34387c47.35431 0 94.70865 44.409424 94.70865 88.81888" fill-rule="evenodd"/><path stroke="#000000" stroke-width="4.0" stroke-linejoin="round" stroke-linecap="butt" d="m337.24756 385.922l0.44485474 0.1321106c0.7180786 0.21798706 1.4341431 0.44503784 2.1480408 0.68084717c2.8555908 0.9432678 5.6765137 2.0274658 8.451172 3.2417908c11.098663 4.8573 21.457428 11.796265 30.336365 20.123047c17.757874 16.653534 29.596466 38.858246 29.596466 61.06299" fill-rule="evenodd"/><path fill="#000000" stroke="#000000" stroke-width="4.0" stroke-linecap="butt" d="m338.23257 379.3889l-18.93454 3.8267822l16.964508 9.23941z" fill-rule="evenodd"/><path fill="#000000" fill-opacity="0.0" d="m179.82544 365.98672l152.0315 0l0 32.724396l-152.0315 0z" fill-rule="evenodd"/><path fill="#000000" d="m242.77869 380.88266l10.28125 0l0 5.46875l-10.28125 0l0 14.375l-5.5625 0l0 -14.375l-10.375 0l0 -5.46875l10.375 0l0 -13.28125l5.5625 0l0 13.28125zm33.28125 24.40625l-5.5625 0l0 -38.53125l-9.5625 4.28125l0 -5.25l14.25 -6.21875l0.875 0l0 45.71875z" fill-rule="nonzero"/><path fill="#cccccc" d="m46.04625 528.845l0 0c0 -31.858582 25.82647 -57.68506 57.685036 -57.68506l0 0c15.2990265 0 29.971443 6.0775146 40.789482 16.895569c10.818054 10.818054 16.895554 25.490479 16.895554 40.78949l0 0c0 31.858582 -25.826462 57.68506 -57.685036 57.68506l0 0c-31.858566 0 -57.685036 -25.826477 -57.685036 -57.68506z" fill-rule="evenodd"/><path stroke="#000000" stroke-width="4.0" stroke-linejoin="round" stroke-linecap="butt" d="m46.04625 528.845l0 0c0 -31.858582 25.82647 -57.68506 57.685036 -57.68506l0 0c15.2990265 0 29.971443 6.0775146 40.789482 16.895569c10.818054 10.818054 16.895554 25.490479 16.895554 40.78949l0 0c0 31.858582 -25.826462 57.68506 -57.685036 57.68506l0 0c-31.858566 0 -57.685036 -25.826477 -57.685036 -57.68506z" fill-rule="evenodd"/><path fill="#000000" fill-opacity="0.0" d="m46.04625 529.7852c-47.354332 0 -94.708664 44.409424 -94.708664 88.81891" fill-rule="evenodd"/><path stroke="#000000" stroke-width="4.0" stroke-linejoin="round" stroke-linecap="butt" d="m22.314476 533.36334l-0.4448681 0.13208008c-0.7180538 0.21801758 -1.4341202 0.44506836 -2.1480198 0.6809082c-2.8555946 0.9432373 -5.676507 2.0274658 -8.451175 3.2417603c-11.098672 4.8573 -21.457432 11.796265 -30.336369 20.123047c-17.757875 16.653564 -29.596457 38.858276 -29.596457 61.06299" fill-rule="evenodd"/><path fill="#000000" stroke="#000000" stroke-width="4.0" stroke-linecap="butt" d="m23.299488 539.8964l16.964504 -9.23938l-18.93453 -3.8267822z" fill-rule="evenodd"/><path fill="#000000" fill-opacity="0.0" d="m465.92224 529.7852c47.35437 0 94.70868 44.409424 94.70868 88.81891" fill-rule="evenodd"/><path stroke="#000000" stroke-width="4.0" stroke-linejoin="round" stroke-linecap="butt" d="m489.65402 533.36334l0.44485474 0.13208008c0.7180481 0.21801758 1.4341431 0.44506836 2.1480408 0.6809082c2.8555603 0.9432373 5.676483 2.0274658 8.451172 3.2417603c11.098663 4.8573 21.457428 11.796265 30.336334 20.123047c17.757874 16.653564 29.596497 38.858276 29.596497 61.06299" fill-rule="evenodd"/><path fill="#000000" stroke="#000000" stroke-width="4.0" stroke-linecap="butt" d="m490.63904 526.83026l-18.93454 3.8267822l16.964508 9.23938z" fill-rule="evenodd"/></g></svg>