<svg version="1.1" viewBox="0.0 0.0 511.9685039370079 864.0" fill="none" stroke="none" stroke-linecap="square" stroke-miterlimit="10" xmlns:xlink="http://www.w3.org/1999/xlink" xmlns="http://www.w3.org/2000/svg"><clipPath id="p.0"><path d="m0 0l511.9685 0l0 864.0l-511.9685 0l0 -864.0z" clip-rule="nonzero"/></clipPath><g clip-path="url(#p.0)"><path fill="#efefef" d="m0 0l511.9685 0l0 864.0l-511.9685 0z" fill-rule="evenodd"/><path fill="#cccccc" d="m198.14572 382.34387l0 0c0 -31.858582 25.826462 -57.68506 57.685028 -57.68506l0 0c15.299042 0 29.971436 6.0775146 40.78949 16.895569c10.818054 10.818024 16.895569 25.490448 16.895569 40.78949l0 0c0 31.858551 -25.826477 57.685028 -57.68506 57.685028l0 0c-31.858566 0 -57.685028 -25.826477 -57.685028 -57.685028z" fill-rule="evenodd"/><path stroke="#000000" stroke-width="4.0" stroke-linejoin="round" stroke-linecap="butt" stroke-dasharray="4.0,12.0" d="m198.14572 382.34387l0 0c0 -31.858582 25.826462 -57.68506 57.685028 -57.68506l0 0c15.299042 0 29.971436 6.0775146 40.78949 16.895569c10.818054 10.818024 16.895569 25.490448 16.895569 40.78949l0 0c0 31.858551 -25.826477 57.685028 -57.68506 57.685028l0 0c-31.858566 0 -57.685028 -25.826477 -57.685028 -57.685028z" fill-rule="evenodd"/><path fill="#cccccc" d="m350.54672 528.845l0 0c0 -31.858582 25.826477 -57.68506 57.68506 -57.68506l0 0c15.299011 0 29.971436 6.0775146 40.78946 16.895569c10.818054 10.818054 16.895569 25.490479 16.895569 40.78949l0 0c0 31.858582 -25.826477 57.68506 -57.685028 57.68506l0 0c-31.858582 0 -57.68506 -25.826477 -57.68506 -57.68506z" fill-rule="evenodd"/><path stroke="#000000" stroke-width="4.0" stroke-linejoin="round" stroke-linecap="butt" d="m350.54672 528.845l0 0c0 -31.858582 25.826477 -57.68506 57.68506 -57.68506l0 0c15.299011 0 29.971436 6.0775146 40.78946 16.895569c10.818054 10.818054 16.895569 25.490479 16.895569 40.78949l0 0c0 31.858582 -25.826477 57.68506 -57.685028 57.68506l0 0c-31.858582 0 -57.68506 -25.826477 -57.68506 -57.68506z" fill-rule="evenodd"/><path fill="#000000" fill-opacity="0.0" d="m179.82544 365.98672l152.0315 0l0 32.724396l-152.0315 0z" fill-rule="evenodd"/><path fill="#000000" d="m242.77869 380.88266l10.28125 0l0 5.46875l-10.28125 0l0 14.375l-5.5625 0l0 -14.375l-10.375 0l0 -5.46875l10.375 0l0 -13.28125l5.5625 0l0 13.28125zm41.125 5.0q0 10.0625 -2.9375 15.046875q-2.9375 4.984375 -9.21875 4.984375q-6.09375 0 -9.09375 -4.78125q-3.0 -4.78125 -3.125 -14.375l0 -7.8125q0 -9.96875 2.953125 -14.875q2.953125 -4.90625 9.203125 -4.90625q6.15625 0 9.109375 4.65625q2.953125 4.65625 3.109375 14.09375l0 7.96875zm-5.53125 -7.90625q0 -7.21875 -1.59375 -10.640625q-1.59375 -3.421875 -5.09375 -3.421875q-3.40625 0 -5.0 3.359375q-1.59375 3.359375 -1.65625 10.140625l0 9.375q0 7.1875 1.65625 10.796875q1.65625 3.609375 5.0625 3.609375q3.375 0 4.96875 -3.40625q1.59375 -3.40625 1.65625 -10.40625l0 -9.40625z" fill-rule="nonzero"/><path fill="#cccccc" d="m46.04625 528.845l0 0c0 -31.858582 25.82647 -57.68506 57.685036 -57.68506l0 0c15.2990265 0 29.971443 6.0775146 40.789482 16.895569c10.818054 10.818054 16.895554 25.490479 16.895554 40.78949l0 0c0 31.858582 -25.826462 57.68506 -57.685036 57.68506l0 0c-31.858566 0 -57.685036 -25.826477 -57.685036 -57.68506z" fill-rule="evenodd"/><path stroke="#000000" stroke-width="4.0" stroke-linejoin="round" stroke-linecap="butt" d="m46.04625 528.845l0 0c0 -31.858582 25.82647 -57.68506 57.685036 -57.68506l0 0c15.2990265 0 29.971443 6.0775146 40.789482 16.895569c10.818054 10.818054 16.895554 25.490479 16.895554 40.78949l0 0c0 31.858582 -25.826462 57.68506 -57.685036 57.68506l0 0c-31.858566 0 -57.685036 -25.826477 -57.685036 -57.68506z" fill-rule="evenodd"/><path fill="#000000" fill-opacity="0.0" d="m46.04625 529.7852c-47.354332 0 -94.708664 44.409424 -94.708664 88.81891" fill-rule="evenodd"/><path stroke="#000000" stroke-width="4.0" stroke-linejoin="round" stroke-linecap="butt" d="m22.314476 533.36334l-0.4448681 0.13208008c-0.7180538 0.21801758 -1.4341202 0.44506836 -2.1480198 0.6809082c-2.8555946 0.9432373 -5.676507 2.0274658 -8.451175 3.2417603c-11.098672 4.8573 -21.457432 11.796265 -30.336369 20.123047c-17.757875 16.653564 -29.596457 38.858276 -29.596457 61.06299" fill-rule="evenodd"/><path fill="#000000" stroke="#000000" stroke-width="4.0" stroke-linecap="butt" d="m23.299488 539.8964l16.964504 -9.23938l-18.93453 -3.8267822z" fill-rule="evenodd"/><path fill="#000000" fill-opacity="0.0" d="m465.92224 529.7852c47.35437 0 94.70868 44.409424 94.70868 88.81891" fill-rule="evenodd"/><path stroke="#000000" stroke-width="4.0" stroke-linejoin="round" stroke-linecap="butt" d="m489.65402 533.36334l0.44485474 0.13208008c0.7180481 0.21801758 1.4341431 0.44506836 2.1480408 0.6809082c2.8555603 0.9432373 5.676483 2.0274658 8.451172 3.2417603c11.098663 4.8573 21.457428 11.796265 30.336334 20.123047c17.757874 16.653564 29.596497 38.858276 29.596497 61.06299" fill-rule="evenodd"/><path fill="#000000" stroke="#000000" stroke-width="4.0" stroke-linecap="butt" d="m490.63904 526.83026l-18.93454 3.8267822l16.964508 9.23938z" fill-rule="evenodd"/><path fill="#000000" fill-opacity="0.0" d="m64.43572 285.0305l382.80313 0l0 32.724426l-382.80313 0z" fill-rule="evenodd"/><path fill="#000000" d="m191.59511 303.89395q0 -3.90625 1.453125 -5.953125q1.46875 -2.046875 4.203125 -2.046875q2.421875 0 3.78125 1.96875l0 -8.75l2.765625 0l0 24.0l-2.53125 0l-0.140625 -1.8125q-1.359375 2.125 -3.890625 2.125q-2.625 0 -4.125 -2.03125q-1.484375 -2.046875 -1.515625 -5.765625l0 -1.734375zm2.765625 1.578125q0 2.84375 0.84375 4.1875q0.84375 1.328125 2.75 1.328125q2.0625 0 3.078125 -2.078125l0 -8.53125q-1.0625 -2.03125 -3.0625 -2.03125q-1.90625 0 -2.75 1.34375q-0.84375 1.328125 -0.859375 4.09375l0 1.6875zm19.734375 7.953125q-3.15625 0 -4.84375 -1.875q-1.6875 -1.890625 -1.71875 -5.53125l0 -2.046875q0 -3.78125 1.640625 -5.921875q1.65625 -2.15625 4.609375 -2.15625q2.96875 0 4.4375 1.890625q1.46875 1.890625 1.5 5.890625l0 1.8125l-9.4375 0l0 0.390625q0 2.71875 1.015625 3.953125q1.03125 1.234375 2.953125 1.234375q1.21875 0 2.140625 -0.453125q0.9375 -0.46875 1.75 -1.46875l1.4375 1.75q-1.796875 2.53125 -5.484375 2.53125zm-0.3125 -15.15625q-1.71875 0 -2.546875 1.1875q-0.828125 1.171875 -0.9375 3.65625l6.65625 0l0 -0.375q-0.109375 -2.40625 -0.875 -3.4375q-0.75 -1.03125 -2.296875 -1.03125zm17.953125 14.84375q-0.25 -0.546875 -0.359375 -1.84375q-1.46875 2.15625 -3.75 2.15625q-2.296875 0 -3.59375 -1.28125q-1.28125 -1.296875 -1.28125 -3.640625q0 -2.578125 1.75 -4.09375q1.75 -1.515625 4.796875 -1.546875l2.03125 0l0 -1.796875q0 -1.515625 -0.671875 -2.15625q-0.671875 -0.640625 -2.046875 -0.640625q-1.25 0 -2.03125 0.75q-0.78125 0.734375 -0.78125 1.875l-2.765625 0q0 -1.296875 0.765625 -2.46875q0.765625 -1.1875 2.0625 -1.859375q1.296875 -0.671875 2.890625 -0.671875q2.59375 0 3.9375 1.296875q1.359375 1.28125 1.390625 3.75l0 8.53125q0.015625 1.953125 0.53125 3.390625l0 0.25l-2.875 0zm-3.6875 -2.203125q1.015625 0 1.9375 -0.5625q0.921875 -0.5625 1.34375 -1.40625l0 -4.03125l-1.5625 0q-1.96875 0.03125 -3.109375 0.890625q-1.140625 0.84375 -1.140625 2.375q0 1.4375 0.578125 2.09375q0.578125 0.640625 1.953125 0.640625zm13.296875 2.203125l-2.765625 0l0 -24.0l2.765625 0l0 24.0zm7.328125 0l-2.765625 0l0 -24.0l2.765625 0l0 24.0zm3.765625 -9.234375q0 -3.6875 1.78125 -5.828125q1.7968903 -2.15625 4.7343903 -2.15625q2.9375 0 4.71875 2.09375q1.796875 2.09375 1.84375 5.703125l0 1.78125q0 3.671875 -1.78125 5.8125q-1.78125 2.140625 -4.75 2.140625q-2.9375 0 -4.7187653 -2.078125q-1.765625 -2.078125 -1.828125 -5.625l0 -1.84375zm2.765625 1.59375q0 2.609375 1.0156403 4.109375q1.03125 1.484375 2.765625 1.484375q3.65625 0 3.765625 -5.28125l0 -1.90625q0 -2.59375 -1.03125 -4.09375q-1.03125 -1.515625 -2.765625 -1.515625q-1.703125 0 -2.734375 1.515625q-1.0156403 1.5 -1.0156403 4.078125l0 1.609375zm19.750015 5.59375q1.375 0 2.203125 -0.84375q0.828125 -0.859375 0.90625 -2.4375l2.609375 0q-0.09375 2.4375 -1.734375 4.046875q-1.625 1.59375 -3.984375 1.59375q-3.140625 0 -4.796875 -1.96875q-1.640625 -1.984375 -1.640625 -5.890625l0 -1.859375q0 -3.828125 1.640625 -5.8125q1.640625 -2.0 4.78125 -2.0q2.59375 0 4.109375 1.640625q1.53125 1.640625 1.625 4.484375l-2.609375 0q-0.09375 -1.875 -0.90625 -2.8125q-0.796875 -0.9375 -2.21875 -0.9375q-1.84375 0 -2.734375 1.21875q-0.890625 1.203125 -0.921875 3.96875l0 2.15625q0 2.984375 0.875 4.21875q0.890625 1.234375 2.796875 1.234375zm17.609375 2.046875q-0.25 -0.546875 -0.359375 -1.84375q-1.46875 2.15625 -3.75 2.15625q-2.296875 0 -3.59375 -1.28125q-1.28125 -1.296875 -1.28125 -3.640625q0 -2.578125 1.75 -4.09375q1.75 -1.515625 4.796875 -1.546875l2.03125 0l0 -1.796875q0 -1.515625 -0.671875 -2.15625q-0.671875 -0.640625 -2.046875 -0.640625q-1.25 0 -2.03125 0.75q-0.78125 0.734375 -0.78125 1.875l-2.765625 0q0 -1.296875 0.765625 -2.46875q0.765625 -1.1875 2.0625 -1.859375q1.296875 -0.671875 2.890625 -0.671875q2.59375 0 3.9375 1.296875q1.359375 1.28125 1.390625 3.75l0 8.53125q0.015625 1.953125 0.53125 3.390625l0 0.25l-2.875 0zm-3.6875 -2.203125q1.015625 0 1.9375 -0.5625q0.921875 -0.5625 1.34375 -1.40625l0 -4.03125l-1.5625 0q-1.96875 0.03125 -3.109375 0.890625q-1.140625 0.84375 -1.140625 2.375q0 1.4375 0.578125 2.09375q0.578125 0.640625 1.953125 0.640625zm13.9375 -18.796875l0 4.09375l2.546875 0l0 2.234375l-2.546875 0l0 10.484375q0 1.0 0.328125 1.515625q0.328125 0.515625 1.125 0.515625q0.546875 0 1.109375 -0.1875l-0.03125 2.34375q-0.9375 0.3125 -1.921875 0.3125q-1.640625 0 -2.5 -1.171875q-0.859375 -1.171875 -0.859375 -3.3125l0 -10.5l-2.578125 0l0 -2.234375l2.578125 0l0 -4.09375l2.75 0zm11.875 21.3125q-3.15625 0 -4.84375 -1.875q-1.6875 -1.890625 -1.71875 -5.53125l0 -2.046875q0 -3.78125 1.640625 -5.921875q1.65625 -2.15625 4.609375 -2.15625q2.96875 0 4.4375 1.890625q1.46875 1.890625 1.5 5.890625l0 1.8125l-9.4375 0l0 0.390625q0 2.71875 1.015625 3.953125q1.03125 1.234375 2.953125 1.234375q1.21875 0 2.140625 -0.453125q0.9375 -0.46875 1.75 -1.46875l1.4375 1.75q-1.796875 2.53125 -5.484375 2.53125zm-0.3125 -15.15625q-1.71875 0 -2.546875 1.1875q-0.828125 1.171875 -0.9375 3.65625l6.65625 0l0 -0.375q-0.109375 -2.40625 -0.875 -3.4375q-0.75 -1.03125 -2.296875 -1.03125z" fill-rule="nonzero"/></g></svg>