<svg version="1.1" viewBox="0.0 0.0 511.9685039370079 864.0" fill="none" stroke="none" stroke-linecap="square" stroke-miterlimit="10" xmlns:xlink="http://www.w3.org/1999/xlink" xmlns="http://www.w3.org/2000/svg"><clipPath id="p.0"><path d="m0 0l511.9685 0l0 864.0l-511.9685 0l0 -864.0z" clip-rule="nonzero"/></clipPath><g clip-path="url(#p.0)"><path fill="#efefef" d="m0 0l511.9685 0l0 864.0l-511.9685 0z" fill-rule="evenodd"/><path fill="#cccccc" d="m198.14572 382.34387l0 0c0 -31.858582 25.826462 -57.68506 57.685028 -57.68506l0 0c15.299042 0 29.971436 6.0775146 40.78949 16.895569c10.818054 10.818024 16.895569 25.490448 16.895569 40.78949l0 0c0 31.858551 -25.826477 57.685028 -57.68506 57.685028l0 0c-31.858566 0 -57.685028 -25.826477 -57.685028 -57.685028z" fill-rule="evenodd"/><path stroke="#000000" stroke-width="4.0" stroke-linejoin="round" stroke-linecap="butt" stroke-dasharray="4.0,12.0" d="m198.14572 382.34387l0 0c0 -31.858582 25.826462 -57.68506 57.685028 -57.68506l0 0c15.299042 0 29.971436 6.0775146 40.78949 16.895569c10.818054 10.818024 16.895569 25.490448 16.895569 40.78949l0 0c0 31.858551 -25.826477 57.685028 -57.68506 57.685028l0 0c-31.858566 0 -57.685028 -25.826477 -57.685028 -57.685028z" fill-rule="evenodd"/><path fill="#cccccc" d="m350.54672 528.845l0 0c0 -31.858582 25.826477 -57.68506 57.68506 -57.68506l0 0c15.299011 0 29.971436 6.0775146 40.78946 16.895569c10.818054 10.818054 16.895569 25.490479 16.895569 40.78949l0 0c0 31.858582 -25.826477 57.68506 -57.685028 57.68506l0 0c-31.858582 0 -57.68506 -25.826477 -57.68506 -57.68506z" fill-rule="evenodd"/><path stroke="#000000" stroke-width="4.0" stroke-linejoin="round" stroke-linecap="butt" d="m350.54672 528.845l0 0c0 -31.858582 25.826477 -57.68506 57.68506 -57.68506l0 0c15.299011 0 29.971436 6.0775146 40.78946 16.895569c10.818054 10.818054 16.895569 25.490479 16.895569 40.78949l0 0c0 31.858582 -25.826477 57.68506 -57.685028 57.68506l0 0c-31.858582 0 -57.68506 -25.826477 -57.68506 -57.68506z" fill-rule="evenodd"/><path fill="#000000" fill-opacity="0.0" d="m313.5158 382.34387c47.35431 0 94.70865 44.409424 94.70865 88.81888" fill-rule="evenodd"/><path stroke="#000000" stroke-width="4.0" stroke-linejoin="round" stroke-linecap="butt" stroke-dasharray="16.0,12.0" d="m337.24756 385.922l0.44485474 0.1321106c0.7180786 0.21798706 1.4341431 0.44503784 2.1480408 0.68084717c2.8555908 0.9432678 5.6765137 2.0274658 8.451172 3.2417908c11.098663 4.8573 21.457428 11.796265 30.336365 20.123047c17.757874 16.653534 29.596466 38.858246 29.596466 61.06299" fill-rule="evenodd"/><path fill="#000000" stroke="#000000" stroke-width="4.0" stroke-linecap="butt" d="m338.23257 379.3889l-18.93454 3.8267822l16.964508 9.23941z" fill-rule="evenodd"/><path fill="#000000" fill-opacity="0.0" d="m179.82544 365.98672l152.0315 0l0 32.724396l-152.0315 0z" fill-rule="evenodd"/><path fill="#000000" d="m242.77869 380.88266l10.28125 0l0 5.46875l-10.28125 0l0 14.375l-5.5625 0l0 -14.375l-10.375 0l0 -5.46875l10.375 0l0 -13.28125l5.5625 0l0 13.28125zm41.125 5.0q0 10.0625 -2.9375 15.046875q-2.9375 4.984375 -9.21875 4.984375q-6.09375 0 -9.09375 -4.78125q-3.0 -4.78125 -3.125 -14.375l0 -7.8125q0 -9.96875 2.953125 -14.875q2.953125 -4.90625 9.203125 -4.90625q6.15625 0 9.109375 4.65625q2.953125 4.65625 3.109375 14.09375l0 7.96875zm-5.53125 -7.90625q0 -7.21875 -1.59375 -10.640625q-1.59375 -3.421875 -5.09375 -3.421875q-3.40625 0 -5.0 3.359375q-1.59375 3.359375 -1.65625 10.140625l0 9.375q0 7.1875 1.65625 10.796875q1.65625 3.609375 5.0625 3.609375q3.375 0 4.96875 -3.40625q1.59375 -3.40625 1.65625 -10.40625l0 -9.40625z" fill-rule="nonzero"/><path fill="#cccccc" d="m46.04625 528.845l0 0c0 -31.858582 25.82647 -57.68506 57.685036 -57.68506l0 0c15.2990265 0 29.971443 6.0775146 40.789482 16.895569c10.818054 10.818054 16.895554 25.490479 16.895554 40.78949l0 0c0 31.858582 -25.826462 57.68506 -57.685036 57.68506l0 0c-31.858566 0 -57.685036 -25.826477 -57.685036 -57.68506z" fill-rule="evenodd"/><path stroke="#000000" stroke-width="4.0" stroke-linejoin="round" stroke-linecap="butt" d="m46.04625 528.845l0 0c0 -31.858582 25.82647 -57.68506 57.685036 -57.68506l0 0c15.2990265 0 29.971443 6.0775146 40.789482 16.895569c10.818054 10.818054 16.895554 25.490479 16.895554 40.78949l0 0c0 31.858582 -25.826462 57.68506 -57.685036 57.68506l0 0c-31.858566 0 -57.685036 -25.826477 -57.685036 -57.68506z" fill-rule="evenodd"/><path fill="#000000" fill-opacity="0.0" d="m46.04625 529.7852c-47.354332 0 -94.708664 44.409424 -94.708664 88.81891" fill-rule="evenodd"/><path stroke="#000000" stroke-width="4.0" stroke-linejoin="round" stroke-linecap="butt" d="m22.314476 533.36334l-0.4448681 0.13208008c-0.7180538 0.21801758 -1.4341202 0.44506836 -2.1480198 0.6809082c-2.8555946 0.9432373 -5.676507 2.0274658 -8.451175 3.2417603c-11.098672 4.8573 -21.457432 11.796265 -30.336369 20.123047c-17.757875 16.653564 -29.596457 38.858276 -29.596457 61.06299" fill-rule="evenodd"/><path fill="#000000" stroke="#000000" stroke-width="4.0" stroke-linecap="butt" d="m23.299488 539.8964l16.964504 -9.23938l-18.93453 -3.8267822z" fill-rule="evenodd"/><path fill="#000000" fill-opacity="0.0" d="m350.6939 528.8482c-47.35434 0 -94.708664 -44.409454 -94.708664 -88.81888" fill-rule="evenodd"/><path stroke="#000000" stroke-width="4.0" stroke-linejoin="round" stroke-linecap="butt" d="m326.96213 525.2701l-0.44485474 -0.13208008c-0.7180481 -0.21801758 -1.4341125 -0.44506836 -2.1480408 -0.68084717c-2.8555908 -0.94329834 -5.676483 -2.0274658 -8.451141 -3.2418213c-11.098694 -4.8573 -21.457428 -11.796234 -30.336365 -20.123016c-17.757874 -16.653534 -29.596466 -38.858276 -29.596466 -61.06299" fill-rule="evenodd"/><path fill="#000000" stroke="#000000" stroke-width="4.0" stroke-linecap="butt" d="m325.9771 531.8032l18.93454 -3.8267822l-16.964508 -9.239441z" fill-rule="evenodd"/><path fill="#000000" fill-opacity="0.0" d="m332.21652 512.4828l152.0315 0l0 32.724426l-152.0315 0z" fill-rule="evenodd"/><path fill="#000000" d="m395.16977 527.3787l10.28125 0l0 5.46875l-10.28125 0l0 14.375l-5.5625 0l0 -14.375l-10.375 0l0 -5.46875l10.375 0l0 -13.28125l5.5625 0l0 13.28125zm33.28125 24.40625l-5.5625 0l0 -38.53125l-9.5625 4.28125l0 -5.25l14.25 -6.21875l0.875 0l0 45.71875z" fill-rule="nonzero"/><path fill="#000000" fill-opacity="0.0" d="m350.6942 365.98148l152.0315 0l0 32.724396l-152.0315 0z" fill-rule="evenodd"/><path fill="#000000" d="m401.19043 359.32117l0 12.125q-0.03125 2.421875 -1.421875 3.796875q-1.375 1.375 -3.84375 1.375q-2.53125 0 -3.875 -1.34375q-1.328125 -1.34375 -1.34375 -3.828125l0 -12.125l2.125 0l0 12.046875q0 1.71875 0.734375 2.578125q0.734375 0.84375 2.359375 0.84375q1.640625 0 2.375 -0.84375q0.734375 -0.859375 0.734375 -2.578125l0 -12.046875l2.15625 0zm9.1796875 13.8125q0 -0.671875 -0.515625 -1.140625q-0.5 -0.484375 -1.9375 -1.125q-1.671875 -0.703125 -2.359375 -1.1875q-0.6875 -0.5 -1.03125 -1.125q-0.34375 -0.625 -0.34375 -1.484375q0 -1.546875 1.125 -2.578125q1.140625 -1.03125 2.90625 -1.03125q1.84375 0 2.96875 1.078125q1.125 1.078125 1.125 2.765625l-2.0625 0q0 -0.84375 -0.578125 -1.453125q-0.5625 -0.609375 -1.453125 -0.609375q-0.921875 0 -1.453125 0.484375q-0.515625 0.46875 -0.515625 1.265625q0 0.640625 0.375 1.03125q0.390625 0.375 1.84375 1.015625q2.3125 0.890625 3.140625 1.765625q0.828125 0.859375 0.828125 2.171875q0 1.65625 -1.140625 2.65625q-1.125 0.984375 -3.03125 0.984375q-1.984375 0 -3.21875 -1.140625q-1.234375 -1.140625 -1.234375 -2.875l2.09375 0q0.03125 1.046875 0.640625 1.65625q0.609375 0.59375 1.71875 0.59375q1.03125 0 1.5625 -0.46875q0.546875 -0.46875 0.546875 -1.25zm9.292969 3.484375q-2.359375 0 -3.625 -1.40625q-1.265625 -1.421875 -1.296875 -4.15625l0 -1.53125q0 -2.828125 1.234375 -4.4375q1.25 -1.625 3.453125 -1.625q2.234375 0 3.328125 1.421875q1.109375 1.421875 1.125 4.421875l0 1.359375l-7.078125 0l0 0.296875q0 2.03125 0.765625 2.96875q0.78125 0.921875 2.21875 0.921875q0.90625 0 1.609375 -0.34375q0.703125 -0.359375 1.3125 -1.109375l1.078125 1.3125q-1.359375 1.90625 -4.125 1.90625zm-0.234375 -11.375q-1.28125 0 -1.90625 0.890625q-0.625 0.890625 -0.703125 2.75l5.0 0l0 -0.28125q-0.09375 -1.8125 -0.65625 -2.578125q-0.5625 -0.78125 -1.734375 -0.78125zm17.671875 0.40625q-0.421875 -0.078125 -0.9375 -0.078125q-1.59375 0 -2.21875 1.734375l0 9.078125l-2.078125 0l0 -12.6875l2.015625 0l0.03125 1.296875q0.84375 -1.53125 2.359375 -1.53125q0.5 0 0.828125 0.171875l0 2.015625zm8.128906 10.734375q-0.1875 -0.40625 -0.265625 -1.390625q-1.109375 1.625 -2.8125 1.625q-1.734375 0 -2.703125 -0.96875q-0.953125 -0.96875 -0.953125 -2.71875q0 -1.9375 1.3125 -3.078125q1.3125 -1.140625 3.59375 -1.15625l1.515625 0l0 -1.34375q0 -1.140625 -0.5 -1.625q-0.5 -0.484375 -1.53125 -0.484375q-0.9375 0 -1.53125 0.5625q-0.578125 0.5625 -0.578125 1.40625l-2.078125 0q0 -0.96875 0.578125 -1.84375q0.578125 -0.890625 1.546875 -1.390625q0.96875 -0.515625 2.171875 -0.515625q1.9375 0 2.953125 0.96875q1.015625 0.96875 1.03125 2.828125l0 6.390625q0.015625 1.46875 0.40625 2.546875l0 0.1875l-2.15625 0zm-2.765625 -1.65625q0.765625 0 1.453125 -0.421875q0.6875 -0.421875 1.0 -1.046875l0 -3.03125l-1.171875 0q-1.46875 0.03125 -2.328125 0.671875q-0.859375 0.625 -0.859375 1.78125q0 1.078125 0.4375 1.5625q0.4375 0.484375 1.46875 0.484375zm17.183594 -1.984375l1.921875 -9.046875l2.0625 0l-3.109375 12.6875l-1.65625 0l-2.46875 -9.078125l-2.421875 9.078125l-1.65625 0l-3.078125 -12.6875l2.03125 0l1.96875 8.8125l2.359375 -8.8125l1.640625 0l2.40625 9.046875z" fill-rule="nonzero"/><path fill="#000000" d="m404.11816 399.6493q0 3.015625 -1.09375 4.5q-1.078125 1.46875 -3.0625 1.46875q-1.90625 0 -2.9375 -1.4375l0 6.078125l-2.0625 0l0 -17.5625l1.875 0l0.109375 1.40625q1.03125 -1.640625 2.984375 -1.640625q2.078125 0 3.109375 1.453125q1.03125 1.453125 1.078125 4.359375l0 1.375zm-2.0625 -1.1875q0 -2.125 -0.65625 -3.140625q-0.65625 -1.015625 -2.109375 -1.015625q-1.5 0 -2.265625 1.484375l0 6.609375q0.765625 1.453125 2.28125 1.453125q1.40625 0 2.0625 -1.015625q0.671875 -1.015625 0.6875 -3.109375l0 -1.265625zm4.2890625 0q0 -2.765625 1.34375 -4.375q1.34375 -1.625 3.546875 -1.625q2.203125 0 3.546875 1.578125q1.34375 1.5625 1.375 4.28125l0 1.328125q0 2.75 -1.34375 4.359375q-1.328125 1.609375 -3.546875 1.609375q-2.203125 0 -3.546875 -1.5625q-1.328125 -1.5625 -1.375 -4.21875l0 -1.375zm2.078125 1.1875q0 1.953125 0.765625 3.078125q0.765625 1.125 2.078125 1.125q2.734375 0 2.8125 -3.96875l0 -1.421875q0 -1.953125 -0.78125 -3.078125q-0.765625 -1.140625 -2.0625 -1.140625q-1.28125 0 -2.046875 1.140625q-0.765625 1.125 -0.765625 3.0625l0 1.203125zm12.640625 5.734375l-2.0625 0l0 -12.6875l2.0625 0l0 12.6875zm0.171875 -16.046875q0 0.53125 -0.296875 0.890625q-0.296875 0.34375 -0.890625 0.34375q-0.578125 0 -0.875 -0.34375q-0.296875 -0.359375 -0.296875 -0.890625q0 -0.53125 0.296875 -0.890625q0.296875 -0.359375 0.875 -0.359375q0.59375 0 0.890625 0.375q0.296875 0.359375 0.296875 0.875zm5.0429688 3.359375l0.0625 1.375q1.203125 -1.609375 3.078125 -1.609375q3.375 0 3.421875 4.5l0 8.421875l-2.0625 0l0 -8.328125q0 -1.5 -0.5 -2.125q-0.5 -0.625 -1.5 -0.625q-0.765625 0 -1.390625 0.515625q-0.609375 0.515625 -0.984375 1.34375l0 9.21875l-2.078125 0l0 -12.6875l1.953125 0zm12.378906 -3.0625l0 3.0625l1.90625 0l0 1.6875l-1.90625 0l0 7.859375q0 0.75 0.25 1.140625q0.25 0.375 0.84375 0.375q0.40625 0 0.828125 -0.140625l-0.015625 1.765625q-0.703125 0.234375 -1.453125 0.234375q-1.21875 0 -1.875 -0.875q-0.640625 -0.890625 -0.640625 -2.484375l0 -7.875l-1.9375 0l0 -1.6875l1.9375 0l0 -3.0625l2.0625 0zm8.902344 15.984375q-2.359375 0 -3.625 -1.40625q-1.265625 -1.421875 -1.296875 -4.15625l0 -1.53125q0 -2.828125 1.234375 -4.4375q1.25 -1.625 3.453125 -1.625q2.234375 0 3.328125 1.421875q1.109375 1.421875 1.125 4.421875l0 1.359375l-7.078125 0l0 0.296875q0 2.03125 0.765625 2.96875q0.78125 0.921875 2.21875 0.921875q0.90625 0 1.609375 -0.34375q0.703125 -0.359375 1.3125 -1.109375l1.078125 1.3125q-1.359375 1.90625 -4.125 1.90625zm-0.234375 -11.375q-1.28125 0 -1.90625 0.890625q-0.625 0.890625 -0.703125 2.75l5.0 0l0 -0.28125q-0.09375 -1.8125 -0.65625 -2.578125q-0.5625 -0.78125 -1.734375 -0.78125zm12.175781 0.40625q-0.421875 -0.078125 -0.9375 -0.078125q-1.59375 0 -2.21875 1.734375l0 9.078125l-2.078125 0l0 -12.6875l2.015625 0l0.03125 1.296875q0.84375 -1.53125 2.359375 -1.53125q0.5 0 0.828125 0.171875l0 2.015625z" fill-rule="nonzero"/></g></svg>