<svg version="1.1" viewBox="0.0 0.0 511.9685039370079 864.0" fill="none" stroke="none" stroke-linecap="square" stroke-miterlimit="10" xmlns:xlink="http://www.w3.org/1999/xlink" xmlns="http://www.w3.org/2000/svg"><clipPath id="p.0"><path d="m0 0l511.9685 0l0 864.0l-511.9685 0l0 -864.0z" clip-rule="nonzero"/></clipPath><g clip-path="url(#p.0)"><path fill="#efefef" d="m0 0l511.9685 0l0 864.0l-511.9685 0z" fill-rule="evenodd"/><path fill="#cccccc" d="m350.54672 587.46967l0 0c0 -31.858582 25.826477 -57.68506 57.68506 -57.68506l0 0c15.299011 0 29.971436 6.0775146 40.78946 16.895569c10.818054 10.817993 16.895569 25.490417 16.895569 40.78949l0 0c0 31.85852 -25.826477 57.684998 -57.685028 57.684998l0 0c-31.858582 0 -57.68506 -25.826477 -57.68506 -57.684998z" fill-rule="evenodd"/><path stroke="#000000" stroke-width="4.0" stroke-linejoin="round" stroke-linecap="butt" d="m350.54672 587.46967l0 0c0 -31.858582 25.826477 -57.68506 57.68506 -57.68506l0 0c15.299011 0 29.971436 6.0775146 40.78946 16.895569c10.818054 10.817993 16.895569 25.490417 16.895569 40.78949l0 0c0 31.85852 -25.826477 57.684998 -57.685028 57.684998l0 0c-31.858582 0 -57.68506 -25.826477 -57.68506 -57.684998z" fill-rule="evenodd"/><path fill="#000000" fill-opacity="0.0" d="m313.5158 382.34387c47.35431 0 94.70865 73.71652 94.70865 147.43304" fill-rule="evenodd"/><path stroke="#000000" stroke-width="4.0" stroke-linejoin="round" stroke-linecap="butt" d="m336.82208 388.0724l0.33145142 0.16152954c0.17974854 0.08862305 0.359375 0.17816162 0.5388794 0.26867676c0.7180786 0.36190796 1.4341431 0.7387085 2.1480408 1.1301575c2.8555908 1.5657349 5.6765137 3.365448 8.451172 5.3811646c11.098663 8.062744 21.457428 19.580933 30.336365 33.4028c17.757874 27.643677 29.596466 64.50195 29.596466 101.3602" fill-rule="evenodd"/><path fill="#000000" stroke="#000000" stroke-width="4.0" stroke-linecap="butt" d="m338.3991 381.65643l-19.204742 2.083191l16.05072 10.748749z" fill-rule="evenodd"/><path fill="#000000" fill-opacity="0.0" d="m-41.437023 431.99985l152.0315 0l0 32.724396l-152.0315 0z" fill-rule="evenodd"/><path fill="#000000" d="m24.692005 457.27768l6.515625 -22.953125l3.921875 0l-8.84375 28.4375l-3.125 0l-8.828125 -28.4375l3.90625 0l6.453125 22.953125zm28.136719 -15.53125q0 2.125 -0.953125 3.796875q-0.953125 1.65625 -2.546875 2.59375q1.890625 0.96875 2.96875 2.796875q1.078125 1.828125 1.078125 4.15625q0 3.671875 -2.09375 5.875q-2.078125 2.1875 -5.515625 2.1875q-3.4375 0 -5.515625 -2.1875q-2.078125 -2.203125 -2.078125 -5.875q0 -2.34375 1.0625 -4.1875q1.0625 -1.859375 2.90625 -2.796875q-1.609375 -0.9375 -2.53125 -2.578125q-0.90625 -1.65625 -0.90625 -3.78125q0 -3.59375 1.9375 -5.703125q1.953125 -2.109375 5.125 -2.109375q3.171875 0 5.109375 2.09375q1.953125 2.078125 1.953125 5.71875zm-2.921875 13.265625q0 -2.453125 -1.15625 -3.921875q-1.140625 -1.46875 -3.015625 -1.46875q-1.921875 0 -3.03125 1.484375q-1.09375 1.484375 -1.09375 3.90625q0 2.453125 1.078125 3.828125q1.09375 1.359375 3.078125 1.359375q2.0 0 3.0625 -1.359375q1.078125 -1.375 1.078125 -3.828125zm-0.515625 -13.203125q0 -2.171875 -1.015625 -3.53125q-1.015625 -1.375 -2.609375 -1.375q-1.65625 0 -2.640625 1.34375q-0.96875 1.34375 -0.96875 3.5625q0 2.21875 1.0 3.53125q1.0 1.3125 2.609375 1.3125q1.671875 0 2.640625 -1.328125q0.984375 -1.328125 0.984375 -3.515625z" fill-rule="nonzero"/><path fill="#cccccc" d="m46.04625 587.46967l0 0c0 -31.858582 25.82647 -57.68506 57.685036 -57.68506l0 0c15.2990265 0 29.971443 6.0775146 40.789482 16.895569c10.818054 10.817993 16.895554 25.490417 16.895554 40.78949l0 0c0 31.85852 -25.826462 57.684998 -57.685036 57.684998l0 0c-31.858566 0 -57.685036 -25.826477 -57.685036 -57.684998z" fill-rule="evenodd"/><path stroke="#000000" stroke-width="4.0" stroke-linejoin="round" stroke-linecap="butt" d="m46.04625 587.46967l0 0c0 -31.858582 25.82647 -57.68506 57.685036 -57.68506l0 0c15.2990265 0 29.971443 6.0775146 40.789482 16.895569c10.818054 10.817993 16.895554 25.490417 16.895554 40.78949l0 0c0 31.85852 -25.826462 57.684998 -57.685036 57.684998l0 0c-31.858566 0 -57.685036 -25.826477 -57.685036 -57.684998z" fill-rule="evenodd"/><path fill="#000000" fill-opacity="0.0" d="m46.04625 586.0818c-47.354332 0 -94.708664 44.409485 -94.708664 88.81891" fill-rule="evenodd"/><path stroke="#000000" stroke-width="4.0" stroke-linejoin="round" stroke-linecap="butt" d="m22.314476 589.6599l-0.4448681 0.13214111c-0.7180538 0.21801758 -1.4341202 0.44500732 -2.1480198 0.68084717c-2.8555946 0.94329834 -5.676507 2.0274658 -8.451175 3.2417603c-11.098672 4.8573 -21.457432 11.796265 -30.336369 20.123047c-17.757875 16.653564 -29.596457 38.858276 -29.596457 61.06299" fill-rule="evenodd"/><path fill="#000000" stroke="#000000" stroke-width="4.0" stroke-linecap="butt" d="m23.299488 596.193l16.964504 -9.23938l-18.93453 -3.8267822z" fill-rule="evenodd"/><path fill="#000000" fill-opacity="0.0" d="m-150.12599 470.70602l768.5984 0" fill-rule="evenodd"/><path stroke="#000000" stroke-width="4.0" stroke-linejoin="round" stroke-linecap="butt" d="m-150.12599 470.70602l768.5984 0" fill-rule="evenodd"/><path fill="#000000" fill-opacity="0.0" d="m6.2585144 476.6875l152.0315 0l0 32.724426l-152.0315 0z" fill-rule="evenodd"/><path fill="#000000" d="m18.321014 507.4497l0 -28.4375l8.109375 0q3.890625 0 5.84375 1.890625q1.96875 1.890625 1.96875 5.6875q0 1.984375 -1.0 3.515625q-0.984375 1.515625 -2.6875 2.359375q1.953125 0.59375 3.09375 2.40625q1.140625 1.8125 1.140625 4.375q0 3.828125 -2.109375 6.015625q-2.09375 2.1875 -5.96875 2.1875l-8.390625 0zm3.578125 -13.296875l0 10.234375l4.890625 0q2.03125 0 3.21875 -1.34375q1.1875 -1.34375 1.1875 -3.765625q0 -5.125 -4.328125 -5.125l-4.96875 0zm0 -3.015625l4.59375 0q1.859375 0 3.0 -1.25q1.140625 -1.25 1.140625 -3.3125q0 -2.34375 -1.046875 -3.40625q-1.03125 -1.078125 -3.15625 -1.078125l-4.53125 0l0 9.046875zm21.488281 16.3125l-3.453125 0l0 -30.0l3.453125 0l0 30.0zm9.160156 0l-3.453125 0l0 -21.140625l3.453125 0l0 21.140625zm0.265625 -26.734375q0 0.875 -0.484375 1.46875q-0.484375 0.578125 -1.484375 0.578125q-0.96875 0 -1.46875 -0.578125q-0.484375 -0.59375 -0.484375 -1.46875q0 -0.890625 0.484375 -1.484375q0.5 -0.609375 1.46875 -0.609375q0.984375 0 1.46875 0.625q0.5 0.609375 0.5 1.46875zm8.425781 5.59375l0.09375 2.296875q2.015625 -2.6875 5.140625 -2.6875q5.609375 0 5.6875 7.484375l0 14.046875l-3.4375 0l0 -13.890625q0 -2.484375 -0.84375 -3.515625q-0.828125 -1.046875 -2.484375 -1.046875q-1.28125 0 -2.3125 0.859375q-1.03125 0.859375 -1.65625 2.234375l0 15.359375l-3.453125 0l0 -21.140625l3.265625 0zm21.402344 11.46875l-1.828125 2.109375l0 7.5625l-3.46875 0l0 -30.0l3.46875 0l0 17.953125l6.578125 -9.09375l4.140625 0l-6.71875 8.828125l7.59375 12.3125l-4.015625 0l-5.75 -9.671875z" fill-rule="nonzero"/><path fill="#000000" fill-opacity="0.0" d="m210.40294 382.34387c-47.35434 0 -94.708664 73.71652 -94.708664 147.43304" fill-rule="evenodd"/><path stroke="#000000" stroke-width="4.0" stroke-linejoin="round" stroke-linecap="butt" d="m210.40292 382.34387c-23.677155 0 -47.35431 18.429138 -65.11218 46.072845c-8.878937 13.821838 -16.27806 29.947327 -21.457436 47.22464c-2.5896912 8.638672 -4.6244507 17.565247 -6.01178 26.635864c-0.17341614 1.1338196 -0.33672333 2.2698975 -0.4897232 3.4079285l-0.019340515 0.14642334" fill-rule="evenodd"/><path fill="#000000" stroke="#000000" stroke-width="4.0" stroke-linecap="butt" d="m110.720566 505.38608l5.367981 18.55655l7.8158035 -17.665588z" fill-rule="evenodd"/><path fill="#000000" fill-opacity="0.0" d="m144.52077 628.2591c0 20.947815 55.732285 41.887695 111.46457 41.89557c55.732285 0.007873535 111.464554 -20.91626 111.464554 -41.83258" fill-rule="evenodd"/><path stroke="#000000" stroke-width="4.0" stroke-linejoin="round" stroke-linecap="butt" d="m144.52077 628.2591c0 20.947815 55.732285 41.887695 111.46457 41.89557c27.866135 0.003967285 55.732285 -5.2250977 76.63188 -13.069702c5.224884 -1.9611206 10.014374 -4.0857544 14.259613 -6.332947c1.0613403 -0.5618286 2.0885925 -1.1312866 3.0802002 -1.7077637c0.49575806 -0.288208 0.9826355 -0.57818604 1.4603271 -0.86987305c0.2388916 -0.14587402 0.47543335 -0.29211426 0.7096863 -0.43878174l0.6564636 -0.41619873" fill-rule="evenodd"/><path fill="#000000" stroke="#000000" stroke-width="4.0" stroke-linecap="butt" d="m358.0132 651.3569l5.8631897 -18.406067l-16.322662 10.331055z" fill-rule="evenodd"/><path fill="#cccccc" d="m198.14572 382.34387l0 0c0 -31.858582 25.826462 -57.68506 57.685028 -57.68506l0 0c15.299042 0 29.971436 6.0775146 40.78949 16.895569c10.818054 10.818024 16.895569 25.490448 16.895569 40.78949l0 0c0 31.858551 -25.826477 57.685028 -57.68506 57.685028l0 0c-31.858566 0 -57.685028 -25.826477 -57.685028 -57.685028z" fill-rule="evenodd"/><path stroke="#000000" stroke-width="4.0" stroke-linejoin="round" stroke-linecap="butt" d="m198.14572 382.34387l0 0c0 -31.858582 25.826462 -57.68506 57.685028 -57.68506l0 0c15.299042 0 29.971436 6.0775146 40.78949 16.895569c10.818054 10.818024 16.895569 25.490448 16.895569 40.78949l0 0c0 31.858551 -25.826477 57.685028 -57.68506 57.685028l0 0c-31.858566 0 -57.685028 -25.826477 -57.685028 -57.685028z" fill-rule="evenodd"/></g></svg>